<svg width="80" height="80" viewBox="0 0 80 80" fill="none" xmlns="http://www.w3.org/2000/svg">
<path d="M27.6616 34.7886C34.4333 38.7536 38.035 54.2536 31.335 60.8669" stroke="white" stroke-width="1.66667" stroke-linecap="round" stroke-linejoin="round"/>
<path d="M25.719 60.8329C29.134 60.3633 31.1605 54.5869 30.2452 47.931C29.3299 41.2751 25.8195 36.2601 22.4044 36.7297C18.9894 37.1994 16.9629 42.9758 17.8782 49.6317C18.7935 56.2876 22.304 61.3025 25.719 60.8329Z" stroke="white" stroke-width="1.66667" stroke-linecap="round" stroke-linejoin="round"/>
<path d="M53.2856 55.0131C56.7007 54.5435 58.7271 48.7671 57.8118 42.1112C56.8965 35.4553 53.3861 30.4403 49.9711 30.9099C46.556 31.3795 44.5296 37.1559 45.4449 43.8118C46.3602 50.4677 49.8706 55.4827 53.2856 55.0131Z" stroke="white" stroke-width="1.66667" stroke-linecap="round" stroke-linejoin="round"/>
<path d="M54.4834 29.4648C62.0017 33.4815 63.8667 48.8382 58.775 55.4615M34.5084 46.6032L50.415 43.0965M61.23 40.7132L65.46 39.7798M14.54 51.0048L23.4267 49.0448" stroke="white" stroke-width="1.66667" stroke-linecap="round" stroke-linejoin="round"/>
<path d="M24.4227 52.7527C25.463 52.5331 25.931 50.5773 25.4681 48.3843C25.0053 46.1912 23.7868 44.5914 22.7465 44.811C21.7063 45.0305 21.2383 46.9863 21.7011 49.1793C22.164 51.3724 23.3825 52.9722 24.4227 52.7527Z" stroke="white" stroke-width="1.66667" stroke-linecap="round" stroke-linejoin="round"/>
<path d="M52.5316 42.7565C53.0516 44.9182 52.665 46.9565 51.6666 47.3232C50.6683 47.6898 49.4266 46.2498 48.8883 44.0932C48.35 41.9382 48.715 39.8748 49.705 39.4698C50.695 39.0648 51.9416 40.4698 52.4966 42.6198M61.8716 9.1665L61.9816 20.6615L58.29 18.2665L55.4633 20.5498L55.3516 9.1665" stroke="white" stroke-width="1.66667" stroke-linecap="round" stroke-linejoin="round"/>
<path d="M64.1666 9.1665H15.8333C12.1514 9.1665 9.16663 12.1513 9.16663 15.8332V64.1665C9.16663 67.8484 12.1514 70.8332 15.8333 70.8332H64.1666C67.8485 70.8332 70.8333 67.8484 70.8333 64.1665V15.8332C70.8333 12.1513 67.8485 9.1665 64.1666 9.1665Z" stroke="white" stroke-width="1.66667" stroke-linecap="round" stroke-linejoin="round"/>
</svg>
