<svg width="40" height="40" viewBox="0 0 40 40" fill="none" xmlns="http://www.w3.org/2000/svg">
<path d="M11.75 18.8219L8.21671 22.3569C6.96644 23.6072 6.26404 25.3029 6.26404 27.0711C6.26404 28.8392 6.96644 30.5349 8.21671 31.7852C9.46698 33.0355 11.1627 33.7379 12.9309 33.7379C14.699 33.7379 16.3948 33.0355 17.645 31.7852L22.3584 27.0719C22.9775 26.4528 23.4686 25.7179 23.8036 24.909C24.1387 24.1002 24.3111 23.2332 24.3111 22.3577C24.3111 21.4822 24.1387 20.6153 23.8036 19.8064C23.4686 18.9976 22.9775 18.2626 22.3584 17.6436L20.5917 19.4102C20.9787 19.7971 21.2857 20.2565 21.4952 20.7621C21.7047 21.2677 21.8125 21.8096 21.8125 22.3569C21.8125 22.9042 21.7047 23.4461 21.4952 23.9517C21.2857 24.4573 20.9787 24.9166 20.5917 25.3036L15.875 30.0169C15.0892 30.7759 14.0367 31.1959 12.9442 31.1864C11.8517 31.1769 10.8067 30.7387 10.0341 29.9661C9.2616 29.1936 8.82339 28.1485 8.8139 27.0561C8.80441 25.9636 9.22438 24.9111 9.98338 24.1252L13.5167 20.5902L11.75 18.8219Z" fill="white"/>
<path d="M26.4816 19.4104L30.0166 15.877C30.7925 15.0946 31.2268 14.0366 31.2246 12.9347C31.2223 11.8328 30.7836 10.7767 30.0046 9.9974C29.2255 9.21812 28.1695 8.77917 27.0676 8.77661C25.9657 8.77404 24.9076 9.20806 24.125 9.9837L19.41 14.697C19.0229 15.084 18.7159 15.5433 18.5065 16.0489C18.297 16.5545 18.1892 17.0964 18.1892 17.6437C18.1892 18.191 18.297 18.7329 18.5065 19.2385C18.7159 19.7441 19.0229 20.2034 19.41 20.5904L17.6433 22.357C17.0242 21.738 16.5331 21.003 16.1981 20.1942C15.863 19.3853 15.6906 18.5184 15.6906 17.6429C15.6906 16.7674 15.863 15.9004 16.1981 15.0916C16.5331 14.2827 17.0242 13.5478 17.6433 12.9287L22.3566 8.21537C23.6069 6.96509 25.3026 6.2627 27.0708 6.2627C28.839 6.2627 30.5347 6.96509 31.785 8.21537C33.0352 9.46564 33.7376 11.1614 33.7376 12.9295C33.7376 14.6977 33.0352 16.3934 31.785 17.6437L28.25 21.1787L26.4816 19.4104Z" fill="white"/>
</svg>
