<svg width="60" height="60" viewBox="0 0 60 60" fill="none" xmlns="http://www.w3.org/2000/svg">
<path d="M58.125 41.25V37.5H54.1875C53.9437 36.3266 53.4771 35.2108 52.8131 34.2131L55.6069 31.4194L52.9556 28.7681L50.1619 31.5619C49.164 30.8985 48.0483 30.4326 46.875 30.1894V26.25H43.125V30.1894C41.9517 30.4326 40.836 30.8985 39.8381 31.5619L37.0444 28.7681L34.3931 31.4194L37.1869 34.2131C36.5229 35.2108 36.0563 36.3266 35.8125 37.5H31.875V41.25H35.8125C36.0563 42.4444 36.5325 43.5544 37.185 44.5369L34.3912 47.3306L37.0425 49.9819L39.8363 47.1881C40.8345 47.8523 41.9509 48.3189 43.125 48.5625V52.5H46.875V48.5625C48.0483 48.3193 49.164 47.8533 50.1619 47.19L52.9556 49.9838L55.6069 47.3325L52.8131 44.5387C53.4773 43.5405 53.9439 42.4241 54.1875 41.25H58.125ZM45 45C43.5082 45 42.0774 44.4074 41.0225 43.3525C39.9676 42.2976 39.375 40.8668 39.375 39.375C39.375 37.8832 39.9676 36.4524 41.0225 35.3975C42.0774 34.3426 43.5082 33.75 45 33.75C46.4918 33.75 47.9226 34.3426 48.9775 35.3975C50.0324 36.4524 50.625 37.8832 50.625 39.375C50.625 40.8668 50.0324 42.2976 48.9775 43.3525C47.9226 44.4074 46.4918 45 45 45Z" fill="white"/>
<path d="M39.375 11.25C39.375 6.08063 35.1694 1.875 30 1.875C26.6625 1.875 23.5519 3.67125 21.8813 6.5625C21.2841 7.60162 20.8837 8.74193 20.7 9.92625C18.489 8.34895 15.841 7.50079 13.125 7.5C5.8875 7.5 0 13.3875 0 20.625C0.00237409 23.0279 0.664367 25.3841 1.91381 27.4366C3.16326 29.4892 4.9522 31.1593 7.08563 32.265C5.0625 33.9863 3.75 36.5175 3.75 39.375C3.75 44.5444 7.95563 48.75 13.125 48.75C14.5013 48.75 15.8006 48.435 16.9781 47.8988C17.4975 52.5806 21.4312 56.25 26.25 56.25C27.4817 56.2533 28.7018 56.0124 29.8398 55.5413C30.9778 55.0701 32.0111 54.378 32.88 53.505L30.2269 50.8519C29.7059 51.3759 29.0862 51.7914 28.4035 52.0743C27.7209 52.3572 26.9889 52.5019 26.25 52.5C23.1488 52.5 20.625 49.9762 20.625 46.875C20.625 43.7738 23.1488 41.25 26.25 41.25V37.5C24.8719 37.5 23.5744 37.8169 22.3969 38.3512C22.1321 35.9862 20.9778 33.8104 19.1681 32.265C21.3008 31.1588 23.089 29.4884 24.3378 27.4359C25.5866 25.3834 26.248 23.0275 26.25 20.625C26.25 20.3494 26.2238 20.0794 26.2069 19.8075C27.3694 20.325 28.6481 20.625 30 20.625C35.1694 20.625 39.375 16.4194 39.375 11.25ZM25.125 8.4375C25.6205 7.58314 26.3314 6.87375 27.1869 6.38021C28.0424 5.88667 29.0124 5.62626 30 5.625C33.1012 5.625 35.625 8.14875 35.625 11.25C35.625 14.3512 33.1012 16.875 30 16.875C26.8988 16.875 24.375 14.3512 24.375 11.25H24.3188C24.3863 10.17 24.6412 9.2775 25.125 8.4375ZM18.75 39.375C18.75 42.4762 16.2262 45 13.125 45C10.0238 45 7.5 42.4762 7.5 39.375C7.5 36.2738 10.0238 33.75 13.125 33.75C16.2262 33.75 18.75 36.2738 18.75 39.375ZM13.125 30C7.95563 30 3.75 25.7944 3.75 20.625C3.75 15.4556 7.95563 11.25 13.125 11.25C18.2944 11.25 22.5 15.4556 22.5 20.625C22.5 25.7944 18.2944 30 13.125 30Z" fill="white"/>
</svg>
