<svg width="60" height="60" viewBox="0 0 60 60" fill="none" xmlns="http://www.w3.org/2000/svg">
<g clip-path="url(#clip0_293_408)">
<path d="M55 3.3335H36.8333C36.3913 3.3335 35.9673 3.50909 35.6548 3.82165C35.3422 4.13421 35.1666 4.55814 35.1666 5.00016C35.1666 5.44219 35.3422 5.86611 35.6548 6.17867C35.9673 6.49123 36.3913 6.66683 36.8333 6.66683H51.05L36.35 21.6668C36.1967 21.8233 36.0759 22.0085 35.9942 22.2117C35.9125 22.4149 35.8717 22.6322 35.874 22.8512C35.8764 23.0702 35.9218 23.2866 36.0077 23.488C36.0937 23.6894 36.2185 23.872 36.375 24.0252C36.5315 24.1784 36.7166 24.2993 36.9198 24.3809C37.123 24.4626 37.3403 24.5034 37.5593 24.5011C37.7783 24.4988 37.9947 24.4533 38.1961 24.3674C38.3976 24.2814 38.5801 24.1567 38.7333 24.0002L53.3333 9.10016V23.1668C53.3333 23.6089 53.5089 24.0328 53.8214 24.3453C54.134 24.6579 54.5579 24.8335 55 24.8335C55.442 24.8335 55.8659 24.6579 56.1785 24.3453C56.491 24.0328 56.6666 23.6089 56.6666 23.1668V5.00016C56.6666 4.55814 56.491 4.13421 56.1785 3.82165C55.8659 3.50909 55.442 3.3335 55 3.3335Z" fill="white"/>
<path d="M19.2334 17.8834L4.23337 26.5001C3.97903 26.647 3.76801 26.8584 3.62167 27.113C3.47533 27.3677 3.39887 27.6564 3.40004 27.9501V46.2834C3.39887 46.5771 3.47533 46.8659 3.62167 47.1205C3.76801 47.3752 3.97903 47.5866 4.23337 47.7334L19.2334 56.3168C19.4867 56.4631 19.7741 56.5401 20.0667 56.5401C20.3593 56.5401 20.6467 56.4631 20.9 56.3168L35.9 47.7334C36.1544 47.5866 36.3654 47.3752 36.5117 47.1205C36.6581 46.8659 36.7345 46.5771 36.7334 46.2834V27.9501C36.7345 27.6564 36.6581 27.3677 36.5117 27.113C36.3654 26.8584 36.1544 26.647 35.9 26.5001L20.9 17.8834C20.6467 17.7372 20.3593 17.6602 20.0667 17.6602C19.7741 17.6602 19.4867 17.7372 19.2334 17.8834ZM18.3334 51.8001L6.6667 45.1334V30.7334L18.3334 37.4001V51.8001ZM20 35.0001L8.0167 28.1168L20 21.3001L32.0167 28.1668L20 35.0001ZM33.3334 45.1501L21.6667 51.8168V37.4001L33.3334 30.7334V45.1501Z" fill="white"/>
</g>
<defs>
<clipPath id="clip0_293_408">
<rect width="60" height="60" fill="white"/>
</clipPath>
</defs>
</svg>
