<svg width="35" height="35" viewBox="0 0 35 35" fill="none" xmlns="http://www.w3.org/2000/svg">
<g clip-path="url(#clip0_293_695)">
<path d="M22.9687 27.3416C22.9687 27.9217 22.7383 28.4781 22.328 28.8884C21.9178 29.2986 21.3614 29.5291 20.7812 29.5291C20.2011 29.5291 19.6447 29.2986 19.2345 28.8884C18.8242 28.4781 18.5937 27.9217 18.5937 27.3416C18.5937 26.7614 18.8242 26.205 19.2345 25.7948C19.6447 25.3845 20.2011 25.1541 20.7812 25.1541C21.3614 25.1541 21.9178 25.3845 22.328 25.7948C22.7383 26.205 22.9687 26.7614 22.9687 27.3416ZM29.5312 17.5C29.2412 17.5 28.963 17.6152 28.7579 17.8204C28.5527 18.0255 28.4375 18.3037 28.4375 18.5938C28.4375 18.8838 28.5527 19.162 28.7579 19.3671C28.963 19.5723 29.2412 19.6875 29.5312 19.6875C29.8213 19.6875 30.0995 19.5723 30.3046 19.3671C30.5098 19.162 30.625 18.8838 30.625 18.5938C30.625 18.3037 30.5098 18.0255 30.3046 17.8204C30.0995 17.6152 29.8213 17.5 29.5312 17.5ZM34.6763 20.4116L34.5581 20.7025C34.3792 21.129 34.147 21.531 33.8669 21.8991L33.6831 22.1419C33.5824 22.2733 33.4427 22.3697 33.2841 22.4172C33.1254 22.4647 32.9558 22.461 32.7994 22.4066L31.7231 22.0259C31.6898 22.0151 31.6546 22.0111 31.6196 22.0141C31.5847 22.0171 31.5507 22.0271 31.5197 22.0434L31.3797 22.2775L31.1872 23.3494C31.1638 23.4666 31.114 23.577 31.0416 23.6721C30.9692 23.7672 30.8761 23.8446 30.7694 23.8984C30.59 23.9611 30.4032 24 30.2138 24.0144C29.7586 24.0741 29.2978 24.0763 28.8422 24.0209L28.5316 23.9816C28.3661 23.9615 28.2115 23.8889 28.0906 23.7742C27.9697 23.6596 27.8888 23.5091 27.86 23.345L27.6566 22.2119C27.6507 22.1776 27.6376 22.145 27.6179 22.1163C27.5983 22.0876 27.5727 22.0635 27.5428 22.0456C27.4918 22.0165 27.4371 22.0063 27.3787 22.015L26.5825 22.2972L26.6219 22.3431L26.9041 22.7063C27.2964 23.2196 27.6186 23.773 27.8709 24.3666L28.0525 24.7953C28.0891 24.8896 28.1091 24.9895 28.1116 25.0906C28.1116 25.4647 27.8403 25.6747 27.8403 25.6747L26.5431 26.7706C26.4683 26.8337 26.4066 26.911 26.3617 26.998C26.3168 27.0849 26.2895 27.1799 26.2814 27.2775C26.2733 27.375 26.2845 27.4732 26.3144 27.5664C26.3443 27.6596 26.3923 27.746 26.4556 27.8206V27.825L27.8337 29.0084C27.774 29.1593 27.7623 29.325 27.8002 29.4828C27.8382 29.6406 27.924 29.7828 28.0459 29.89L27.8666 30.3144C27.617 30.9075 27.2936 31.4668 26.9041 31.9791L26.6262 32.34C26.5279 32.4681 26.3916 32.5618 26.2368 32.6078C26.082 32.6538 25.9167 32.6496 25.7644 32.5959L24.15 32.0272C23.963 31.9644 23.759 31.9762 23.5805 32.0602C23.402 32.1441 23.2628 32.2937 23.1919 32.4778L22.8528 34.2606C22.8235 34.4204 22.7441 34.5667 22.6261 34.6784C22.5081 34.7901 22.3577 34.8613 22.1966 34.8819L21.7372 34.9388C21.4262 34.9809 21.1126 35.0006 20.7987 34.9978H20.7594C20.4421 34.9954 20.1252 34.9756 19.81 34.9388L19.3594 34.8819C19.199 34.8623 19.049 34.7925 18.9308 34.6825C18.8125 34.5725 18.732 34.4279 18.7009 34.2694L18.3947 32.6025C18.3637 32.4299 18.2728 32.2737 18.1379 32.1617C18.003 32.0496 17.8329 31.9888 17.6575 31.99L17.4059 32.0338L15.8025 32.5938C15.6499 32.6479 15.4841 32.6524 15.3288 32.6064C15.1736 32.5604 15.0369 32.4664 14.9384 32.3378L14.6606 31.9769C14.268 31.4651 13.9417 30.9058 13.6894 30.3122L13.51 29.8856C13.4486 29.735 13.436 29.5688 13.4741 29.4107C13.5121 29.2525 13.5989 29.1103 13.7222 29.0041L15.0194 27.9081C15.2906 27.685 15.2884 27.3787 15.2884 27.3394C15.2889 27.1633 15.2269 26.9928 15.1134 26.8581L13.7353 25.6725C13.7353 25.6725 13.4641 25.4625 13.4641 25.0884C13.4641 24.9849 13.4838 24.8857 13.5231 24.7909L13.7025 24.3666C13.9504 23.773 14.2676 23.2189 14.6541 22.7041L14.9319 22.3431C15.0307 22.2132 15.1686 22.1183 15.3252 22.0723C15.4818 22.0262 15.6491 22.0315 15.8025 22.0872L17.4103 22.6559C17.5973 22.7187 17.8013 22.7069 17.9798 22.6229C18.1583 22.539 18.2975 22.3894 18.3684 22.2053L18.7053 20.4225C18.7348 20.2624 18.8145 20.1159 18.9329 20.0041C19.0513 19.8924 19.2022 19.8214 19.3638 19.8013L19.8231 19.7444C20.4628 19.6608 21.1106 19.6608 21.7503 19.7444L22.2097 19.8013C22.3709 19.8212 22.5216 19.892 22.64 20.0033C22.7584 20.1146 22.8383 20.2606 22.8681 20.4203L23.1744 22.0872C23.24 22.4416 23.5484 22.6997 23.9094 22.6997L24.1478 22.6559L25.4231 22.2053L25.3816 22.1572L25.1891 21.91C24.911 21.5449 24.6782 21.1476 24.4956 20.7266L24.3775 20.4334C24.3165 20.2815 24.3043 20.1143 24.3427 19.9551C24.3812 19.7959 24.4682 19.6527 24.5919 19.5453L25.4734 18.7884C25.5413 18.6987 25.6069 18.5697 25.4997 18.4384L24.5963 17.6663C24.4734 17.5583 24.3871 17.4149 24.3495 17.2557C24.3119 17.0966 24.3247 16.9296 24.3862 16.7781L24.5066 16.4872C24.6844 16.0625 24.9152 15.6619 25.1934 15.295L25.3859 15.0434C25.4847 14.9096 25.6244 14.8116 25.7839 14.7643C25.9433 14.7169 26.1139 14.7228 26.2697 14.7809L27.3503 15.1659C27.4159 15.19 27.4903 15.1812 27.5537 15.1462L27.6872 14.9209L27.8775 13.8447C27.9087 13.6851 27.9885 13.5391 28.106 13.4267C28.2235 13.3142 28.3729 13.241 28.5337 13.2169L28.8466 13.1709C29.3118 13.1111 29.7697 13.109 30.2203 13.1644L30.5331 13.2037C30.6986 13.2251 30.853 13.2985 30.9741 13.4133C31.0952 13.5281 31.1767 13.6784 31.2069 13.8425L31.4081 14.9756C31.4147 15.0099 31.4287 15.0423 31.4491 15.0707C31.4695 15.099 31.4958 15.1225 31.5262 15.1397C31.5745 15.1698 31.6325 15.18 31.6881 15.1681L32.8147 14.77C32.9682 14.7181 33.1339 14.7149 33.2894 14.7607C33.4448 14.8065 33.5823 14.8991 33.6831 15.0259L33.8778 15.2731C34.1636 15.6479 34.3948 16.0468 34.5713 16.4697L34.6894 16.7584C34.7514 16.9109 34.7641 17.0791 34.7257 17.2391C34.6872 17.3992 34.5995 17.5433 34.475 17.6509L33.5912 18.4056C33.5212 18.5019 33.4622 18.6287 33.565 18.7556L34.4662 19.53C34.72 19.7488 34.8031 20.1031 34.6763 20.4116ZM26.4097 24.8675C26.2301 24.4591 26.0048 24.0724 25.7381 23.7147L24.6663 24.0975H24.6597C24.41 24.1851 24.1477 24.2309 23.8831 24.2331C23.7913 24.2331 21.9778 24.1828 21.6584 22.365L21.4528 21.2516C21.0048 21.2053 20.5533 21.2053 20.1053 21.2516L19.9019 22.3606C19.88 22.4831 19.8486 22.6027 19.8078 22.7194C19.2631 24.1566 17.8587 24.2178 17.6378 24.2178C17.3899 24.2178 17.1442 24.1777 16.9006 24.0975L15.8288 23.7147C15.5663 24.0751 15.3413 24.4614 15.1572 24.8675L16.0234 25.5981C16.2772 25.8114 16.4811 26.0777 16.621 26.3782C16.7609 26.6787 16.8332 27.0062 16.833 27.3377C16.8328 27.6692 16.76 27.9966 16.6198 28.2969C16.4796 28.5973 16.2753 28.8633 16.0212 29.0763L15.1572 29.8069C15.338 30.2152 15.5611 30.5995 15.8266 30.9597L16.905 30.5769C17.0189 30.5359 17.1359 30.5044 17.255 30.4828C17.4052 30.4522 17.5561 30.4369 17.7078 30.4369C19.0444 30.4369 19.7794 31.4803 19.9106 32.3203L20.1053 33.4294C20.5533 33.4756 21.0048 33.4756 21.4528 33.4294L21.6562 32.3203C21.678 32.1975 21.7102 32.0767 21.7525 31.9594C22.3059 30.5222 23.7125 30.4631 23.9334 30.4631C24.1843 30.4631 24.43 30.5025 24.6706 30.5812L25.7425 30.9619L25.7381 30.9575C26.0035 30.5973 26.2267 30.213 26.4075 29.8047L25.5391 29.0697C25.2858 28.8568 25.0822 28.5911 24.9426 28.2911C24.803 27.9911 24.7307 27.6643 24.7309 27.3334C24.7311 27.0025 24.8038 26.6757 24.9438 26.376C25.0838 26.0762 25.2877 25.8107 25.5412 25.5981L26.4097 24.8675ZM32.1847 17.6859C32.2859 17.5164 32.412 17.363 32.5588 17.2309L33.0159 16.8416C32.9452 16.7026 32.8671 16.5675 32.7819 16.4369L32.0819 16.6797C31.629 16.792 31.1504 16.7279 30.7431 16.5003C30.5152 16.3699 30.3187 16.191 30.1675 15.9763C30.0163 15.7616 29.9141 15.5163 29.8681 15.2578L29.7697 14.6978C29.6146 14.686 29.4588 14.686 29.3037 14.6978L29.0434 15.7369C28.8822 16.0526 28.636 16.317 28.3325 16.5003C28.1061 16.6307 27.8543 16.7107 27.5942 16.7349C27.3341 16.759 27.0718 16.7268 26.8253 16.6403L26.2894 16.4478L26.1669 16.6491C26.1406 16.6928 26.1173 16.7358 26.0969 16.7781L26.0684 16.835L26.0531 16.8656L26.6197 17.36C27.2978 18.1759 27.1666 19.0116 26.8778 19.5103C26.7791 19.6822 26.6518 19.8361 26.5016 19.9653L26.0466 20.3569C26.1151 20.4925 26.1931 20.6252 26.2806 20.755L26.9828 20.5122C27.4354 20.4033 27.9123 20.4681 28.3194 20.6938C28.5476 20.8265 28.7441 21.0074 28.8952 21.2239C29.0463 21.4404 29.1484 21.6872 29.1944 21.9472L29.2928 22.4984C29.4459 22.5086 29.602 22.5086 29.7609 22.4984L30.0278 21.4594C30.1855 21.1419 30.4316 20.8767 30.7366 20.6959C30.9624 20.5642 31.2143 20.4834 31.4747 20.4592C31.735 20.435 31.9975 20.468 32.2437 20.5559L32.7753 20.7441C32.8614 20.6114 32.9403 20.4741 33.0116 20.3328L32.445 19.8384H32.4406C31.7669 19.0247 31.8959 18.1847 32.1847 17.6859ZM8.75 30.625H10.9375V32.8125H8.75C7.00952 32.8125 5.34032 32.1211 4.10961 30.8904C2.8789 29.6597 2.1875 27.9905 2.1875 26.25L2.1875 8.75C2.1875 7.00952 2.8789 5.34032 4.10961 4.10961C5.34032 2.8789 7.00952 2.1875 8.75 2.1875L26.25 2.1875C27.9905 2.1875 29.6597 2.8789 30.8904 4.10961C32.1211 5.34032 32.8125 7.00952 32.8125 8.75V10.9375L4.375 10.9375L4.375 26.25C4.375 27.4103 4.83594 28.5231 5.65641 29.3436C6.47688 30.1641 7.58968 30.625 8.75 30.625ZM4.375 8.75L30.625 8.75C30.625 7.58968 30.1641 6.47688 29.3436 5.65641C28.5231 4.83594 27.4103 4.375 26.25 4.375L8.75 4.375C7.58968 4.375 6.47688 4.83594 5.65641 5.65641C4.83594 6.47688 4.375 7.58968 4.375 8.75Z" fill="white" fill-opacity="0.9"/>
</g>
<defs>
<clipPath id="clip0_293_695">
<rect width="35" height="35" fill="white"/>
</clipPath>
</defs>
</svg>
