<svg width="24" height="24" viewBox="0 0 24 24" fill="none" xmlns="http://www.w3.org/2000/svg">
<path d="M9.10123 19.0145C8.97607 19.5103 8.96786 20.0284 9.07723 20.528C5.23573 19.985 3.00073 17.2715 3.00073 14.6255V13.8755C3.00073 13.2788 3.23779 12.7065 3.65974 12.2845C4.0817 11.8625 4.654 11.6255 5.25073 11.6255H14.2852C14.3077 12.158 14.4757 12.677 14.7772 13.1255H5.25073C5.05182 13.1255 4.86105 13.2045 4.7204 13.3452C4.57975 13.4858 4.50073 13.6766 4.50073 13.8755V14.6255C4.50073 16.505 6.13273 18.5255 9.10123 19.0145ZM10.5007 1.87549C11.5948 1.87549 12.644 2.31009 13.4175 3.08367C14.1911 3.85726 14.6257 4.90647 14.6257 6.00049C14.6257 7.09451 14.1911 8.14372 13.4175 8.9173C12.644 9.69089 11.5948 10.1255 10.5007 10.1255C9.40671 10.1255 8.3575 9.69089 7.58392 8.9173C6.81033 8.14372 6.37573 7.09451 6.37573 6.00049C6.37573 4.90647 6.81033 3.85726 7.58392 3.08367C8.3575 2.31009 9.40671 1.87549 10.5007 1.87549ZM10.5007 3.37549C9.80454 3.37549 9.13686 3.65205 8.64458 4.14433C8.15229 4.63662 7.87573 5.3043 7.87573 6.00049C7.87573 6.69668 8.15229 7.36436 8.64458 7.85664C9.13686 8.34893 9.80454 8.62549 10.5007 8.62549C11.1969 8.62549 11.8646 8.34893 12.3569 7.85664C12.8492 7.36436 13.1257 6.69668 13.1257 6.00049C13.1257 5.3043 12.8492 4.63662 12.3569 4.14433C11.8646 3.65205 11.1969 3.37549 10.5007 3.37549ZM15.8767 10.997L16.3012 9.87199C16.6882 8.85199 17.8942 8.34799 18.9112 8.78149L19.4932 9.03049C20.2027 9.33349 20.7907 9.88249 20.9137 10.6205C21.5992 14.708 18.0517 20.522 13.9687 22.0055C13.2307 22.2725 12.4327 22.0655 11.8012 21.6365L11.2822 21.284C11.0692 21.1405 10.8897 20.9524 10.7564 20.7328C10.623 20.5132 10.5389 20.2673 10.5098 20.0121C10.4807 19.7568 10.5074 19.4983 10.5879 19.2543C10.6684 19.0104 10.8009 18.7868 10.9762 18.599L11.7937 17.6885C11.9858 17.477 12.2307 17.3206 12.5034 17.2355C12.776 17.1503 13.0665 17.1394 13.3447 17.204L15.1822 17.639C16.6392 16.729 17.4202 15.449 17.5252 13.799L16.2082 12.509C16.0115 12.3168 15.8753 12.0712 15.8164 11.8025C15.7575 11.5339 15.7785 11.2539 15.8767 10.997Z" fill="white"/>
</svg>
