<svg width="212" height="60" viewBox="0 0 212 60" fill="none" xmlns="http://www.w3.org/2000/svg">
<path d="M9.984 32C9.38667 32 8.896 31.8187 8.512 31.456C8.128 31.072 7.936 30.6027 7.936 30.048V11.488H12.096V30.048C12.096 30.6027 11.8933 31.072 11.488 31.456C11.104 31.8187 10.6027 32 9.984 32ZM2.912 13.28C2.35733 13.28 1.888 13.1093 1.504 12.768C1.14133 12.4267 0.96 11.9787 0.96 11.424C0.96 10.8693 1.14133 10.432 1.504 10.112C1.888 9.77067 2.35733 9.6 2.912 9.6H17.12C17.6747 9.6 18.1333 9.77067 18.496 10.112C18.88 10.4533 19.072 10.9013 19.072 11.456C19.072 12.0107 18.88 12.4587 18.496 12.8C18.1333 13.12 17.6747 13.28 17.12 13.28H2.912ZM29.9513 32.32C28.3086 32.32 26.8579 31.968 25.5993 31.264C24.3406 30.56 23.3593 29.5787 22.6553 28.32C21.9513 27.0613 21.5993 25.5893 21.5993 23.904C21.5993 22.0907 21.9513 20.544 22.6553 19.264C23.3806 17.984 24.3086 17.0027 25.4393 16.32C26.5913 15.616 27.8073 15.264 29.0873 15.264C30.0259 15.264 30.9326 15.4347 31.8073 15.776C32.7033 16.096 33.4926 16.5867 34.1753 17.248C34.8793 17.888 35.4339 18.6773 35.8393 19.616C36.2659 20.5547 36.5006 21.6427 36.5433 22.88C36.5219 23.136 36.4153 23.36 36.2233 23.552C36.0313 23.7227 35.8073 23.808 35.5513 23.808H22.7193L22.3353 22.08H34.9433L34.5273 22.464V21.824C34.4419 20.8213 34.1219 19.968 33.5673 19.264C33.0126 18.56 32.3406 18.0267 31.5513 17.664C30.7619 17.3013 29.9406 17.12 29.0873 17.12C28.4473 17.12 27.7859 17.248 27.1033 17.504C26.4419 17.76 25.8339 18.1653 25.2793 18.72C24.7459 19.2533 24.3086 19.9467 23.9673 20.8C23.6259 21.632 23.4553 22.624 23.4553 23.776C23.4553 25.0347 23.7113 26.176 24.2233 27.2C24.7353 28.224 25.4713 29.0347 26.4313 29.632C27.4126 30.2293 28.5753 30.528 29.9193 30.528C30.6659 30.528 31.3379 30.4213 31.9353 30.208C32.5326 29.9947 33.0553 29.7173 33.5033 29.376C33.9513 29.0133 34.3246 28.64 34.6233 28.256C34.8579 28.064 35.0926 27.968 35.3273 27.968C35.5406 27.968 35.7219 28.0533 35.8713 28.224C36.0419 28.3947 36.1273 28.5867 36.1273 28.8C36.1273 29.056 36.0206 29.28 35.8073 29.472C35.1673 30.24 34.3353 30.912 33.3113 31.488C32.2873 32.0427 31.1673 32.32 29.9513 32.32ZM47.853 15.264C48.877 15.264 49.8157 15.3813 50.669 15.616C51.5223 15.8293 52.205 16.128 52.717 16.512C53.2503 16.896 53.517 17.312 53.517 17.76C53.517 17.9733 53.4423 18.1867 53.293 18.4C53.1437 18.592 52.941 18.688 52.685 18.688C52.429 18.688 52.2157 18.624 52.045 18.496C51.8957 18.368 51.7357 18.2187 51.565 18.048C51.4157 17.8773 51.1917 17.7173 50.893 17.568C50.6157 17.44 50.221 17.3227 49.709 17.216C49.197 17.1093 48.6103 17.056 47.949 17.056C46.7543 17.056 45.677 17.3547 44.717 17.952C43.757 18.5493 42.9997 19.36 42.445 20.384C41.8903 21.3867 41.613 22.5173 41.613 23.776C41.613 25.056 41.8797 26.208 42.413 27.232C42.9463 28.256 43.6823 29.0667 44.621 29.664C45.5597 30.24 46.6583 30.528 47.917 30.528C48.7703 30.528 49.4317 30.4533 49.901 30.304C50.3703 30.1547 50.7757 29.984 51.117 29.792C51.5223 29.5573 51.8103 29.3333 51.981 29.12C52.173 28.8853 52.4183 28.768 52.717 28.768C52.9943 28.768 53.197 28.8533 53.325 29.024C53.4743 29.1733 53.549 29.376 53.549 29.632C53.549 29.9733 53.293 30.3573 52.781 30.784C52.2903 31.1893 51.6077 31.552 50.733 31.872C49.8583 32.1707 48.8557 32.32 47.725 32.32C46.125 32.32 44.717 31.9467 43.501 31.2C42.3063 30.4533 41.3677 29.44 40.685 28.16C40.0237 26.8587 39.693 25.3973 39.693 23.776C39.693 22.2187 40.0343 20.8 40.717 19.52C41.3997 18.24 42.349 17.216 43.565 16.448C44.8023 15.6587 46.2317 15.264 47.853 15.264ZM64.6715 15.52C66.0155 15.52 67.1035 15.808 67.9355 16.384C68.7675 16.96 69.3755 17.7387 69.7595 18.72C70.1648 19.7013 70.3675 20.7893 70.3675 21.984V31.04C70.3675 31.296 70.2715 31.52 70.0795 31.712C69.8875 31.904 69.6635 32 69.4075 32C69.1088 32 68.8742 31.904 68.7035 31.712C68.5328 31.52 68.4475 31.296 68.4475 31.04V21.984C68.4475 21.1093 68.3088 20.32 68.0315 19.616C67.7755 18.912 67.3488 18.3573 66.7515 17.952C66.1542 17.5253 65.3542 17.312 64.3515 17.312C63.4555 17.312 62.6022 17.5253 61.7915 17.952C61.0022 18.3573 60.3622 18.912 59.8715 19.616C59.3808 20.32 59.1355 21.1093 59.1355 21.984V31.04C59.1355 31.296 59.0395 31.52 58.8475 31.712C58.6555 31.904 58.4315 32 58.1755 32C57.8768 32 57.6422 31.904 57.4715 31.712C57.3008 31.52 57.2155 31.296 57.2155 31.04V9.28C57.2155 9.024 57.3008 8.8 57.4715 8.608C57.6635 8.416 57.8982 8.32 58.1755 8.32C58.4528 8.32 58.6768 8.416 58.8475 8.608C59.0395 8.8 59.1355 9.024 59.1355 9.28V19.648L58.3995 20.768C58.4422 20.1067 58.6448 19.4667 59.0075 18.848C59.3915 18.208 59.8822 17.6427 60.4795 17.152C61.0768 16.64 61.7382 16.2453 62.4635 15.968C63.1888 15.6693 63.9248 15.52 64.6715 15.52ZM75.659 22.944C75.403 22.944 75.179 22.848 74.987 22.656C74.8163 22.464 74.731 22.2293 74.731 21.952C74.731 21.696 74.8163 21.4827 74.987 21.312C75.179 21.12 75.403 21.024 75.659 21.024H82.571C82.827 21.024 83.051 21.12 83.243 21.312C83.435 21.504 83.531 21.7387 83.531 22.016C83.531 22.272 83.435 22.496 83.243 22.688C83.051 22.8587 82.827 22.944 82.571 22.944H75.659ZM123.598 14.88C124.003 14.88 124.377 14.9867 124.718 15.2C125.059 15.392 125.315 15.6907 125.486 16.096L130.19 26.848L129.486 27.168L134.286 16.128C134.649 15.2747 135.214 14.8693 135.982 14.912C136.515 14.912 136.942 15.0827 137.262 15.424C137.603 15.744 137.774 16.1493 137.774 16.64C137.774 16.7893 137.742 16.9493 137.678 17.12C137.635 17.2907 137.582 17.4507 137.518 17.6L131.534 30.784C131.193 31.552 130.649 31.9573 129.902 32C129.497 32.064 129.102 31.9893 128.718 31.776C128.355 31.5627 128.078 31.232 127.886 30.784L121.934 17.6C121.891 17.4933 121.838 17.3547 121.774 17.184C121.731 17.0133 121.71 16.8107 121.71 16.576C121.71 16.192 121.881 15.8187 122.222 15.456C122.563 15.072 123.022 14.88 123.598 14.88ZM143.161 14.88C143.566 14.88 143.939 14.9867 144.281 15.2C144.622 15.392 144.878 15.6907 145.049 16.096L149.753 26.848L149.049 27.168L153.849 16.128C154.211 15.2747 154.777 14.8693 155.545 14.912C156.078 14.912 156.505 15.0827 156.825 15.424C157.166 15.744 157.337 16.1493 157.337 16.64C157.337 16.7893 157.305 16.9493 157.241 17.12C157.198 17.2907 157.145 17.4507 157.081 17.6L151.097 30.784C150.755 31.552 150.211 31.9573 149.465 32C149.059 32.064 148.665 31.9893 148.281 31.776C147.918 31.5627 147.641 31.232 147.449 30.784L141.497 17.6C141.454 17.4933 141.401 17.3547 141.337 17.184C141.294 17.0133 141.273 16.8107 141.273 16.576C141.273 16.192 141.443 15.8187 141.785 15.456C142.126 15.072 142.585 14.88 143.161 14.88ZM173.065 14.88C173.62 14.88 174.079 15.072 174.441 15.456C174.804 15.8187 174.985 16.2773 174.985 16.832V30.432C174.985 32.3947 174.612 33.952 173.865 35.104C173.14 36.2773 172.159 37.12 170.921 37.632C169.684 38.144 168.297 38.4 166.761 38.4C166.079 38.4 165.353 38.3467 164.585 38.24C163.817 38.1333 163.188 37.9733 162.697 37.76C162.057 37.4827 161.609 37.1307 161.353 36.704C161.119 36.2987 161.076 35.8613 161.225 35.392C161.417 34.7733 161.727 34.3467 162.153 34.112C162.58 33.8987 163.028 33.8773 163.497 34.048C163.839 34.1547 164.287 34.3147 164.841 34.528C165.396 34.7627 166.036 34.88 166.761 34.88C167.743 34.88 168.553 34.7413 169.193 34.464C169.855 34.208 170.345 33.76 170.665 33.12C171.007 32.5013 171.177 31.648 171.177 30.56V28.416L171.849 29.184C171.487 29.888 171.028 30.4747 170.473 30.944C169.94 31.392 169.3 31.7333 168.553 31.968C167.807 32.2027 166.953 32.32 165.993 32.32C164.863 32.32 163.871 32.064 163.017 31.552C162.185 31.0187 161.535 30.2933 161.065 29.376C160.596 28.4373 160.361 27.3707 160.361 26.176V16.832C160.361 16.2773 160.543 15.8187 160.905 15.456C161.268 15.072 161.727 14.88 162.281 14.88C162.836 14.88 163.295 15.072 163.657 15.456C164.02 15.8187 164.201 16.2773 164.201 16.832V25.024C164.201 26.4107 164.5 27.392 165.097 27.968C165.716 28.5227 166.569 28.8 167.657 28.8C168.404 28.8 169.033 28.6613 169.545 28.384C170.057 28.0853 170.452 27.6587 170.729 27.104C171.007 26.528 171.145 25.8347 171.145 25.024V16.832C171.145 16.2773 171.327 15.8187 171.689 15.456C172.052 15.072 172.511 14.88 173.065 14.88Z" fill="white"/>
<path d="M86.4318 29.344C86.2184 29.0453 86.1224 28.6613 86.1438 28.192C86.1651 27.7227 86.4424 27.3173 86.9758 26.976C87.3171 26.7627 87.6798 26.6773 88.0638 26.72C88.4478 26.7413 88.8211 26.9333 89.1838 27.296C89.8024 27.9147 90.4531 28.3947 91.1358 28.736C91.8184 29.0773 92.6718 29.248 93.6958 29.248C94.0158 29.2267 94.3678 29.184 94.7517 29.12C95.1358 29.0347 95.4664 28.864 95.7438 28.608C96.0424 28.3307 96.1918 27.9147 96.1918 27.36C96.1918 26.8907 96.0318 26.5173 95.7118 26.24C95.3918 25.9627 94.9651 25.728 94.4318 25.536C93.9198 25.344 93.3438 25.1627 92.7038 24.992C92.0424 24.8 91.3598 24.5867 90.6558 24.352C89.9731 24.1173 89.3438 23.8187 88.7678 23.456C88.1918 23.072 87.7224 22.5707 87.3598 21.952C86.9971 21.3333 86.8158 20.5547 86.8158 19.616C86.8158 18.5493 87.1144 17.6427 87.7118 16.896C88.3091 16.1493 89.0771 15.5733 90.0158 15.168C90.9758 14.7627 91.9784 14.56 93.0238 14.56C93.6851 14.56 94.3784 14.6453 95.1038 14.816C95.8291 14.9653 96.5224 15.2213 97.1838 15.584C97.8451 15.9253 98.3998 16.384 98.8478 16.96C99.0824 17.28 99.2211 17.664 99.2638 18.112C99.3064 18.56 99.1038 18.9653 98.6558 19.328C98.3358 19.584 97.9624 19.7013 97.5358 19.68C97.1091 19.6373 96.7571 19.488 96.4798 19.232C96.1171 18.7627 95.6264 18.3893 95.0078 18.112C94.4104 17.8347 93.7171 17.696 92.9278 17.696C92.6078 17.696 92.2558 17.7387 91.8718 17.824C91.5091 17.888 91.1891 18.048 90.9118 18.304C90.6344 18.5387 90.4958 18.9227 90.4958 19.456C90.4958 19.9467 90.6558 20.3413 90.9758 20.64C91.2958 20.9173 91.7224 21.152 92.2558 21.344C92.8104 21.5147 93.3971 21.6853 94.0158 21.856C94.6558 22.0267 95.3064 22.2293 95.9678 22.464C96.6291 22.6987 97.2371 23.008 97.7918 23.392C98.3464 23.776 98.7944 24.2773 99.1358 24.896C99.4771 25.4933 99.6478 26.2613 99.6478 27.2C99.6478 28.288 99.3278 29.216 98.6878 29.984C98.0478 30.752 97.2478 31.3387 96.2878 31.744C95.3278 32.128 94.3464 32.32 93.3438 32.32C92.0851 32.32 90.8264 32.1067 89.5677 31.68C88.3091 31.232 87.2638 30.4533 86.4318 29.344ZM117.127 14.56C117.682 14.56 118.141 14.7413 118.503 15.104C118.866 15.4667 119.047 15.936 119.047 16.512V30.048C119.047 30.6027 118.866 31.072 118.503 31.456C118.141 31.8187 117.682 32 117.127 32C116.573 32 116.114 31.8187 115.751 31.456C115.389 31.072 115.207 30.6027 115.207 30.048V28.48L115.911 28.768C115.911 29.0453 115.762 29.3867 115.463 29.792C115.165 30.176 114.759 30.56 114.247 30.944C113.735 31.328 113.127 31.6587 112.423 31.936C111.741 32.192 110.994 32.32 110.183 32.32C108.711 32.32 107.378 31.9467 106.183 31.2C104.989 30.432 104.039 29.3867 103.335 28.064C102.653 26.72 102.311 25.184 102.311 23.456C102.311 21.7067 102.653 20.1707 103.335 18.848C104.039 17.504 104.978 16.4587 106.151 15.712C107.325 14.944 108.626 14.56 110.055 14.56C110.973 14.56 111.815 14.6987 112.583 14.976C113.351 15.2533 114.013 15.6053 114.567 16.032C115.143 16.4587 115.581 16.896 115.879 17.344C116.199 17.7707 116.359 18.1333 116.359 18.432L115.207 18.848V16.512C115.207 15.9573 115.389 15.4987 115.751 15.136C116.114 14.752 116.573 14.56 117.127 14.56ZM110.663 28.8C111.602 28.8 112.423 28.5653 113.127 28.096C113.831 27.6267 114.375 26.9867 114.759 26.176C115.165 25.3653 115.367 24.4587 115.367 23.456C115.367 22.432 115.165 21.5147 114.759 20.704C114.375 19.8933 113.831 19.2533 113.127 18.784C112.423 18.3147 111.602 18.08 110.663 18.08C109.746 18.08 108.935 18.3147 108.231 18.784C107.527 19.2533 106.973 19.8933 106.567 20.704C106.183 21.5147 105.991 22.432 105.991 23.456C105.991 24.4587 106.183 25.3653 106.567 26.176C106.973 26.9867 107.527 27.6267 108.231 28.096C108.935 28.5653 109.746 28.8 110.663 28.8Z" fill="#828282"/>
<path d="M3.962 56.14C3.234 56.1493 2.60867 56.028 2.086 55.776C1.56333 55.524 1.05933 55.1553 0.574 54.67C0.555333 54.6513 0.536667 54.628 0.518 54.6C0.499333 54.5627 0.49 54.516 0.49 54.46C0.49 54.3853 0.522667 54.3153 0.588 54.25C0.653333 54.1753 0.723333 54.138 0.798 54.138C0.882 54.138 0.961333 54.18 1.036 54.264C1.40933 54.6933 1.84333 55.02 2.338 55.244C2.842 55.468 3.36467 55.58 3.906 55.58C4.382 55.58 4.80667 55.5053 5.18 55.356C5.55333 55.1973 5.84733 54.978 6.062 54.698C6.27667 54.4087 6.384 54.0727 6.384 53.69C6.37467 53.214 6.244 52.8313 5.992 52.542C5.74 52.2527 5.41333 52.0147 5.012 51.828C4.62 51.6413 4.20467 51.4687 3.766 51.31C3.42067 51.1793 3.08 51.044 2.744 50.904C2.408 50.764 2.10467 50.596 1.834 50.4C1.56333 50.1947 1.34867 49.9427 1.19 49.644C1.03133 49.336 0.952 48.958 0.952 48.51C0.952 48.0527 1.07333 47.642 1.316 47.278C1.568 46.9047 1.92267 46.6107 2.38 46.396C2.84667 46.172 3.39733 46.06 4.032 46.06C4.564 46.06 5.082 46.158 5.586 46.354C6.09 46.5407 6.48667 46.8253 6.776 47.208C6.86933 47.3387 6.916 47.4367 6.916 47.502C6.916 47.5673 6.87867 47.6327 6.804 47.698C6.73867 47.7633 6.664 47.796 6.58 47.796C6.50533 47.796 6.44467 47.768 6.398 47.712C6.23 47.488 6.02467 47.2967 5.782 47.138C5.54867 46.97 5.28267 46.844 4.984 46.76C4.68533 46.6667 4.368 46.62 4.032 46.62C3.57467 46.62 3.15933 46.6947 2.786 46.844C2.41267 46.9933 2.114 47.208 1.89 47.488C1.666 47.7587 1.554 48.0947 1.554 48.496C1.554 48.9253 1.67533 49.28 1.918 49.56C2.17 49.8307 2.48733 50.0593 2.87 50.246C3.25267 50.4233 3.64467 50.5867 4.046 50.736C4.40067 50.8573 4.75067 50.9927 5.096 51.142C5.45067 51.282 5.768 51.4593 6.048 51.674C6.33733 51.8887 6.566 52.1593 6.734 52.486C6.902 52.8127 6.986 53.2233 6.986 53.718C6.986 54.1473 6.86 54.544 6.608 54.908C6.36533 55.272 6.02 55.566 5.572 55.79C5.124 56.014 4.58733 56.1307 3.962 56.14ZM16.1673 52.472C16.1673 53.1627 16.0179 53.788 15.7193 54.348C15.4206 54.8987 15.0099 55.3373 14.4873 55.664C13.9739 55.9813 13.3859 56.14 12.7233 56.14C12.0699 56.14 11.4819 55.9813 10.9593 55.664C10.4366 55.3373 10.0213 54.8987 9.71327 54.348C9.4146 53.788 9.26527 53.1627 9.26527 52.472C9.26527 51.772 9.4146 51.1467 9.71327 50.596C10.0213 50.036 10.4366 49.5973 10.9593 49.28C11.4819 48.9533 12.0699 48.79 12.7233 48.79C13.3859 48.79 13.9739 48.9533 14.4873 49.28C15.0099 49.5973 15.4206 50.036 15.7193 50.596C16.0179 51.1467 16.1673 51.772 16.1673 52.472ZM15.6073 52.472C15.6073 51.8653 15.4813 51.3287 15.2293 50.862C14.9866 50.386 14.6459 50.0127 14.2073 49.742C13.7779 49.462 13.2833 49.322 12.7233 49.322C12.1726 49.322 11.6779 49.462 11.2393 49.742C10.8006 50.0127 10.4553 50.386 10.2033 50.862C9.95127 51.3287 9.82527 51.8653 9.82527 52.472C9.82527 53.0693 9.95127 53.606 10.2033 54.082C10.4553 54.5487 10.8006 54.922 11.2393 55.202C11.6779 55.4727 12.1726 55.608 12.7233 55.608C13.2833 55.608 13.7779 55.4727 14.2073 55.202C14.6459 54.922 14.9866 54.5487 15.2293 54.082C15.4813 53.606 15.6073 53.0693 15.6073 52.472ZM21.0768 45.71C21.1888 45.71 21.3194 45.7193 21.4688 45.738C21.6274 45.7567 21.7628 45.794 21.8748 45.85C21.9961 45.906 22.0568 45.99 22.0568 46.102C22.0568 46.1673 22.0288 46.2327 21.9728 46.298C21.9261 46.354 21.8654 46.382 21.7908 46.382C21.6974 46.382 21.5854 46.354 21.4548 46.298C21.3241 46.242 21.1794 46.214 21.0208 46.214C20.8341 46.214 20.6661 46.256 20.5168 46.34C20.3768 46.424 20.2648 46.5547 20.1808 46.732C20.1061 46.9 20.0688 47.1193 20.0688 47.39V55.72C20.0688 55.7947 20.0408 55.86 19.9848 55.916C19.9288 55.972 19.8634 56 19.7888 56C19.7048 56 19.6348 55.972 19.5788 55.916C19.5321 55.86 19.5088 55.7947 19.5088 55.72V47.39C19.5088 46.8113 19.6628 46.3867 19.9708 46.116C20.2788 45.8453 20.6474 45.71 21.0768 45.71ZM21.7208 49.098C21.7954 49.098 21.8561 49.126 21.9028 49.182C21.9588 49.2287 21.9868 49.2893 21.9868 49.364C21.9868 49.4387 21.9588 49.504 21.9028 49.56C21.8561 49.6067 21.7954 49.63 21.7208 49.63H18.3888C18.3234 49.63 18.2628 49.602 18.2068 49.546C18.1508 49.49 18.1228 49.4293 18.1228 49.364C18.1228 49.28 18.1508 49.2147 18.2068 49.168C18.2628 49.1213 18.3234 49.098 18.3888 49.098H21.7208ZM23.8056 48.958H27.0536C27.1282 48.958 27.1889 48.986 27.2356 49.042C27.2916 49.098 27.3196 49.1587 27.3196 49.224C27.3196 49.2987 27.2916 49.364 27.2356 49.42C27.1889 49.4667 27.1282 49.49 27.0536 49.49H23.8056C23.7402 49.49 23.6796 49.462 23.6236 49.406C23.5676 49.35 23.5396 49.2893 23.5396 49.224C23.5396 49.1493 23.5676 49.0887 23.6236 49.042C23.6796 48.986 23.7402 48.958 23.8056 48.958ZM25.2336 46.9C25.3176 46.9 25.3829 46.928 25.4296 46.984C25.4856 47.04 25.5136 47.1053 25.5136 47.18V54.474C25.5136 54.782 25.5509 55.0107 25.6256 55.16C25.7096 55.3 25.8122 55.3933 25.9336 55.44C26.0549 55.4773 26.1716 55.496 26.2836 55.496C26.3489 55.496 26.4049 55.4867 26.4516 55.468C26.4982 55.4493 26.5542 55.44 26.6196 55.44C26.6849 55.44 26.7409 55.468 26.7876 55.524C26.8342 55.5707 26.8576 55.6267 26.8576 55.692C26.8576 55.776 26.8016 55.8507 26.6896 55.916C26.5869 55.972 26.4562 56 26.2976 56C26.2416 56 26.1389 56 25.9896 56C25.8496 55.9907 25.6956 55.9487 25.5276 55.874C25.3689 55.79 25.2336 55.6453 25.1216 55.44C25.0096 55.2253 24.9536 54.9127 24.9536 54.502V47.18C24.9536 47.1053 24.9816 47.04 25.0376 46.984C25.0936 46.928 25.1589 46.9 25.2336 46.9ZM38.7358 48.762C38.8105 48.762 38.8758 48.7853 38.9318 48.832C38.9971 48.8693 39.0298 48.9347 39.0298 49.028C39.0298 49.0373 39.0251 49.0607 39.0158 49.098C39.0158 49.126 39.0111 49.1493 39.0018 49.168L36.8318 55.818C36.8038 55.874 36.7665 55.9207 36.7198 55.958C36.6731 55.986 36.6218 56 36.5658 56C36.4538 56 36.3651 55.9393 36.2998 55.818L34.1438 50.96L34.3538 51.03L32.4498 55.818C32.4031 55.9393 32.3145 56 32.1838 56C32.1278 56 32.0718 55.986 32.0158 55.958C31.9691 55.9207 31.9365 55.874 31.9178 55.818L29.6778 49.168C29.6591 49.112 29.6498 49.0653 29.6498 49.028C29.6498 48.944 29.6778 48.8787 29.7338 48.832C29.7898 48.7853 29.8598 48.762 29.9438 48.762C29.9998 48.762 30.0511 48.7807 30.0978 48.818C30.1445 48.846 30.1771 48.888 30.1958 48.944L32.2818 55.37H32.0438L34.0318 50.442C34.0785 50.3207 34.1671 50.26 34.2978 50.26C34.3538 50.26 34.4051 50.2787 34.4518 50.316C34.5078 50.344 34.5451 50.386 34.5638 50.442L36.7058 55.384H36.4258L38.4838 48.944C38.5305 48.8227 38.6145 48.762 38.7358 48.762ZM47.4018 49.014C47.4858 49.014 47.5511 49.042 47.5978 49.098C47.6538 49.154 47.6818 49.2193 47.6818 49.294V55.72C47.6818 55.7947 47.6538 55.86 47.5978 55.916C47.5418 55.972 47.4765 56 47.4018 56C47.3178 56 47.2478 55.972 47.1918 55.916C47.1451 55.86 47.1218 55.7947 47.1218 55.72V53.732L47.3458 53.55C47.3458 53.8487 47.2711 54.152 47.1218 54.46C46.9725 54.768 46.7671 55.048 46.5058 55.3C46.2445 55.552 45.9365 55.7573 45.5818 55.916C45.2271 56.0653 44.8445 56.14 44.4338 56.14C43.8085 56.14 43.2485 55.9767 42.7538 55.65C42.2685 55.3233 41.8858 54.88 41.6058 54.32C41.3258 53.76 41.1858 53.13 41.1858 52.43C41.1858 51.7207 41.3258 51.0953 41.6058 50.554C41.8951 50.0033 42.2825 49.574 42.7678 49.266C43.2625 48.9487 43.8178 48.79 44.4338 48.79C44.8351 48.79 45.2131 48.8647 45.5678 49.014C45.9225 49.154 46.2305 49.3547 46.4918 49.616C46.7625 49.8773 46.9725 50.1853 47.1218 50.54C47.2711 50.8853 47.3458 51.2633 47.3458 51.674L47.1218 51.324V49.294C47.1218 49.2193 47.1451 49.154 47.1918 49.098C47.2478 49.042 47.3178 49.014 47.4018 49.014ZM44.4618 55.608C44.9845 55.608 45.4511 55.4727 45.8618 55.202C46.2725 54.922 46.5945 54.544 46.8278 54.068C47.0611 53.5827 47.1778 53.0367 47.1778 52.43C47.1778 51.8513 47.0611 51.3287 46.8278 50.862C46.5945 50.386 46.2725 50.0127 45.8618 49.742C45.4511 49.462 44.9845 49.322 44.4618 49.322C43.9485 49.322 43.4865 49.4573 43.0758 49.728C42.6651 49.9893 42.3385 50.3533 42.0958 50.82C41.8625 51.2867 41.7458 51.8233 41.7458 52.43C41.7458 53.0367 41.8625 53.5827 42.0958 54.068C42.3291 54.544 42.6511 54.922 43.0618 55.202C43.4725 55.4727 43.9391 55.608 44.4618 55.608ZM51.1207 56C51.0367 56 50.9667 55.972 50.9107 55.916C50.864 55.86 50.8407 55.7947 50.8407 55.72V49.294C50.8407 49.2193 50.8687 49.154 50.9247 49.098C50.9807 49.042 51.046 49.014 51.1207 49.014C51.2047 49.014 51.27 49.042 51.3167 49.098C51.3727 49.154 51.4007 49.2193 51.4007 49.294V51.66L51.1627 52.024C51.1627 51.66 51.2233 51.2913 51.3447 50.918C51.4753 50.5447 51.662 50.1993 51.9047 49.882C52.1473 49.5553 52.4413 49.294 52.7867 49.098C53.1413 48.8927 53.5473 48.79 54.0047 48.79C54.1353 48.79 54.2753 48.8087 54.4247 48.846C54.574 48.8833 54.6487 48.972 54.6487 49.112C54.6487 49.196 54.6253 49.266 54.5787 49.322C54.532 49.378 54.4713 49.406 54.3967 49.406C54.3407 49.406 54.2707 49.3873 54.1867 49.35C54.112 49.3033 54 49.28 53.8507 49.28C53.552 49.28 53.258 49.3687 52.9687 49.546C52.6793 49.7233 52.4133 49.9613 52.1707 50.26C51.9373 50.5493 51.7507 50.8667 51.6107 51.212C51.4707 51.5573 51.4007 51.8933 51.4007 52.22V55.72C51.4007 55.7947 51.3727 55.86 51.3167 55.916C51.2607 55.972 51.1953 56 51.1207 56ZM59.6705 56.14C58.9705 56.14 58.3499 55.9907 57.8085 55.692C57.2765 55.3933 56.8565 54.9733 56.5485 54.432C56.2405 53.8813 56.0865 53.2373 56.0865 52.5C56.0865 51.716 56.2359 51.0487 56.5345 50.498C56.8425 49.9473 57.2345 49.5273 57.7105 49.238C58.1959 48.9393 58.7092 48.79 59.2505 48.79C59.6425 48.79 60.0252 48.8553 60.3985 48.986C60.7719 49.1073 61.1032 49.3033 61.3925 49.574C61.6912 49.8353 61.9292 50.1667 62.1065 50.568C62.2932 50.96 62.3959 51.4313 62.4145 51.982C62.4145 52.0567 62.3865 52.1267 62.3305 52.192C62.2745 52.248 62.2092 52.276 62.1345 52.276H56.4225L56.3385 51.744H61.9805L61.8405 51.87V51.618C61.7939 51.1233 61.6352 50.708 61.3645 50.372C61.1032 50.036 60.7859 49.784 60.4125 49.616C60.0392 49.4387 59.6519 49.35 59.2505 49.35C58.9705 49.35 58.6765 49.4153 58.3685 49.546C58.0605 49.6673 57.7759 49.8587 57.5145 50.12C57.2532 50.372 57.0385 50.694 56.8705 51.086C56.7119 51.478 56.6325 51.9353 56.6325 52.458C56.6325 53.0273 56.7445 53.55 56.9685 54.026C57.2019 54.502 57.5425 54.8847 57.9905 55.174C58.4479 55.4633 59.0079 55.608 59.6705 55.608C59.9879 55.608 60.2865 55.5567 60.5665 55.454C60.8465 55.342 61.0985 55.1973 61.3225 55.02C61.5465 54.8427 61.7285 54.6513 61.8685 54.446C61.9432 54.362 62.0225 54.32 62.1065 54.32C62.1719 54.32 62.2279 54.348 62.2745 54.404C62.3212 54.4507 62.3445 54.5067 62.3445 54.572C62.3445 54.6373 62.3259 54.6933 62.2885 54.74C61.9992 55.1133 61.6259 55.44 61.1685 55.72C60.7205 56 60.2212 56.14 59.6705 56.14ZM73.9112 46.2C74.6112 46.2 75.2179 46.3353 75.7312 46.606C76.2446 46.8673 76.6646 47.2313 76.9912 47.698C77.3272 48.1553 77.5746 48.678 77.7332 49.266C77.8919 49.854 77.9712 50.4653 77.9712 51.1C77.9712 51.996 77.8266 52.8173 77.5372 53.564C77.2572 54.3013 76.8186 54.894 76.2212 55.342C75.6239 55.7807 74.8539 56 73.9112 56H70.2712C70.1966 56 70.1312 55.972 70.0752 55.916C70.0192 55.86 69.9912 55.7947 69.9912 55.72V46.48C69.9912 46.4053 70.0192 46.34 70.0752 46.284C70.1312 46.228 70.1966 46.2 70.2712 46.2H73.9112ZM73.7712 55.44C74.6299 55.44 75.3206 55.2487 75.8432 54.866C76.3752 54.474 76.7626 53.9513 77.0052 53.298C77.2572 52.6353 77.3832 51.9027 77.3832 51.1C77.3832 50.5307 77.3132 49.9847 77.1732 49.462C77.0426 48.9393 76.8326 48.4773 76.5432 48.076C76.2539 47.6653 75.8806 47.3433 75.4232 47.11C74.9659 46.8767 74.4152 46.76 73.7712 46.76H70.4952L70.5792 46.648V55.566L70.4952 55.44H73.7712ZM83.9288 56.14C83.2288 56.14 82.6081 55.9907 82.0668 55.692C81.5348 55.3933 81.1148 54.9733 80.8068 54.432C80.4988 53.8813 80.3448 53.2373 80.3448 52.5C80.3448 51.716 80.4941 51.0487 80.7928 50.498C81.1008 49.9473 81.4928 49.5273 81.9688 49.238C82.4541 48.9393 82.9675 48.79 83.5088 48.79C83.9008 48.79 84.2835 48.8553 84.6568 48.986C85.0301 49.1073 85.3615 49.3033 85.6508 49.574C85.9495 49.8353 86.1875 50.1667 86.3648 50.568C86.5515 50.96 86.6541 51.4313 86.6728 51.982C86.6728 52.0567 86.6448 52.1267 86.5888 52.192C86.5328 52.248 86.4675 52.276 86.3928 52.276H80.6808L80.5968 51.744H86.2388L86.0988 51.87V51.618C86.0521 51.1233 85.8935 50.708 85.6228 50.372C85.3615 50.036 85.0441 49.784 84.6708 49.616C84.2975 49.4387 83.9101 49.35 83.5088 49.35C83.2288 49.35 82.9348 49.4153 82.6268 49.546C82.3188 49.6673 82.0341 49.8587 81.7728 50.12C81.5115 50.372 81.2968 50.694 81.1288 51.086C80.9701 51.478 80.8908 51.9353 80.8908 52.458C80.8908 53.0273 81.0028 53.55 81.2268 54.026C81.4601 54.502 81.8008 54.8847 82.2488 55.174C82.7061 55.4633 83.2661 55.608 83.9288 55.608C84.2461 55.608 84.5448 55.5567 84.8248 55.454C85.1048 55.342 85.3568 55.1973 85.5808 55.02C85.8048 54.8427 85.9868 54.6513 86.1268 54.446C86.2015 54.362 86.2808 54.32 86.3648 54.32C86.4301 54.32 86.4861 54.348 86.5328 54.404C86.5795 54.4507 86.6028 54.5067 86.6028 54.572C86.6028 54.6373 86.5841 54.6933 86.5468 54.74C86.2575 55.1133 85.8841 55.44 85.4268 55.72C84.9788 56 84.4795 56.14 83.9288 56.14ZM88.9937 48.762C89.0404 48.762 89.0871 48.7807 89.1337 48.818C89.1897 48.846 89.2271 48.888 89.2457 48.944L91.8357 55.146L91.6957 55.244L94.3277 48.944C94.3744 48.8227 94.4724 48.762 94.6217 48.762C94.6684 48.762 94.7244 48.7807 94.7897 48.818C94.8551 48.8553 94.8877 48.9113 94.8877 48.986C94.8877 49.0327 94.8831 49.07 94.8737 49.098C94.8644 49.1167 94.8551 49.1353 94.8457 49.154L92.0597 55.818C92.0131 55.9393 91.9244 56 91.7937 56C91.7377 56 91.6817 55.986 91.6257 55.958C91.5791 55.9207 91.5464 55.874 91.5277 55.818L88.7277 49.168C88.7184 49.1493 88.7091 49.1307 88.6997 49.112C88.6997 49.084 88.6997 49.0607 88.6997 49.042C88.6997 48.9673 88.7231 48.902 88.7697 48.846C88.8164 48.79 88.8911 48.762 88.9937 48.762ZM100.497 56.14C99.7975 56.14 99.1768 55.9907 98.6355 55.692C98.1035 55.3933 97.6835 54.9733 97.3755 54.432C97.0675 53.8813 96.9135 53.2373 96.9135 52.5C96.9135 51.716 97.0628 51.0487 97.3615 50.498C97.6695 49.9473 98.0615 49.5273 98.5375 49.238C99.0228 48.9393 99.5361 48.79 100.077 48.79C100.469 48.79 100.852 48.8553 101.225 48.986C101.599 49.1073 101.93 49.3033 102.219 49.574C102.518 49.8353 102.756 50.1667 102.933 50.568C103.12 50.96 103.223 51.4313 103.241 51.982C103.241 52.0567 103.213 52.1267 103.157 52.192C103.101 52.248 103.036 52.276 102.961 52.276H97.2495L97.1655 51.744H102.807L102.667 51.87V51.618C102.621 51.1233 102.462 50.708 102.191 50.372C101.93 50.036 101.613 49.784 101.239 49.616C100.866 49.4387 100.479 49.35 100.077 49.35C99.7975 49.35 99.5035 49.4153 99.1955 49.546C98.8875 49.6673 98.6028 49.8587 98.3415 50.12C98.0801 50.372 97.8655 50.694 97.6975 51.086C97.5388 51.478 97.4595 51.9353 97.4595 52.458C97.4595 53.0273 97.5715 53.55 97.7955 54.026C98.0288 54.502 98.3695 54.8847 98.8175 55.174C99.2748 55.4633 99.8348 55.608 100.497 55.608C100.815 55.608 101.113 55.5567 101.393 55.454C101.673 55.342 101.925 55.1973 102.149 55.02C102.373 54.8427 102.555 54.6513 102.695 54.446C102.77 54.362 102.849 54.32 102.933 54.32C102.999 54.32 103.055 54.348 103.101 54.404C103.148 54.4507 103.171 54.5067 103.171 54.572C103.171 54.6373 103.153 54.6933 103.115 54.74C102.826 55.1133 102.453 55.44 101.995 55.72C101.547 56 101.048 56.14 100.497 56.14ZM106.597 55.72C106.597 55.7947 106.569 55.86 106.513 55.916C106.457 55.972 106.391 56 106.317 56C106.233 56 106.163 55.972 106.107 55.916C106.06 55.86 106.037 55.7947 106.037 55.72V45.92C106.037 45.8453 106.065 45.78 106.121 45.724C106.177 45.668 106.242 45.64 106.317 45.64C106.401 45.64 106.466 45.668 106.513 45.724C106.569 45.78 106.597 45.8453 106.597 45.92V55.72ZM116.16 52.472C116.16 53.1627 116.01 53.788 115.712 54.348C115.413 54.8987 115.002 55.3373 114.48 55.664C113.966 55.9813 113.378 56.14 112.716 56.14C112.062 56.14 111.474 55.9813 110.952 55.664C110.429 55.3373 110.014 54.8987 109.706 54.348C109.407 53.788 109.258 53.1627 109.258 52.472C109.258 51.772 109.407 51.1467 109.706 50.596C110.014 50.036 110.429 49.5973 110.952 49.28C111.474 48.9533 112.062 48.79 112.716 48.79C113.378 48.79 113.966 48.9533 114.48 49.28C115.002 49.5973 115.413 50.036 115.712 50.596C116.01 51.1467 116.16 51.772 116.16 52.472ZM115.6 52.472C115.6 51.8653 115.474 51.3287 115.222 50.862C114.979 50.386 114.638 50.0127 114.2 49.742C113.77 49.462 113.276 49.322 112.716 49.322C112.165 49.322 111.67 49.462 111.232 49.742C110.793 50.0127 110.448 50.386 110.196 50.862C109.944 51.3287 109.818 51.8653 109.818 52.472C109.818 53.0693 109.944 53.606 110.196 54.082C110.448 54.5487 110.793 54.922 111.232 55.202C111.67 55.4727 112.165 55.608 112.716 55.608C113.276 55.608 113.77 55.4727 114.2 55.202C114.638 54.922 114.979 54.5487 115.222 54.082C115.474 53.606 115.6 53.0693 115.6 52.472ZM122.133 48.93C122.758 48.93 123.314 49.084 123.799 49.392C124.284 49.7 124.667 50.1247 124.947 50.666C125.236 51.198 125.381 51.8093 125.381 52.5C125.381 53.1813 125.236 53.7927 124.947 54.334C124.667 54.8753 124.28 55.3047 123.785 55.622C123.3 55.93 122.749 56.084 122.133 56.084C121.825 56.084 121.526 56.042 121.237 55.958C120.957 55.8647 120.696 55.7387 120.453 55.58C120.21 55.412 119.986 55.2067 119.781 54.964C119.585 54.7213 119.412 54.446 119.263 54.138L119.445 53.942V58.52C119.445 58.5947 119.417 58.66 119.361 58.716C119.314 58.772 119.249 58.8 119.165 58.8C119.09 58.8 119.025 58.772 118.969 58.716C118.913 58.66 118.885 58.5947 118.885 58.52V49.21C118.885 49.1353 118.908 49.07 118.955 49.014C119.011 48.958 119.081 48.93 119.165 48.93C119.249 48.93 119.314 48.958 119.361 49.014C119.417 49.07 119.445 49.1353 119.445 49.21V51.002L119.263 50.904C119.394 50.5587 119.557 50.26 119.753 50.008C119.949 49.756 120.173 49.5507 120.425 49.392C120.677 49.2333 120.948 49.1167 121.237 49.042C121.526 48.9673 121.825 48.93 122.133 48.93ZM122.105 49.462C121.573 49.462 121.102 49.5927 120.691 49.854C120.29 50.1153 119.972 50.4747 119.739 50.932C119.506 51.38 119.389 51.9027 119.389 52.5C119.389 53.088 119.506 53.6153 119.739 54.082C119.972 54.5393 120.29 54.8987 120.691 55.16C121.102 55.4213 121.573 55.552 122.105 55.552C122.628 55.552 123.09 55.4213 123.491 55.16C123.902 54.8987 124.224 54.5393 124.457 54.082C124.7 53.6153 124.821 53.088 124.821 52.5C124.821 51.912 124.7 51.3893 124.457 50.932C124.224 50.4747 123.902 50.1153 123.491 49.854C123.09 49.5927 122.628 49.462 122.105 49.462ZM131.088 48.93C131.611 48.93 132.087 49.0747 132.516 49.364C132.955 49.644 133.253 50.0873 133.412 50.694L133.23 50.82L133.3 50.554C133.421 50.246 133.631 49.9707 133.93 49.728C134.238 49.4853 134.579 49.294 134.952 49.154C135.335 49.0047 135.703 48.93 136.058 48.93C136.618 48.93 137.08 49.0513 137.444 49.294C137.808 49.5367 138.074 49.8633 138.242 50.274C138.419 50.6753 138.508 51.1327 138.508 51.646V55.72C138.508 55.7947 138.48 55.86 138.424 55.916C138.377 55.972 138.312 56 138.228 56C138.144 56 138.074 55.972 138.018 55.916C137.971 55.86 137.948 55.7947 137.948 55.72V51.702C137.948 51.2913 137.878 50.918 137.738 50.582C137.607 50.2367 137.397 49.966 137.108 49.77C136.828 49.5647 136.459 49.462 136.002 49.462C135.601 49.462 135.209 49.5647 134.826 49.77C134.443 49.966 134.126 50.2367 133.874 50.582C133.631 50.918 133.51 51.2913 133.51 51.702V55.72C133.51 55.7947 133.482 55.86 133.426 55.916C133.379 55.972 133.314 56 133.23 56C133.146 56 133.076 55.972 133.02 55.916C132.973 55.86 132.95 55.7947 132.95 55.72V51.632C132.95 51.2307 132.885 50.8667 132.754 50.54C132.633 50.2133 132.437 49.952 132.166 49.756C131.895 49.56 131.536 49.462 131.088 49.462C130.696 49.462 130.313 49.56 129.94 49.756C129.576 49.952 129.273 50.2133 129.03 50.54C128.787 50.8667 128.666 51.2307 128.666 51.632V55.72C128.666 55.7947 128.638 55.86 128.582 55.916C128.526 55.972 128.461 56 128.386 56C128.302 56 128.232 55.972 128.176 55.916C128.129 55.86 128.106 55.7947 128.106 55.72V49.294C128.106 49.2193 128.134 49.154 128.19 49.098C128.246 49.042 128.311 49.014 128.386 49.014C128.47 49.014 128.535 49.042 128.582 49.098C128.638 49.154 128.666 49.2193 128.666 49.294V50.82L128.246 51.534C128.246 51.2073 128.325 50.89 128.484 50.582C128.643 50.274 128.853 49.9987 129.114 49.756C129.385 49.504 129.688 49.3033 130.024 49.154C130.369 49.0047 130.724 48.93 131.088 48.93ZM144.824 56.14C144.124 56.14 143.504 55.9907 142.962 55.692C142.43 55.3933 142.01 54.9733 141.702 54.432C141.394 53.8813 141.24 53.2373 141.24 52.5C141.24 51.716 141.39 51.0487 141.688 50.498C141.996 49.9473 142.388 49.5273 142.864 49.238C143.35 48.9393 143.863 48.79 144.404 48.79C144.796 48.79 145.179 48.8553 145.552 48.986C145.926 49.1073 146.257 49.3033 146.546 49.574C146.845 49.8353 147.083 50.1667 147.26 50.568C147.447 50.96 147.55 51.4313 147.568 51.982C147.568 52.0567 147.54 52.1267 147.484 52.192C147.428 52.248 147.363 52.276 147.288 52.276H141.576L141.492 51.744H147.134L146.994 51.87V51.618C146.948 51.1233 146.789 50.708 146.518 50.372C146.257 50.036 145.94 49.784 145.566 49.616C145.193 49.4387 144.806 49.35 144.404 49.35C144.124 49.35 143.83 49.4153 143.522 49.546C143.214 49.6673 142.93 49.8587 142.668 50.12C142.407 50.372 142.192 50.694 142.024 51.086C141.866 51.478 141.786 51.9353 141.786 52.458C141.786 53.0273 141.898 53.55 142.122 54.026C142.356 54.502 142.696 54.8847 143.144 55.174C143.602 55.4633 144.162 55.608 144.824 55.608C145.142 55.608 145.44 55.5567 145.72 55.454C146 55.342 146.252 55.1973 146.476 55.02C146.7 54.8427 146.882 54.6513 147.022 54.446C147.097 54.362 147.176 54.32 147.26 54.32C147.326 54.32 147.382 54.348 147.428 54.404C147.475 54.4507 147.498 54.5067 147.498 54.572C147.498 54.6373 147.48 54.6933 147.442 54.74C147.153 55.1133 146.78 55.44 146.322 55.72C145.874 56 145.375 56.14 144.824 56.14ZM153.472 48.79C154.06 48.79 154.536 48.9067 154.9 49.14C155.273 49.3733 155.544 49.6907 155.712 50.092C155.889 50.4933 155.978 50.9413 155.978 51.436V55.72C155.978 55.7947 155.95 55.86 155.894 55.916C155.838 55.972 155.772 56 155.698 56C155.614 56 155.544 55.972 155.488 55.916C155.441 55.86 155.418 55.7947 155.418 55.72V51.492C155.418 51.0907 155.348 50.7267 155.208 50.4C155.077 50.0733 154.862 49.812 154.564 49.616C154.274 49.42 153.892 49.322 153.416 49.322C153.005 49.322 152.604 49.42 152.212 49.616C151.82 49.812 151.493 50.0733 151.232 50.4C150.98 50.7267 150.854 51.0907 150.854 51.492V55.72C150.854 55.7947 150.826 55.86 150.77 55.916C150.714 55.972 150.648 56 150.574 56C150.49 56 150.42 55.972 150.364 55.916C150.317 55.86 150.294 55.7947 150.294 55.72V49.294C150.294 49.2193 150.322 49.154 150.378 49.098C150.434 49.042 150.499 49.014 150.574 49.014C150.658 49.014 150.723 49.042 150.77 49.098C150.826 49.154 150.854 49.2193 150.854 49.294V50.666L150.504 51.338C150.504 51.002 150.592 50.68 150.77 50.372C150.947 50.064 151.18 49.7933 151.47 49.56C151.759 49.3173 152.076 49.1307 152.422 49C152.776 48.86 153.126 48.79 153.472 48.79ZM158.501 48.958H161.749C161.824 48.958 161.885 48.986 161.931 49.042C161.987 49.098 162.015 49.1587 162.015 49.224C162.015 49.2987 161.987 49.364 161.931 49.42C161.885 49.4667 161.824 49.49 161.749 49.49H158.501C158.436 49.49 158.375 49.462 158.319 49.406C158.263 49.35 158.235 49.2893 158.235 49.224C158.235 49.1493 158.263 49.0887 158.319 49.042C158.375 48.986 158.436 48.958 158.501 48.958ZM159.929 46.9C160.013 46.9 160.079 46.928 160.125 46.984C160.181 47.04 160.209 47.1053 160.209 47.18V54.474C160.209 54.782 160.247 55.0107 160.321 55.16C160.405 55.3 160.508 55.3933 160.629 55.44C160.751 55.4773 160.867 55.496 160.979 55.496C161.045 55.496 161.101 55.4867 161.147 55.468C161.194 55.4493 161.25 55.44 161.315 55.44C161.381 55.44 161.437 55.468 161.483 55.524C161.53 55.5707 161.553 55.6267 161.553 55.692C161.553 55.776 161.497 55.8507 161.385 55.916C161.283 55.972 161.152 56 160.993 56C160.937 56 160.835 56 160.685 56C160.545 55.9907 160.391 55.9487 160.223 55.874C160.065 55.79 159.929 55.6453 159.817 55.44C159.705 55.2253 159.649 54.9127 159.649 54.502V47.18C159.649 47.1053 159.677 47.04 159.733 46.984C159.789 46.928 159.855 46.9 159.929 46.9ZM171.829 56.14C171.101 56.1493 170.475 56.028 169.953 55.776C169.43 55.524 168.926 55.1553 168.441 54.67C168.422 54.6513 168.403 54.628 168.385 54.6C168.366 54.5627 168.357 54.516 168.357 54.46C168.357 54.3853 168.389 54.3153 168.455 54.25C168.52 54.1753 168.59 54.138 168.665 54.138C168.749 54.138 168.828 54.18 168.903 54.264C169.276 54.6933 169.71 55.02 170.205 55.244C170.709 55.468 171.231 55.58 171.773 55.58C172.249 55.58 172.673 55.5053 173.047 55.356C173.42 55.1973 173.714 54.978 173.929 54.698C174.143 54.4087 174.251 54.0727 174.251 53.69C174.241 53.214 174.111 52.8313 173.859 52.542C173.607 52.2527 173.28 52.0147 172.879 51.828C172.487 51.6413 172.071 51.4687 171.633 51.31C171.287 51.1793 170.947 51.044 170.611 50.904C170.275 50.764 169.971 50.596 169.701 50.4C169.43 50.1947 169.215 49.9427 169.057 49.644C168.898 49.336 168.819 48.958 168.819 48.51C168.819 48.0527 168.94 47.642 169.183 47.278C169.435 46.9047 169.789 46.6107 170.247 46.396C170.713 46.172 171.264 46.06 171.899 46.06C172.431 46.06 172.949 46.158 173.453 46.354C173.957 46.5407 174.353 46.8253 174.643 47.208C174.736 47.3387 174.783 47.4367 174.783 47.502C174.783 47.5673 174.745 47.6327 174.671 47.698C174.605 47.7633 174.531 47.796 174.447 47.796C174.372 47.796 174.311 47.768 174.265 47.712C174.097 47.488 173.891 47.2967 173.649 47.138C173.415 46.97 173.149 46.844 172.851 46.76C172.552 46.6667 172.235 46.62 171.899 46.62C171.441 46.62 171.026 46.6947 170.653 46.844C170.279 46.9933 169.981 47.208 169.757 47.488C169.533 47.7587 169.421 48.0947 169.421 48.496C169.421 48.9253 169.542 49.28 169.785 49.56C170.037 49.8307 170.354 50.0593 170.737 50.246C171.119 50.4233 171.511 50.5867 171.913 50.736C172.267 50.8573 172.617 50.9927 172.963 51.142C173.317 51.282 173.635 51.4593 173.915 51.674C174.204 51.8887 174.433 52.1593 174.601 52.486C174.769 52.8127 174.853 53.2233 174.853 53.718C174.853 54.1473 174.727 54.544 174.475 54.908C174.232 55.272 173.887 55.566 173.439 55.79C172.991 56.014 172.454 56.1307 171.829 56.14ZM176.922 48.958H180.17C180.244 48.958 180.305 48.986 180.352 49.042C180.408 49.098 180.436 49.1587 180.436 49.224C180.436 49.2987 180.408 49.364 180.352 49.42C180.305 49.4667 180.244 49.49 180.17 49.49H176.922C176.856 49.49 176.796 49.462 176.74 49.406C176.684 49.35 176.656 49.2893 176.656 49.224C176.656 49.1493 176.684 49.0887 176.74 49.042C176.796 48.986 176.856 48.958 176.922 48.958ZM178.35 46.9C178.434 46.9 178.499 46.928 178.546 46.984C178.602 47.04 178.63 47.1053 178.63 47.18V54.474C178.63 54.782 178.667 55.0107 178.742 55.16C178.826 55.3 178.928 55.3933 179.05 55.44C179.171 55.4773 179.288 55.496 179.4 55.496C179.465 55.496 179.521 55.4867 179.568 55.468C179.614 55.4493 179.67 55.44 179.736 55.44C179.801 55.44 179.857 55.468 179.904 55.524C179.95 55.5707 179.974 55.6267 179.974 55.692C179.974 55.776 179.918 55.8507 179.806 55.916C179.703 55.972 179.572 56 179.414 56C179.358 56 179.255 56 179.106 56C178.966 55.9907 178.812 55.9487 178.644 55.874C178.485 55.79 178.35 55.6453 178.238 55.44C178.126 55.2253 178.07 54.9127 178.07 54.502V47.18C178.07 47.1053 178.098 47.04 178.154 46.984C178.21 46.928 178.275 46.9 178.35 46.9ZM188.114 49.014C188.198 49.014 188.263 49.042 188.31 49.098C188.366 49.154 188.394 49.2193 188.394 49.294V53.368C188.394 54.2733 188.137 54.9547 187.624 55.412C187.12 55.86 186.448 56.084 185.608 56.084C184.777 56.084 184.105 55.86 183.592 55.412C183.088 54.9547 182.836 54.2733 182.836 53.368V49.294C182.836 49.2193 182.864 49.154 182.92 49.098C182.976 49.042 183.041 49.014 183.116 49.014C183.2 49.014 183.265 49.042 183.312 49.098C183.368 49.154 183.396 49.2193 183.396 49.294V53.368C183.396 54.0773 183.592 54.6187 183.984 54.992C184.385 55.3653 184.926 55.552 185.608 55.552C186.298 55.552 186.84 55.3653 187.232 54.992C187.633 54.6187 187.834 54.0773 187.834 53.368V49.294C187.834 49.2193 187.857 49.154 187.904 49.098C187.96 49.042 188.03 49.014 188.114 49.014ZM197.346 45.64C197.43 45.64 197.496 45.668 197.542 45.724C197.598 45.78 197.626 45.8453 197.626 45.92V55.72C197.626 55.7947 197.598 55.86 197.542 55.916C197.486 55.972 197.421 56 197.346 56C197.262 56 197.192 55.972 197.136 55.916C197.09 55.86 197.066 55.7947 197.066 55.72V53.732L197.29 53.424C197.29 53.7413 197.216 54.0633 197.066 54.39C196.926 54.7073 196.721 55.0013 196.45 55.272C196.189 55.5333 195.881 55.7433 195.526 55.902C195.172 56.0607 194.789 56.14 194.378 56.14C193.762 56.14 193.207 55.9813 192.712 55.664C192.227 55.3373 191.84 54.8987 191.55 54.348C191.27 53.788 191.13 53.158 191.13 52.458C191.13 51.758 191.27 51.1327 191.55 50.582C191.84 50.022 192.227 49.5833 192.712 49.266C193.207 48.9487 193.762 48.79 194.378 48.79C194.761 48.79 195.125 48.8647 195.47 49.014C195.825 49.154 196.138 49.3547 196.408 49.616C196.679 49.8773 196.894 50.1853 197.052 50.54C197.211 50.8853 197.29 51.2633 197.29 51.674L197.066 51.324V45.92C197.066 45.8453 197.09 45.78 197.136 45.724C197.192 45.668 197.262 45.64 197.346 45.64ZM194.406 55.608C194.938 55.608 195.405 55.4727 195.806 55.202C196.217 54.9313 196.539 54.558 196.772 54.082C197.006 53.606 197.122 53.0647 197.122 52.458C197.122 51.8513 197.006 51.3147 196.772 50.848C196.539 50.372 196.217 49.9987 195.806 49.728C195.396 49.4573 194.929 49.322 194.406 49.322C193.893 49.322 193.431 49.4573 193.02 49.728C192.61 49.9987 192.283 50.372 192.04 50.848C191.807 51.3147 191.69 51.8513 191.69 52.458C191.69 53.0553 191.807 53.592 192.04 54.068C192.283 54.544 192.61 54.922 193.02 55.202C193.431 55.4727 193.893 55.608 194.406 55.608ZM201.345 55.72C201.345 55.7947 201.317 55.86 201.261 55.916C201.205 55.972 201.14 56 201.065 56C200.981 56 200.911 55.972 200.855 55.916C200.808 55.86 200.785 55.7947 200.785 55.72V49.07C200.785 48.9953 200.813 48.93 200.869 48.874C200.925 48.818 200.99 48.79 201.065 48.79C201.149 48.79 201.214 48.818 201.261 48.874C201.317 48.93 201.345 48.9953 201.345 49.07V55.72ZM201.065 47.838C200.916 47.838 200.794 47.796 200.701 47.712C200.617 47.628 200.575 47.5207 200.575 47.39V47.278C200.575 47.1473 200.622 47.04 200.715 46.956C200.808 46.872 200.93 46.83 201.079 46.83C201.21 46.83 201.317 46.872 201.401 46.956C201.494 47.04 201.541 47.1473 201.541 47.278V47.39C201.541 47.5207 201.494 47.628 201.401 47.712C201.317 47.796 201.205 47.838 201.065 47.838ZM210.978 52.472C210.978 53.1627 210.828 53.788 210.53 54.348C210.231 54.8987 209.82 55.3373 209.298 55.664C208.784 55.9813 208.196 56.14 207.534 56.14C206.88 56.14 206.292 55.9813 205.77 55.664C205.247 55.3373 204.832 54.8987 204.524 54.348C204.225 53.788 204.076 53.1627 204.076 52.472C204.076 51.772 204.225 51.1467 204.524 50.596C204.832 50.036 205.247 49.5973 205.77 49.28C206.292 48.9533 206.88 48.79 207.534 48.79C208.196 48.79 208.784 48.9533 209.298 49.28C209.82 49.5973 210.231 50.036 210.53 50.596C210.828 51.1467 210.978 51.772 210.978 52.472ZM210.418 52.472C210.418 51.8653 210.292 51.3287 210.04 50.862C209.797 50.386 209.456 50.0127 209.018 49.742C208.588 49.462 208.094 49.322 207.534 49.322C206.983 49.322 206.488 49.462 206.05 49.742C205.611 50.0127 205.266 50.386 205.014 50.862C204.762 51.3287 204.636 51.8653 204.636 52.472C204.636 53.0693 204.762 53.606 205.014 54.082C205.266 54.5487 205.611 54.922 206.05 55.202C206.488 55.4727 206.983 55.608 207.534 55.608C208.094 55.608 208.588 55.4727 209.018 55.202C209.456 54.922 209.797 54.5487 210.04 54.082C210.292 53.606 210.418 53.0693 210.418 52.472Z" fill="white"/>
</svg>
