<svg width="40" height="40" viewBox="0 0 40 40" fill="none" xmlns="http://www.w3.org/2000/svg">
<g clip-path="url(#clip0_442_139)">
<path d="M6.2475 2.42176e-06C6.51257 -0.000519204 6.77095 0.083237 6.9853 0.239172C7.19965 0.395106 7.35889 0.615145 7.44 0.867502L8.08 2.8625C8.20364 3.22937 8.40999 3.56289 8.68309 3.83729C8.95619 4.11169 9.28872 4.31962 9.655 4.445L11.6275 5.0675C11.8804 5.14762 12.1013 5.30615 12.2582 5.52015C12.4151 5.73415 12.4998 5.99251 12.5 6.25784C12.5003 6.52317 12.4162 6.78171 12.2597 6.99603C12.1033 7.21036 11.8828 7.36935 11.63 7.45L9.655 8.08C9.28779 8.20368 8.95436 8.41103 8.68103 8.68566C8.40769 8.9603 8.20193 9.29471 8.08 9.6625L7.45 11.63C7.36993 11.8808 7.21272 12.0999 7.00078 12.2561C6.78884 12.4123 6.533 12.4976 6.26974 12.4998C6.00648 12.502 5.74924 12.421 5.5347 12.2684C5.32016 12.1159 5.15928 11.8994 5.075 11.65L4.41 9.675C4.28344 9.3056 4.07453 8.96981 3.79907 8.69305C3.52361 8.41628 3.18881 8.20579 2.82 8.0775L0.8675 7.45C0.61724 7.36833 0.399153 7.20973 0.244332 6.99682C0.0895112 6.78392 0.00586048 6.52756 0.00530627 6.26431C0.00475207 6.00106 0.0873227 5.74436 0.241246 5.5308C0.395169 5.31724 0.612586 5.15773 0.8625 5.075L2.8475 4.425C3.2159 4.29964 3.55072 4.09163 3.82632 3.8169C4.10192 3.54217 4.31098 3.208 4.4375 2.84L5.0575 0.875002C5.1373 0.621246 5.29598 0.399564 5.51044 0.242198C5.72491 0.0848311 5.98149 -1.37511e-05 6.2475 2.42176e-06ZM8.625 17.375L9.835 13.5275C10.2225 12.1575 12.3125 12.1575 12.7025 13.5275L13.9525 17.4375C14.5275 19.1575 15.9175 20.55 17.62 21.1225L21.47 22.33C22.845 22.72 22.845 24.805 21.47 25.195C21.05 25.35 20.5275 25.5075 19.96 25.675C18.285 26.1725 16.2325 26.78 15.345 27.835C14.2875 28.735 13.655 30.8525 13.1525 32.535C12.9925 33.07 12.845 33.56 12.7025 33.955C12.605 34.255 12.4163 34.517 12.1625 34.7044C11.9088 34.8917 11.6029 34.9951 11.2875 35C10.9711 35.002 10.6622 34.904 10.405 34.7199C10.1477 34.5358 9.95518 34.2751 9.855 33.975L8.5625 30.1275C8.26848 29.2713 7.78377 28.4932 7.14497 27.8518C6.50616 27.2104 5.72997 26.7225 4.875 26.425L1.045 25.2C0.742024 25.0995 0.47821 24.9065 0.290733 24.6482C0.103256 24.3899 0.00156885 24.0792 0 23.76C0 23.105 0.41 22.5325 1.045 22.3275C1.43333 22.1992 1.83583 22.0725 2.2525 21.9475C4.86 21.15 7.795 20.255 8.625 17.375ZM4.77 23.7675L5.665 24.055L5.69 24.0625C6.90785 24.485 8.01329 25.1797 8.92218 26.0938C9.83107 27.0079 10.5195 28.1173 10.935 29.3375L11.2425 30.2575L11.365 29.9025C11.7525 28.7975 12.4 27.1575 13.5675 26.0725C14.66 24.8825 16.3075 24.24 17.4125 23.8575L17.6825 23.765L16.845 23.5025L16.82 23.495C15.6016 23.0781 14.4954 22.3868 13.5869 21.4743C12.6783 20.5618 11.9916 19.4526 11.58 18.2325L11.57 18.2025L11.275 17.2825L11.0175 18.1025C10.265 20.675 8.41 22.12 6.6425 22.995C6.03377 23.2884 5.40856 23.5464 4.77 23.7675ZM19.095 9.3475C20.5557 8.81818 22.1196 8.63648 23.6628 8.81682C25.2059 8.99716 26.6858 9.53457 27.9851 10.3864C29.2843 11.2383 30.3672 12.3812 31.1479 13.7245C31.9286 15.0677 32.3855 16.5744 32.4825 18.125H31.875C31.5435 18.125 31.2255 18.2567 30.9911 18.4911C30.7567 18.7255 30.625 19.0435 30.625 19.375V28.75C30.625 29.0815 30.7567 29.3995 30.9911 29.6339C31.2255 29.8683 31.5435 30 31.875 30H32.3225C31.8375 32.41 30.5975 33.6 29.4925 34.225C28.8057 34.6092 28.0525 34.8603 27.2725 34.965C26.9697 34.1344 26.3832 33.4375 25.6166 32.9973C24.85 32.5571 23.9524 32.4019 23.0825 32.5591C22.2125 32.7163 21.4261 33.1758 20.862 33.8565C20.2979 34.5371 19.9924 35.3952 19.9994 36.2792C20.0065 37.1632 20.3256 38.0163 20.9005 38.6879C21.4753 39.3595 22.269 39.8064 23.1413 39.9498C24.0137 40.0931 24.9086 39.9236 25.6681 39.4713C26.4277 39.0189 27.003 38.3128 27.2925 37.4775C28.4989 37.36 29.6678 36.993 30.725 36.4C32.5425 35.37 34.315 33.4375 34.8625 30H35C36.3261 30 37.5979 29.4732 38.5355 28.5355C39.4732 27.5979 40 26.3261 40 25V23.125C40 21.7989 39.4732 20.5271 38.5355 19.5895C37.5979 18.6518 36.3261 18.125 35 18.125H34.985C34.8608 15.6456 34.0011 13.2593 32.5155 11.2703C31.0299 9.28128 28.9856 7.77971 26.6434 6.95694C24.3011 6.13418 21.7669 6.02749 19.3638 6.65048C16.9607 7.27347 14.7975 8.59792 13.15 10.455C13.865 10.82 14.5025 11.4125 14.8925 12.2625C16.017 10.943 17.4652 9.93846 19.095 9.3475ZM33.125 27.5V20.625H35C35.663 20.625 36.2989 20.8884 36.7678 21.3572C37.2366 21.8261 37.5 22.462 37.5 23.125V25C37.5 25.663 37.2366 26.2989 36.7678 26.7678C36.2989 27.2366 35.663 27.5 35 27.5H33.125Z" fill="white"/>
</g>
<defs>
<clipPath id="clip0_442_139">
<rect width="40" height="40" fill="white"/>
</clipPath>
</defs>
</svg>
