<svg width="70" height="70" viewBox="0 0 70 70" fill="none" xmlns="http://www.w3.org/2000/svg">
<path fill-rule="evenodd" clip-rule="evenodd" d="M50.7616 45.9915C50.4845 42.8779 49.9245 40.0779 48.6762 37.9692L53.1256 33.5198C55.414 33.3715 57.5527 32.3307 59.0814 30.6215C60.6102 28.9122 61.4069 26.6711 61.3001 24.3804C61.1932 22.0898 60.1914 19.9326 58.5102 18.373C56.8289 16.8135 54.6026 15.9764 52.3104 16.0417C51.2108 11.9044 45.5116 8.75 38.6458 8.75C32.5733 8.75 27.4122 11.2175 25.5427 14.6519C20.1804 15.1681 16.0416 18.531 16.0416 22.6042C16.0416 27.0346 20.9387 30.625 26.9791 30.625C29.8856 30.625 32.5266 29.7937 34.4866 28.4375C34.5644 28.5833 34.6485 28.7365 34.7389 28.8969C35.4068 30.0927 36.3722 31.6969 37.5564 33.3112C38.7348 34.9154 40.1668 36.5779 41.7768 37.854C43.1433 38.9346 44.7358 39.814 46.4814 40.0473C47.1931 41.5435 47.6218 43.6056 47.8552 46.2496C48.125 49.2698 48.125 52.8442 48.125 56.875V58.3333H51.0416V56.824C51.0416 52.8529 51.0416 49.1531 50.7616 45.9915ZM46.6929 25.3517C46.6531 24.933 46.5233 24.5279 46.3123 24.1641C46.1013 23.8002 45.8141 23.4864 45.4704 23.244C45.1268 23.0016 44.7347 22.8363 44.3212 22.7596C43.9077 22.6829 43.4825 22.6966 43.0748 22.7996C41.6261 23.1596 40.1385 23.3389 38.6458 23.3333C38.0945 23.3333 37.5545 23.3105 37.0256 23.2648C36.5092 23.2208 35.9905 23.3151 35.5227 23.5381C35.055 23.7611 34.655 24.1047 34.3641 24.5335C33.2412 26.1917 30.552 27.7083 26.9791 27.7083C24.5145 27.7083 22.4 26.9719 20.9708 25.9233C19.5387 24.8733 18.9583 23.6673 18.9583 22.6042C18.9583 20.7142 21.1647 18.0031 25.8212 17.5554C26.2959 17.5098 26.7522 17.3485 27.1501 17.0856C27.548 16.8227 27.8753 16.4663 28.1035 16.0475C29.2541 13.9344 33.1187 11.6667 38.6458 11.6667C41.6543 11.6667 44.3085 12.3608 46.2554 13.4108C48.2445 14.4842 49.2158 15.7587 49.49 16.7912C49.6576 17.4235 50.0328 17.981 50.5554 18.3743C51.0781 18.7676 51.7177 18.9738 52.3716 18.9598L52.5 18.9583C53.4296 18.9585 54.3457 19.1809 55.1719 19.6069C55.9982 20.033 56.7106 20.6503 57.2499 21.4075C57.7893 22.1647 58.1398 23.0398 58.2724 23.9599C58.4049 24.88 58.3156 25.8185 58.012 26.6971C57.7083 27.5757 57.1991 28.369 56.5267 29.011C55.8543 29.6529 55.0382 30.1248 54.1465 30.3874C53.2547 30.65 52.3131 30.6957 51.4002 30.5206C50.4872 30.3456 49.6292 29.9549 48.8979 29.381L48.4079 28.9494C47.4295 27.9902 46.822 26.7157 46.6929 25.3517ZM45.0887 29.4452C44.3642 28.2911 43.9193 26.9837 43.7893 25.6273C42.8735 25.8592 41.9095 26.0298 40.9091 26.1333C39.5363 26.2763 38.1529 26.289 36.7777 26.1712L36.6683 26.3288C36.8258 26.6321 37.0329 27.0229 37.2866 27.4765C38.1188 28.9779 39.0483 30.4232 40.0691 31.8033V31.5904C41.6806 31.5904 43.3722 30.7198 44.7752 29.6829C44.8831 29.6051 44.9876 29.5259 45.0887 29.4452ZM42.1239 34.2344C42.5993 34.7215 43.0864 35.1721 43.5866 35.5673C44.3061 36.137 45.0061 36.5599 45.6866 36.836L49.506 33.0152C48.6125 32.6893 47.778 32.2199 47.0356 31.6254C46.8674 31.7596 46.6914 31.8947 46.5077 32.0308C45.376 32.865 43.8506 33.7881 42.1239 34.2344Z" fill="white"/>
<path fill-rule="evenodd" clip-rule="evenodd" d="M26.2529 37.1876C26.2534 37.6664 26.1596 38.1406 25.9768 38.5831C25.794 39.0256 25.5259 39.4278 25.1877 39.7667C24.8495 40.1055 24.4478 40.3745 24.0057 40.5582C23.5635 40.7418 23.0895 40.8366 22.6107 40.8371C22.132 40.8376 21.6578 40.7437 21.2153 40.561C20.7727 40.3782 20.3706 40.11 20.0317 39.7718C19.6928 39.4336 19.4238 39.032 19.2402 38.5898C19.0565 38.1477 18.9617 37.6737 18.9613 37.1949C18.9603 36.228 19.3435 35.3002 20.0265 34.6158C20.7096 33.9314 21.6365 33.5464 22.6035 33.5454C23.5704 33.5444 24.4981 33.9276 25.1825 34.6107C25.8669 35.2937 26.252 36.2207 26.2529 37.1876ZM23.3363 37.1905C23.3364 37.2863 23.3176 37.3811 23.281 37.4696C23.2445 37.5581 23.1909 37.6385 23.1232 37.7063C23.0556 37.7741 22.9752 37.8279 22.8868 37.8646C22.7984 37.9014 22.7036 37.9203 22.6078 37.9204C22.5121 37.9205 22.4172 37.9017 22.3287 37.8652C22.2402 37.8286 22.1598 37.775 22.092 37.7074C22.0242 37.6397 21.9704 37.5594 21.9337 37.471C21.897 37.3825 21.878 37.2877 21.8779 37.192C21.8777 36.9986 21.9544 36.813 22.091 36.6762C22.2276 36.5393 22.413 36.4623 22.6064 36.4621C22.7998 36.4619 22.9853 36.5385 23.1222 36.6751C23.2591 36.8117 23.3361 36.9971 23.3363 37.1905ZM16.0446 43.0209C16.0451 43.4997 15.9512 43.9739 15.7685 44.4164C15.5857 44.8589 15.3175 45.2611 14.9793 45.6C14.6411 45.9389 14.2395 46.2078 13.7973 46.3915C13.3552 46.5752 12.8812 46.6699 12.4024 46.6704C11.9236 46.6709 11.4494 46.5771 11.0069 46.3943C10.5644 46.2115 10.1622 45.9434 9.82335 45.6051C9.48446 45.2669 9.21551 44.8653 9.03185 44.4231C8.84819 43.981 8.75341 43.507 8.75293 43.0282C8.75196 42.0613 9.13515 41.1336 9.81819 40.4492C10.5012 39.7648 11.4282 39.3797 12.3951 39.3787C13.3621 39.3778 14.2898 39.761 14.9742 40.444C15.6586 41.127 16.0436 42.054 16.0446 43.0209ZM13.1279 43.0238C13.1279 43.2172 13.0511 43.4027 12.9144 43.5394C12.7776 43.6762 12.5922 43.753 12.3988 43.753C12.2054 43.753 12.0199 43.6762 11.8832 43.5394C11.7464 43.4027 11.6696 43.2172 11.6696 43.0238C11.6696 42.8305 11.7464 42.645 11.8832 42.5083C12.0199 42.3715 12.2054 42.2947 12.3988 42.2947C12.5922 42.2947 12.7776 42.3715 12.9144 42.5083C13.0511 42.645 13.1279 42.8305 13.1279 43.0238ZM37.1933 46.6697C38.1603 46.6689 39.0873 46.2841 39.7705 45.5998C40.4537 44.9155 40.837 43.9879 40.8363 43.0209C40.8355 42.054 40.4506 41.127 39.7664 40.4438C39.0821 39.7606 38.1544 39.3772 37.1875 39.378C36.2206 39.3788 35.2936 39.7636 34.6104 40.4479C33.9272 41.1322 33.5438 42.0598 33.5446 43.0268C33.5454 43.9937 33.9302 44.9207 34.6145 45.6039C35.2988 46.2871 36.2264 46.6705 37.1933 46.6697ZM37.1904 43.753C37.3838 43.753 37.5693 43.6762 37.706 43.5394C37.8428 43.4027 37.9196 43.2172 37.9196 43.0238C37.9196 42.8305 37.8428 42.645 37.706 42.5083C37.5693 42.3715 37.3838 42.2947 37.1904 42.2947C36.997 42.2947 36.8116 42.3715 36.6748 42.5083C36.5381 42.645 36.4613 42.8305 36.4613 43.0238C36.4613 43.2172 36.5381 43.4027 36.6748 43.5394C36.8116 43.6762 36.997 43.753 37.1904 43.753Z" fill="white"/>
<path d="M21.875 42.2915C22.6485 42.2915 23.3904 42.5988 23.9374 43.1458C24.4844 43.6928 24.7917 44.4346 24.7917 45.2082V48.1248H27.7083C28.4819 48.1248 29.2237 48.4321 29.7707 48.9791C30.3177 49.5261 30.625 50.268 30.625 51.0415C30.625 51.8151 30.3177 52.5569 29.7707 53.1039C29.2237 53.6509 28.4819 53.9582 27.7083 53.9582H21.875C21.1015 53.9582 20.3596 53.6509 19.8126 53.1039C19.2656 52.5569 18.9583 51.8151 18.9583 51.0415V45.2082C18.9583 44.4346 19.2656 43.6928 19.8126 43.1458C20.3596 42.5988 21.1015 42.2915 21.875 42.2915ZM14.5833 51.0415C14.5833 50.268 14.276 49.5261 13.7291 48.9791C13.1821 48.4321 12.4402 48.1248 11.6667 48.1248C10.8931 48.1248 10.1513 48.4321 9.60427 48.9791C9.05729 49.5261 8.75 50.268 8.75 51.0415V58.3332C8.75 59.1067 9.05729 59.8486 9.60427 60.3956C10.1513 60.9425 10.8931 61.2498 11.6667 61.2498H17.5C18.2735 61.2498 19.0154 60.9425 19.5624 60.3956C20.1094 59.8486 20.4167 59.1067 20.4167 58.3332C20.4167 57.5596 20.1094 56.8178 19.5624 56.2708C19.0154 55.7238 18.2735 55.4165 17.5 55.4165H14.5833V51.0415ZM37.9167 48.1248C37.1431 48.1248 36.4013 48.4321 35.8543 48.9791C35.3073 49.5261 35 50.268 35 51.0415V55.4165H32.0833C31.3098 55.4165 30.5679 55.7238 30.0209 56.2708C29.474 56.8178 29.1667 57.5596 29.1667 58.3332C29.1667 59.1067 29.474 59.8486 30.0209 60.3956C30.5679 60.9425 31.3098 61.2498 32.0833 61.2498H37.9167C38.6902 61.2498 39.4321 60.9425 39.9791 60.3956C40.526 59.8486 40.8333 59.1067 40.8333 58.3332V51.0415C40.8333 50.268 40.526 49.5261 39.9791 48.9791C39.4321 48.4321 38.6902 48.1248 37.9167 48.1248Z" fill="white"/>
</svg>
