<svg width="40" height="40" viewBox="0 0 40 40" fill="none" xmlns="http://www.w3.org/2000/svg">
<path fill-rule="evenodd" clip-rule="evenodd" d="M11 17.5004C11 17.5004 11.68 17.4087 12.6666 17.1454C15.2683 16.4512 20 14.5671 20 10.0354C20.0002 9.37415 19.8701 8.71932 19.6171 8.10835C19.3642 7.49737 18.9933 6.94223 18.5257 6.47465C18.0581 6.00706 17.503 5.63619 16.892 5.38324C16.2811 5.13028 15.6262 5.0002 14.965 5.00042H10.035C9.36835 4.99184 8.70669 5.11573 8.08834 5.36489C7.47 5.61406 6.90729 5.98353 6.43287 6.45189C5.95845 6.92024 5.58177 7.47815 5.32467 8.09324C5.06757 8.70832 4.93518 9.36834 4.93518 10.035C4.93518 10.7017 5.06757 11.3617 5.32467 11.9768C5.58177 12.5918 5.95845 13.1498 6.43287 13.6181C6.90729 14.0865 7.47 14.4559 8.08834 14.7051C8.70669 14.9543 9.36835 15.0782 10.035 15.0696H11V17.5004ZM12.6666 13.4029H10.035C9.58822 13.4099 9.14454 13.328 8.72977 13.1619C8.315 12.9958 7.93742 12.7489 7.61901 12.4354C7.3006 12.122 7.04774 11.7483 6.87513 11.3362C6.70253 10.9241 6.61364 10.4818 6.61364 10.035C6.61364 9.58821 6.70253 9.14588 6.87513 8.73377C7.04774 8.32166 7.3006 7.94801 7.61901 7.63457C7.93742 7.32113 8.315 7.07418 8.72977 6.90808C9.14454 6.74198 9.58822 6.66006 10.035 6.66708H14.965C15.4074 6.66686 15.8455 6.75384 16.2542 6.92304C16.663 7.09223 17.0344 7.34033 17.3472 7.65316C17.66 7.96598 17.9081 8.33739 18.0773 8.74615C18.2465 9.15492 18.3335 9.59302 18.3333 10.0354C18.3333 12.1879 16.8266 13.6212 14.7758 14.6104C14.0952 14.9341 13.3899 15.2031 12.6666 15.4146V13.4029ZM12.0833 26.6671C13.925 26.6671 15.4166 25.1754 15.4166 23.3337C15.4166 21.4921 13.925 20.0004 12.0833 20.0004C10.2416 20.0004 8.74995 21.4921 8.74995 23.3337C8.74995 25.1754 10.2416 26.6671 12.0833 26.6671ZM13.75 23.3337C13.75 23.7758 13.5744 24.1997 13.2618 24.5123C12.9492 24.8248 12.5253 25.0004 12.0833 25.0004C11.6413 25.0004 11.2173 24.8248 10.9048 24.5123C10.5922 24.1997 10.4166 23.7758 10.4166 23.3337C10.4166 22.8917 10.5922 22.4678 10.9048 22.1552C11.2173 21.8427 11.6413 21.6671 12.0833 21.6671C12.5253 21.6671 12.9492 21.8427 13.2618 22.1552C13.5744 22.4678 13.75 22.8917 13.75 23.3337ZM4.99995 31.8896C4.99995 29.5246 9.71912 28.3337 12.0833 28.3337C14.4475 28.3337 19.1666 29.5254 19.1666 31.8896V35.0004H4.99995V31.8896ZM6.66662 33.3337V31.8896C6.66662 31.8812 6.66662 31.8646 6.68829 31.8229C6.71495 31.7712 6.77579 31.6804 6.90745 31.5587C7.18162 31.3046 7.64079 31.0271 8.27662 30.7712C9.55162 30.2587 11.11 30.0004 12.0833 30.0004C13.0566 30.0004 14.6158 30.2587 15.89 30.7712C16.525 31.0271 16.985 31.3046 17.2591 31.5587C17.3908 31.6804 17.4516 31.7712 17.4783 31.8221C17.5 31.8638 17.5 31.8821 17.5 31.8887V33.3337H6.66662ZM31.25 23.3337C31.25 25.1754 29.7583 26.6671 27.9166 26.6671C26.075 26.6671 24.5833 25.1754 24.5833 23.3337C24.5833 21.4921 26.075 20.0004 27.9166 20.0004C29.7583 20.0004 31.25 21.4921 31.25 23.3337ZM27.9166 25.0004C28.3586 25.0004 28.7826 24.8248 29.0951 24.5123C29.4077 24.1997 29.5833 23.7758 29.5833 23.3337C29.5833 22.8917 29.4077 22.4678 29.0951 22.1552C28.7826 21.8427 28.3586 21.6671 27.9166 21.6671C27.4746 21.6671 27.0507 21.8427 26.7381 22.1552C26.4255 22.4678 26.25 22.8917 26.25 23.3337C26.25 23.7758 26.4255 24.1997 26.7381 24.5123C27.0507 24.8248 27.4746 25.0004 27.9166 25.0004ZM20.8333 31.8896C20.8333 29.5246 25.5525 28.3337 27.9166 28.3337C30.2808 28.3337 35 29.5254 35 31.8896V35.0004H20.8333V31.8896ZM22.5 33.3337V31.8896C22.5 31.8812 22.5 31.8646 22.5216 31.8229C22.5483 31.7712 22.6091 31.6804 22.74 31.5587C23.015 31.3046 23.475 31.0271 24.11 30.7712C25.385 30.2587 26.9433 30.0004 27.9166 30.0004C28.89 30.0004 30.4491 30.2587 31.7233 30.7712C32.3583 31.0271 32.8183 31.3046 33.0933 31.5587C33.2241 31.6804 33.285 31.7712 33.3116 31.8221C33.3333 31.8638 33.3333 31.8821 33.3333 31.8887V33.3337H22.5ZM28 17.9221C28.975 18.2288 29.6666 18.3337 29.6666 18.3337V15.9029H29.965C30.6316 15.9115 31.2932 15.7876 31.9116 15.5384C32.5299 15.2893 33.0926 14.9198 33.567 14.4514C34.0415 13.9831 34.4181 13.4252 34.6752 12.8101C34.9323 12.195 35.0647 11.535 35.0647 10.8683C35.0647 10.2017 34.9323 9.54166 34.6752 8.92657C34.4181 8.31148 34.0415 7.75358 33.567 7.28522C33.0926 6.81687 32.5299 6.44739 31.9116 6.19823C31.2932 5.94906 30.6316 5.82517 29.965 5.83375H26.7016C26.0404 5.83353 25.3855 5.96362 24.7745 6.21657C24.1636 6.46953 23.6084 6.84039 23.1409 7.30798C22.6733 7.77557 22.3024 8.33071 22.0494 8.94168C21.7965 9.55265 21.6664 10.2075 21.6666 10.8688C21.6666 15.2821 25.6558 17.1854 28 17.9221ZM29.965 14.2362H28V16.1637C27.4708 15.9747 26.9566 15.7463 26.4616 15.4804C24.725 14.5379 23.3333 13.1238 23.3333 10.8679C23.3332 10.4256 23.4202 9.98758 23.5895 9.57891C23.7587 9.17024 24.0068 8.79893 24.3197 8.4862C24.6325 8.17346 25.0038 7.92543 25.4125 7.75629C25.8213 7.58714 26.2593 7.5002 26.7016 7.50042H29.965C30.4117 7.49339 30.8554 7.57531 31.2701 7.74141C31.6849 7.90751 32.0625 8.15447 32.3809 8.4679C32.6993 8.78134 32.9522 9.15499 33.1248 9.5671C33.2974 9.97921 33.3863 10.4215 33.3863 10.8683C33.3863 11.3151 33.2974 11.7575 33.1248 12.1696C32.9522 12.5817 32.6993 12.9553 32.3809 13.2688C32.0625 13.5822 31.6849 13.8292 31.2701 13.9953C30.8554 14.1614 30.4117 14.2433 29.965 14.2362Z" fill="white"/>
</svg>
