<svg width="24" height="24" viewBox="0 0 24 24" fill="none" xmlns="http://www.w3.org/2000/svg">
<path d="M2 5.5L8.913 9.417C11.462 10.861 12.538 10.861 15.087 9.417L22 5.5" stroke="white" stroke-width="1.5" stroke-linejoin="round"/>
<path d="M21.9841 12.9761C22.0051 11.9901 22.0051 11.0101 21.9841 10.0241C21.9191 6.95908 21.8861 5.42608 20.7551 4.29108C19.6241 3.15508 18.0501 3.11608 14.9011 3.03708C12.9674 2.98829 11.0327 2.98829 9.09906 3.03708C5.95006 3.11608 4.37606 3.15508 3.24506 4.29108C2.11406 5.42608 2.08106 6.95908 2.01506 10.0241C1.994 11.008 1.994 11.9922 2.01506 12.9761C2.08106 16.0411 2.11406 17.5741 3.24506 18.7091C4.37606 19.8451 5.95006 19.8841 9.09906 19.9631C10.4041 19.9961 11.7001 20.0071 13.0001 19.9961" stroke="white" stroke-width="1.5" stroke-linecap="round" stroke-linejoin="round"/>
<path d="M18.5 14L18.758 14.697C19.096 15.611 19.265 16.068 19.598 16.401C19.932 16.735 20.389 16.904 21.303 17.242L22 17.5L21.303 17.758C20.389 18.096 19.932 18.265 19.599 18.598C19.265 18.932 19.096 19.389 18.758 20.303L18.5 21L18.242 20.303C17.904 19.389 17.735 18.932 17.402 18.599C17.068 18.265 16.611 18.096 15.697 17.758L15 17.5L15.697 17.242C16.611 16.904 17.068 16.735 17.401 16.402C17.735 16.068 17.904 15.611 18.242 14.697L18.5 14Z" stroke="white" stroke-width="1.5" stroke-linejoin="round"/>
</svg>
