<svg width="50" height="50" viewBox="0 0 50 50" fill="none" xmlns="http://www.w3.org/2000/svg">
<path d="M23.9583 12.5C14.6291 12.5 9.96246 12.5 7.06454 14.9417C4.16663 17.3833 4.16663 21.3104 4.16663 29.1667C4.16663 37.0229 4.16663 40.9521 7.06454 43.3917C9.96246 45.8312 14.627 45.8333 23.9583 45.8333C33.2875 45.8333 37.9541 45.8333 40.852 43.3917C43.75 40.95 43.75 37.0229 43.75 29.1667C43.75 26.7292 43.75 24.6708 43.6645 22.9167" stroke="white" stroke-width="3.75" stroke-linecap="round"/>
<path d="M38.5417 4.16699L39.0792 5.61908C39.7833 7.52324 40.1354 8.47533 40.8292 9.16908C41.525 9.86491 42.4771 10.217 44.3812 10.9212L45.8333 11.4587L44.3812 11.9962C42.4771 12.7003 41.525 13.0524 40.8313 13.7462C40.1354 14.442 39.7833 15.3941 39.0792 17.2982L38.5417 18.7503L38.0042 17.2982C37.3 15.3941 36.9479 14.442 36.2542 13.7482C35.5583 13.0524 34.6062 12.7003 32.7021 11.9962L31.25 11.4587L32.7021 10.9212C34.6062 10.217 35.5583 9.86491 36.2521 9.17116C36.9479 8.47533 37.3 7.52324 38.0042 5.61908L38.5417 4.16699Z" stroke="white" stroke-width="3.75" stroke-linejoin="round"/>
<path d="M32.2916 25.0003L34.8478 27.2024C35.9207 28.1295 36.4583 28.592 36.4583 29.167C36.4583 29.742 35.9207 30.2045 34.8478 31.1316L32.2916 33.3337M15.6249 25.0003L13.0687 27.2024C11.9958 28.1295 11.4583 28.592 11.4583 29.167C11.4583 29.742 11.9958 30.2045 13.0687 31.1316L15.6249 33.3337M26.0416 22.917L21.8749 35.417" stroke="white" stroke-width="3.75" stroke-linecap="round" stroke-linejoin="round"/>
</svg>
