<svg width="40" height="40" viewBox="0 0 40 40" fill="none" xmlns="http://www.w3.org/2000/svg">
<path d="M6.66663 21.6597V24.233C6.66663 29.6447 6.66663 32.3497 8.14329 34.183C8.44329 34.5541 8.77829 34.8891 9.14829 35.188C10.9833 36.6663 13.685 36.6663 19.0933 36.6663C20.2683 36.6663 20.8566 36.6663 21.395 36.4763C21.5061 36.4363 21.6155 36.3908 21.7233 36.3397C22.24 36.093 22.655 35.678 23.4866 34.8463L31.38 26.9463C32.345 25.983 32.825 25.5013 33.08 24.888C33.3333 24.2763 33.3333 23.5947 33.3333 22.2313V16.6563C33.3333 10.368 33.3333 7.22301 31.38 5.26967C29.83 3.71634 27.5233 3.39801 23.4866 3.33301M21.6666 35.833V34.9997C21.6666 30.283 21.6666 27.9247 23.1316 26.4597C24.595 24.993 26.9533 24.993 31.6666 24.993H32.5" stroke="white" stroke-width="2.5" stroke-linecap="round" stroke-linejoin="round"/>
<path d="M13.3333 16.288C16.2783 16.288 18.6666 13.8447 18.6666 10.833C18.6666 7.82134 16.2783 5.37801 13.3333 5.37801M13.3333 16.288C10.3883 16.288 7.99996 13.8447 7.99996 10.833C7.99996 7.82134 10.3883 5.37801 13.3333 5.37801M13.3333 16.288V18.333M13.3333 5.37801V3.33301M8.48496 7.85801L6.66829 6.74134M20 14.9247L18.1833 13.808M18.1816 7.85801L19.9983 6.74134M6.66663 14.9247L8.48329 13.808" stroke="white" stroke-width="2.5" stroke-linecap="round"/>
</svg>
