<svg width="50" height="50" viewBox="0 0 50 50" fill="none" xmlns="http://www.w3.org/2000/svg">
<path d="M8.31879 31.2476V14.5101C8.31879 10.5642 8.31879 8.59339 9.53337 7.36631C10.2125 6.68298 11.1209 6.38089 12.4709 6.24756H22.8459M7.27504 33.3621L8.35837 31.2496H41.4271L42.5688 33.3642C45.5646 38.9101 46.3105 41.683 45.173 43.758C44.0334 45.833 41.0146 45.833 34.9792 45.833H14.8646C8.8292 45.833 5.81045 45.833 4.67295 43.758C3.53545 41.683 4.28129 38.9101 7.27712 33.3642" stroke="white" stroke-width="2.5" stroke-linecap="round" stroke-linejoin="round"/>
<path d="M32.1605 4.16859V8.2915M24.923 11.4603H29.1813M41.5751 11.4603H45.8334M41.5751 17.6561H45.8334M24.923 17.6561H29.1813M32.1605 20.8748V24.9998M38.4396 20.8748V24.9998M38.4167 4.1665V8.2915M31.2542 20.7686H39.4959C40.0473 20.7669 40.5756 20.5467 40.965 20.1562C41.3543 19.7657 41.573 19.2367 41.573 18.6853V10.3748C41.573 9.22484 40.6438 8.2915 39.4959 8.2915H31.2542C30.7031 8.29371 30.1754 8.51417 29.7865 8.90464C29.3976 9.2951 29.1792 9.82374 29.1792 10.3748V18.6853C29.1792 19.8353 30.1084 20.7686 31.2542 20.7686Z" stroke="white" stroke-width="2.5" stroke-linecap="round"/>
</svg>
