<svg width="60" height="60" viewBox="0 0 60 60" fill="none" xmlns="http://www.w3.org/2000/svg">
<path d="M43.75 47.5H55M55 47.5L48.75 41.25M55 47.5L48.75 53.75M30 5L23.75 11.25L30 17.5" stroke="white" stroke-width="3.75" stroke-linecap="round" stroke-linejoin="round"/>
<path d="M26.25 11.25C31.2228 11.25 35.9919 13.2254 39.5083 16.7417C43.0246 20.2581 45 25.0272 45 30C45 34.9728 43.0246 39.7419 39.5083 43.2583C35.9919 46.7746 31.2228 48.75 26.25 48.75H5" stroke="white" stroke-width="3.75" stroke-linecap="round" stroke-linejoin="round"/>
<path d="M16.89 13.75C14.0351 15.3948 11.664 17.7628 10.0155 20.6156C8.36704 23.4684 7.49941 26.7052 7.5 30C7.5 34.22 8.895 38.115 11.25 41.25" stroke="white" stroke-width="3.75" stroke-linecap="round" stroke-linejoin="round"/>
</svg>
