<svg width="60" height="60" viewBox="0 0 60 60" fill="none" xmlns="http://www.w3.org/2000/svg">
<path d="M30 7.5H11.25C10.2554 7.5 9.30161 7.89509 8.59835 8.59835C7.89509 9.30161 7.5 10.2554 7.5 11.25V38.75C7.5 39.7446 7.89509 40.6984 8.59835 41.4016C9.30161 42.1049 10.2554 42.5 11.25 42.5H48.75C49.7446 42.5 50.6984 42.1049 51.4016 41.4016C52.1049 40.6984 52.5 39.7446 52.5 38.75V32.5M30 42.5V52.5M17.5 52.5H42.5" stroke="white" stroke-width="4.79167" stroke-linecap="round" stroke-linejoin="round"/>
<path d="M46.25 20C48.3211 20 50 18.3211 50 16.25C50 14.1789 48.3211 12.5 46.25 12.5C44.1789 12.5 42.5 14.1789 42.5 16.25C42.5 18.3211 44.1789 20 46.25 20Z" stroke="white" stroke-width="4.79167"/>
<path d="M46.25 25V20M46.25 12.5V7.5M38.6725 20.625L43.0025 18.125M49.4975 14.375L53.8275 11.875M38.6725 11.875L43.0025 14.375M49.4975 18.125L53.8275 20.625" stroke="white" stroke-width="4.79167" stroke-linecap="round" stroke-linejoin="round"/>
</svg>
