<svg width="40" height="40" viewBox="0 0 40 40" fill="none" xmlns="http://www.w3.org/2000/svg">
<path d="M7.04456 17.0457C4.93474 19.1555 3.74945 22.0171 3.74945 25.0008C3.74945 27.9845 4.93474 30.8461 7.04456 32.9559C9.15437 35.0657 12.0159 36.251 14.9996 36.251C17.9834 36.251 20.8449 35.0657 22.9547 32.9559" stroke="white" stroke-width="2.5" stroke-miterlimit="10"/>
<path d="M12.3485 22.3485C11.6547 23.0537 11.2676 24.0045 11.2717 24.9938C11.2757 25.983 11.6705 26.9306 12.37 27.6302C13.0695 28.3297 14.0171 28.7245 15.0064 28.7285C15.9956 28.7325 16.9464 28.3455 17.6516 27.6517" stroke="white" stroke-width="2.5" stroke-miterlimit="10"/>
<path d="M25 3.75V7.5V3.75ZM32.9547 7.04531L30.3031 9.69687L32.9547 7.04531ZM36.25 15H32.5H36.25Z" fill="white"/>
<path d="M25 3.75V7.5M32.9547 7.04531L30.3031 9.69687M36.25 15H32.5" stroke="white" stroke-width="2.5" stroke-miterlimit="10" stroke-linecap="round"/>
<path d="M17.6515 27.6512L26.4906 18.8129C26.9594 18.3442 27.5952 18.0808 28.2582 18.0808C28.9211 18.0808 29.5569 18.3442 30.0258 18.8129L31.7969 20.5801C32.0291 20.8122 32.2133 21.0879 32.3389 21.3912C32.4646 21.6946 32.5293 22.0197 32.5293 22.348C32.5293 22.6764 32.4646 23.0015 32.3389 23.3049C32.2133 23.6082 32.0291 23.8839 31.7969 24.116L22.9547 32.9551M7.04452 17.0449L15.8836 8.20273C16.1157 7.97053 16.3914 7.78633 16.6947 7.66066C16.9981 7.53498 17.3232 7.4703 17.6515 7.4703C17.9799 7.4703 18.305 7.53498 18.6084 7.66066C18.9117 7.78633 19.1874 7.97053 19.4195 8.20273L21.1867 9.9707C21.4189 10.2029 21.6031 10.4785 21.7288 10.7818C21.8545 11.0852 21.9191 11.4103 21.9191 11.7387C21.9191 12.067 21.8545 12.3922 21.7288 12.6955C21.6031 12.9989 21.4189 13.2745 21.1867 13.5066L12.3484 22.348M29.0937 26.7199L23.7906 21.416M18.4875 16.1129L13.1836 10.8098" stroke="white" stroke-width="2.5" stroke-linejoin="round"/>
</svg>
