<svg width="20" height="20" viewBox="0 0 20 20" fill="none" xmlns="http://www.w3.org/2000/svg">
<path d="M3.78831 3.83071L9.96248 17.0024C9.96589 17.0094 9.97122 17.0154 9.97785 17.0195C9.98448 17.0237 9.99215 17.0259 9.99998 17.0259C10.0078 17.0259 10.0155 17.0237 10.0221 17.0195C10.0287 17.0154 10.0341 17.0094 10.0375 17.0024L16.2125 3.83071C16.216 3.82345 16.2174 3.81531 16.2164 3.80728C16.2154 3.79925 16.2121 3.79168 16.2069 3.78549C16.2017 3.77931 16.1948 3.77477 16.1871 3.77244C16.1793 3.77012 16.1711 3.77009 16.1633 3.77237L10.0108 5.41404H9.98915L3.83665 3.77237C3.82894 3.77031 3.8208 3.7705 3.8132 3.77292C3.8056 3.77534 3.79885 3.77989 3.79376 3.78603C3.78867 3.79218 3.78545 3.79965 3.78449 3.80757C3.78352 3.81549 3.78485 3.82352 3.78831 3.83071Z" stroke="white" stroke-width="1.66667" stroke-linecap="round"/>
<path d="M7.08325 11.25L9.97909 9.595C9.98542 9.59134 9.9926 9.58942 9.99992 9.58942C10.0072 9.58942 10.0144 9.59134 10.0208 9.595L12.9166 11.25" stroke="white" stroke-width="1.66667"/>
</svg>
