<svg width="70" height="70" viewBox="0 0 70 70" fill="none" xmlns="http://www.w3.org/2000/svg">
<path d="M63.875 25.9585L58.9167 28.8752L47.25 8.75016L52.2083 5.8335L63.875 25.9585ZM28.5833 23.0418L37.3333 38.2085L55.125 28.0002L46.375 12.8335L28.5833 23.0418ZM33.25 37.0418L27.4167 26.8335L14.875 34.1252L20.7083 44.3335L33.25 37.0418ZM6.125 42.5835L9.04167 47.5418L16.625 43.1668L13.7083 38.2085L6.125 42.5835ZM35.2917 40.8335L34.4167 39.6668L21.875 46.9585L22.75 48.1252C23.3333 49.0002 24.2083 49.8752 25.0833 50.4585L20.4167 64.1668H26.25L30.3333 51.6252H30.625L35 64.1668H40.8333L35.2917 47.8335C36.75 45.7918 36.75 43.1668 35.2917 40.8335Z" fill="white"/>
</svg>
