<svg width="70" height="70" viewBox="0 0 70 70" fill="none" xmlns="http://www.w3.org/2000/svg">
<path d="M56.875 13.9502V22.3735L64.1667 26.5823V43.4202L56.8721 47.6319L56.875 56.0523L42.2917 64.4727L35 60.2581L27.7084 64.4698L13.125 56.0494V47.629L5.83337 43.4231L5.83629 26.5794L13.125 22.3706V13.9531L27.7084 5.5327L34.9971 9.74437L42.2946 5.52979L56.875 13.9502ZM37.9167 14.796V20.4165H32.0834V14.796L27.7084 12.2702L18.9555 17.319V25.7394L11.6667 29.9481V40.0544L18.9584 44.266V52.6865L27.7084 57.7381L32.0834 55.2094V49.5831H37.9167V55.2123L42.2917 57.7381L51.0417 52.6835V44.266L58.3334 40.0515V29.954L51.0388 25.7394L51.0417 17.319L42.2946 12.2673L37.9167 14.796ZM41.6063 38.3831C41.661 38.246 41.7555 38.1285 41.8777 38.0456C41.9999 37.9628 42.1441 37.9186 42.2917 37.9186C42.4393 37.9186 42.5835 37.9628 42.7057 38.0456C42.8279 38.1285 42.9224 38.246 42.9771 38.3831L43.3475 39.2727C43.9775 40.7923 45.153 42.0085 46.6288 42.6648L47.6759 43.1315C47.8089 43.1938 47.9215 43.2927 48.0003 43.4167C48.0792 43.5406 48.1211 43.6845 48.1211 43.8315C48.1211 43.9784 48.0792 44.1223 48.0003 44.2462C47.9215 44.3702 47.8089 44.4692 47.6759 44.5315L46.5675 45.0273C45.1267 45.669 43.9717 46.8356 43.33 48.3056L42.9713 49.131C42.9148 49.2646 42.8202 49.3785 42.6993 49.4586C42.5785 49.5387 42.4367 49.5814 42.2917 49.5814C42.1467 49.5814 42.0049 49.5387 41.8841 49.4586C41.7632 49.3785 41.6686 49.2646 41.6121 49.131L41.2534 48.3085C40.6226 46.8483 39.4675 45.6776 38.0159 45.0273L36.9075 44.5315C36.7745 44.4692 36.6619 44.3702 36.5831 44.2462C36.5042 44.1223 36.4623 43.9784 36.4623 43.8315C36.4623 43.6845 36.5042 43.5406 36.5831 43.4167C36.6619 43.2927 36.7745 43.1938 36.9075 43.1315L37.9546 42.6648C39.443 41.9969 40.6178 40.7825 41.2359 39.2727L41.6063 38.3831ZM27.965 22.6915C28.0614 22.4516 28.2273 22.2461 28.4415 22.1013C28.6556 21.9565 28.9082 21.8792 29.1667 21.8792C29.4252 21.8792 29.6778 21.9565 29.8919 22.1013C30.1061 22.2461 30.272 22.4516 30.3684 22.6915L31.0159 24.249C32.0972 26.8917 34.1519 29.0185 36.7559 30.1902L38.5875 31.001C39.6375 31.4677 39.6375 32.9931 38.5875 33.4598L36.648 34.3231C34.1095 35.4641 32.0899 37.5138 30.9867 40.069L30.3567 41.5098C30.2588 41.7447 30.0936 41.9454 29.8818 42.0866C29.67 42.2278 29.4212 42.3031 29.1667 42.3031C28.9122 42.3031 28.6634 42.2278 28.4516 42.0866C28.2398 41.9454 28.0746 41.7447 27.9767 41.5098L27.3467 40.066C26.2435 37.5109 24.2239 35.4612 21.6855 34.3202L19.7459 33.4598C19.5108 33.3516 19.3117 33.1783 19.1721 32.9604C19.0325 32.7425 18.9584 32.4892 18.9584 32.2304C18.9584 31.9716 19.0325 31.7183 19.1721 31.5004C19.3117 31.2825 19.5108 31.1092 19.7459 31.001L21.5746 30.1902C24.1808 29.0197 26.2377 26.8928 27.3205 24.249L27.965 22.6915Z" fill="white"/>
</svg>
