<svg width="70" height="70" viewBox="0 0 70 70" fill="none" xmlns="http://www.w3.org/2000/svg">
<path d="M60.4129 23.7067L59.6954 25.3576C59.5832 25.6264 59.3941 25.856 59.1517 26.0175C58.9093 26.179 58.6245 26.2652 58.3333 26.2652C58.042 26.2652 57.7573 26.179 57.5149 26.0175C57.2725 25.856 57.0833 25.6264 56.9712 25.3576L56.2537 23.7067C54.9922 20.7863 52.6819 18.4448 49.7787 17.1442L47.5649 16.1555C47.2964 16.0319 47.0689 15.834 46.9094 15.5851C46.7499 15.3361 46.6651 15.0467 46.6651 14.7511C46.6651 14.4555 46.7499 14.1661 46.9094 13.9171C47.0689 13.6682 47.2964 13.4703 47.5649 13.3467L49.6562 12.4163C52.6324 11.0787 54.9822 8.65055 56.2216 5.63214L56.9595 3.85006C57.0679 3.57401 57.2569 3.33701 57.502 3.16997C57.747 3.00292 58.0367 2.91357 58.3333 2.91357C58.6298 2.91357 58.9195 3.00292 59.1646 3.16997C59.4096 3.33701 59.5987 3.57401 59.707 3.85006L60.445 5.62923C61.683 8.6482 64.0318 11.0774 67.0075 12.4163L69.1016 13.3496C69.3694 13.4735 69.5961 13.6715 69.755 13.9201C69.9138 14.1687 69.9983 14.4575 69.9983 14.7526C69.9983 15.0476 69.9138 15.3365 69.755 15.5851C69.5961 15.8336 69.3694 16.0316 69.1016 16.1555L66.8849 17.1413C63.9823 18.4432 61.6731 20.7858 60.4129 23.7067ZM58.3333 32.0834C60.2874 32.0834 62.1629 31.7626 63.9187 31.1734C64.084 32.4276 64.1666 33.7031 64.1666 35.0001C64.1666 51.1088 51.1087 64.1667 34.9999 64.1667C30.209 64.1735 25.4907 62.9951 21.2654 60.7367L5.83328 64.1667L9.26328 48.7346C7.00487 44.5093 5.82655 39.791 5.83328 35.0001C5.83328 18.8913 18.8912 5.83339 34.9999 5.83339C37.6424 5.83339 40.2004 6.18339 42.6329 6.84256C41.3168 9.51103 40.7027 12.471 40.8489 15.4428C40.995 18.4146 41.8964 21.3001 43.4679 23.8266C45.0395 26.3531 47.2292 28.4371 49.8303 29.8819C52.4314 31.3266 55.3579 32.0843 58.3333 32.0834ZM20.4166 35.0001C20.4166 38.8678 21.9531 42.5771 24.688 45.312C27.4229 48.0469 31.1322 49.5834 34.9999 49.5834C38.8677 49.5834 42.577 48.0469 45.3119 45.312C48.0468 42.5771 49.5833 38.8678 49.5833 35.0001H43.7499C43.7499 37.3207 42.8281 39.5463 41.1871 41.1872C39.5462 42.8282 37.3206 43.7501 34.9999 43.7501C32.6793 43.7501 30.4537 42.8282 28.8128 41.1872C27.1718 39.5463 26.2499 37.3207 26.2499 35.0001H20.4166Z" fill="white"/>
</svg>
