<svg width="70" height="70" viewBox="0 0 70 70" fill="none" xmlns="http://www.w3.org/2000/svg">
<path d="M54.2064 4.4276L14.8313 13.1776C14.2651 13.3052 13.7728 13.6526 13.4626 14.1432C13.1525 14.6339 13.05 15.2276 13.1776 15.7938C13.3052 16.3601 13.6526 16.8524 14.1432 17.1626C14.6339 17.4727 15.2276 17.5752 15.7938 17.4476L17.5001 17.0713V39.3751C17.5001 41.637 19.202 43.4876 21.3938 43.7239L17.5438 63.0089C17.4518 63.5685 17.5807 64.1419 17.9034 64.6083C18.2261 65.0747 18.7172 65.3976 19.2734 65.5088C19.8295 65.62 20.407 65.5109 20.8843 65.2045C21.3615 64.8981 21.7011 64.4183 21.8313 63.8663L22.3695 61.1801C22.5625 61.1412 22.7494 61.0765 22.9251 60.9876L35.0001 54.3988L47.0751 60.9832C47.2501 61.0736 47.4353 61.1393 47.6307 61.1801L48.1688 63.8663C48.2991 64.4183 48.6387 64.8981 49.1159 65.2045C49.5932 65.5109 50.1707 65.62 50.7268 65.5088C51.283 65.3976 51.7741 65.0747 52.0968 64.6083C52.4195 64.1419 52.5484 63.5685 52.4563 63.0089L48.6063 43.7239C49.6769 43.6054 50.666 43.0962 51.3845 42.2938C52.103 41.4914 52.5002 40.4521 52.5001 39.3751V9.28822L55.1688 8.6976C55.7351 8.56996 56.2274 8.22262 56.5376 7.73198C56.8477 7.24133 56.9502 6.64759 56.8226 6.08135C56.695 5.51511 56.3476 5.02277 55.857 4.71263C55.3663 4.40249 54.7726 4.29996 54.2064 4.4276ZM21.8751 21.8751H48.1251V30.6251H21.8751V21.8751ZM25.8563 43.7501H44.1438L44.262 44.3582L35.0001 49.407L25.7382 44.3582L25.8563 43.7501ZM24.8326 48.8514L30.4326 51.9007L23.4632 55.707L24.8326 48.8514ZM45.1676 48.8514L46.537 55.6938L39.5807 51.9007L45.1676 48.8514Z" fill="white"/>
</svg>
