<svg width="32" height="32" viewBox="0 0 32 32" fill="none" xmlns="http://www.w3.org/2000/svg">
<g clip-path="url(#clip0_335_12)">
<path d="M29.0761 24.3802L18.0708 1.00955C17.9346 0.721093 17.7227 0.475061 17.4575 0.297751C17.1924 0.12044 16.884 0.018518 16.5654 0.002879C16.2467 -0.0183319 15.9283 0.0482667 15.6448 0.19543C15.3613 0.342593 15.1235 0.564685 14.9574 0.837546L3.02145 20.1709C2.84091 20.4631 2.74707 20.8005 2.75084 21.144C2.75462 21.4874 2.85586 21.8227 3.04278 22.1109L8.87745 31.1482C9.0986 31.4867 9.42299 31.7449 9.80248 31.8844C10.182 32.024 10.5964 32.0375 10.9841 31.9229L27.9214 26.9135C28.4401 26.7602 28.8641 26.3935 29.0854 25.9069C29.3068 25.4202 29.3041 24.8629 29.0761 24.3802ZM26.6121 25.3829L12.2401 29.6322C12.1405 29.6625 12.0348 29.6665 11.9332 29.6438C11.8316 29.6211 11.7377 29.5724 11.6605 29.5026C11.5833 29.4328 11.5255 29.3442 11.4927 29.2454C11.4599 29.1466 11.4533 29.041 11.4734 28.9389L16.6068 4.35488C16.7028 3.89488 17.3388 3.82155 17.5388 4.24821L27.0441 24.4322C27.0861 24.5222 27.1081 24.6202 27.1086 24.7196C27.109 24.8189 27.0879 24.9171 27.0467 25.0075C27.0055 25.0979 26.9452 25.1782 26.87 25.243C26.7947 25.3079 26.7076 25.3556 26.6121 25.3829Z" fill="white"/>
</g>
<defs>
<clipPath id="clip0_335_12">
<rect width="32" height="32" fill="white"/>
</clipPath>
</defs>
</svg>
