<svg width="50" height="50" viewBox="0 0 50 50" fill="none" xmlns="http://www.w3.org/2000/svg">
<path d="M40.7542 14.5837C40.8661 13.9452 40.8369 13.29 40.6686 12.664C40.5003 12.038 40.1971 11.4565 39.7802 10.9601C39.3633 10.4638 38.8428 10.0648 38.2553 9.79098C37.6677 9.5172 37.0274 9.37533 36.3792 9.37533H13.6209C12.9727 9.37533 12.3323 9.5172 11.7448 9.79098C11.1573 10.0648 10.6368 10.4638 10.2199 10.9601C9.80295 11.4565 9.49972 12.038 9.33146 12.664C9.1632 13.29 9.13398 13.9452 9.24587 14.5837M36.4584 9.37533C36.5167 8.83366 36.5479 8.56491 36.5479 8.34199C36.5502 7.31219 36.171 6.31803 35.4835 5.55129C34.7961 4.78456 33.849 4.29958 32.825 4.18991C32.6042 4.16699 32.3334 4.16699 31.7917 4.16699H18.2084C17.6667 4.16699 17.3938 4.16699 17.1729 4.18991C16.149 4.29958 15.2019 4.78456 14.5145 5.55129C13.827 6.31803 13.4478 7.31219 13.45 8.34199C13.45 8.56491 13.4792 8.83574 13.5396 9.37533" stroke="white" stroke-width="3.75"/>
<path d="M31.25 37.5007H18.75M44.1542 34.9861C43.425 40.1527 43.0605 42.7381 41.1917 44.2861C39.323 45.834 36.5667 45.834 31.0521 45.834H18.948C13.4355 45.834 10.6771 45.834 8.80837 44.2861C6.93962 42.7381 6.57503 40.1548 5.84587 34.9861L4.9667 28.7361C4.03545 22.1444 3.57087 18.8507 5.54587 16.7152C7.52087 14.584 11.0375 14.584 18.0667 14.584H31.9334C38.9625 14.584 42.4792 14.584 44.4542 16.7173C46.0146 18.4027 46.0521 20.8132 45.5396 25.0007" stroke="white" stroke-width="3.75" stroke-linecap="round"/>
</svg>
