<svg width="40" height="40" viewBox="0 0 40 40" fill="none" xmlns="http://www.w3.org/2000/svg">
<path d="M23.6333 7.12651C23.9535 7.21209 24.2266 7.42134 24.3926 7.70826C24.5585 7.99518 24.6038 8.33626 24.5183 8.65651L17.8966 33.3732C17.8106 33.6936 17.6009 33.9668 17.3135 34.1327C17.0261 34.2985 16.6846 34.3433 16.3641 34.2573C16.0436 34.1714 15.7704 33.9616 15.6046 33.6742C15.4388 33.3868 15.394 33.0453 15.4799 32.7248L22.1033 8.00818C22.1458 7.84959 22.2192 7.70094 22.3192 7.57071C22.4192 7.44048 22.5439 7.33123 22.6861 7.2492C22.8284 7.16717 22.9854 7.11397 23.1482 7.09263C23.311 7.07129 23.4764 7.08224 23.6349 7.12485M27.4049 12.2132C27.6267 11.9668 27.9371 11.8186 28.2681 11.8011C28.5991 11.7836 28.9235 11.8982 29.1699 12.1198L32.0649 14.7265C33.2933 15.8298 34.3099 16.7465 35.0099 17.5765C35.7433 18.4515 36.2666 19.3898 36.2666 20.5498C36.2666 21.7082 35.7449 22.6465 35.0099 23.5198C34.3099 24.3515 33.2933 25.2682 32.0649 26.3715L29.1699 28.9782C28.9235 29.2001 28.599 29.315 28.2679 29.2976C27.9367 29.2803 27.626 29.1321 27.4041 28.8857C27.1822 28.6392 27.0673 28.3148 27.0846 27.9836C27.102 27.6524 27.2502 27.3417 27.4966 27.1198L30.3249 24.5748C31.6383 23.3932 32.5233 22.5915 33.0966 21.9115C33.6466 21.2565 33.7666 20.8748 33.7666 20.5482C33.7666 20.2215 33.6466 19.8415 33.0966 19.1865C32.5233 18.5048 31.6383 17.7032 30.3249 16.5232L27.4966 13.9782C27.3744 13.8684 27.275 13.7355 27.2041 13.5873C27.1333 13.439 27.0923 13.2783 27.0837 13.1142C27.075 12.9501 27.0988 12.7859 27.1536 12.631C27.2084 12.4761 27.2933 12.3336 27.4033 12.2115M12.5033 13.9782C12.7497 13.7563 12.8979 13.4456 12.9152 13.1144C12.9326 12.7833 12.8177 12.4588 12.5958 12.2123C12.3739 11.9659 12.0632 11.8177 11.732 11.8004C11.4009 11.783 11.0764 11.8979 10.8299 12.1198L7.93494 14.7265C6.70661 15.8298 5.68994 16.7465 4.98994 17.5765C4.25661 18.4515 3.73328 19.3898 3.73328 20.5498C3.73328 21.7082 4.25494 22.6465 4.98994 23.5198C5.68994 24.3515 6.70661 25.2682 7.93494 26.3715L10.8299 28.9782C11.0764 29.2001 11.4009 29.315 11.732 29.2976C12.0632 29.2803 12.3739 29.1321 12.5958 28.8857C12.8177 28.6392 12.9326 28.3148 12.9152 27.9836C12.8979 27.6524 12.7497 27.3417 12.5033 27.1198L9.67494 24.5748C8.36161 23.3932 7.47661 22.5915 6.90328 21.9115C6.35328 21.2565 6.23328 20.8748 6.23328 20.5482C6.23328 20.2215 6.35328 19.8415 6.90328 19.1865C7.47661 18.5048 8.36161 17.7032 9.67494 16.5232L12.5033 13.9782Z" fill="white"/>
</svg>
