<svg width="40" height="40" viewBox="0 0 40 40" fill="none" xmlns="http://www.w3.org/2000/svg">
<path fill-rule="evenodd" clip-rule="evenodd" d="M26.155 1.28092C21.0133 1.49092 14.5208 2.85008 9.73582 7.63508C4.11915 13.2517 2.96082 21.7042 6.91749 27.6384C5.48832 30.7926 4.58332 34.1226 4.58332 37.5001C4.58332 37.8316 4.71502 38.1495 4.94944 38.384C5.18386 38.6184 5.5018 38.7501 5.83332 38.7501C6.16484 38.7501 6.48278 38.6184 6.7172 38.384C6.95163 38.1495 7.08332 37.8316 7.08332 37.5001C7.08332 34.9242 7.69082 32.3334 8.70999 29.8026L8.71832 29.8109C10.5783 25.2801 13.79 21.0642 17.11 17.5292C22.3017 12.0026 28.01 7.88008 30.14 6.46008C30.4158 6.28053 30.7514 6.21702 31.0738 6.28335C31.3962 6.34967 31.6794 6.54047 31.8619 6.81433C32.0445 7.08819 32.1117 7.42301 32.0489 7.74611C31.9862 8.06921 31.7985 8.35451 31.5267 8.54008C29.4917 9.89758 23.95 13.9001 18.9317 19.2417C15.4683 22.9284 12.3708 27.1334 10.7583 31.4584C13.6333 33.3517 17.0917 34.0526 20.5292 33.6342C19.9044 32.0817 19.5833 30.4236 19.5833 28.7501C19.5833 27.2401 19.6642 25.8951 19.7558 24.8476C19.9575 22.5509 21.5008 20.3109 24.2417 19.9226C25.5875 19.7326 27.55 19.5834 30.4167 19.5834C32.7742 19.5834 34.5192 19.6842 35.8133 19.8259C36.6167 17.1892 36.955 14.5409 37.0525 12.1784C37.137 9.99759 37.0414 7.81351 36.7666 5.64841C36.685 4.99425 36.5844 4.34259 36.465 3.69425C36.4191 3.44787 36.3691 3.20228 36.315 2.95758L36.3142 2.95341V2.95175C36.2609 2.725 36.1455 2.51762 35.9807 2.35301C35.8159 2.18839 35.6084 2.07308 35.3817 2.02008C35.385 2.02008 35.3817 2.02008 35.3817 2.02008C35.1356 1.96392 34.8883 1.91335 34.64 1.86842C33.9911 1.749 33.3389 1.6484 32.6842 1.56675C31.0367 1.35842 28.7425 1.17508 26.155 1.28092ZM22.2467 25.0667C22.3675 23.6901 23.2233 22.5917 24.5917 22.3984C25.79 22.2292 27.63 22.0834 30.4167 22.0834C33.2033 22.0834 35.0433 22.2292 36.2417 22.3984C37.61 22.5917 38.4667 23.6901 38.5875 25.0667C38.6742 26.0559 38.75 27.3276 38.75 28.7501C38.75 32.5117 36.765 36.0317 33.42 37.7534C32.3025 38.3284 31.2117 38.7501 30.4167 38.7501C29.6217 38.7501 28.5308 38.3284 27.4133 37.7534C24.0683 36.0317 22.0833 32.5117 22.0833 28.7501C22.0833 27.3276 22.1592 26.0559 22.2467 25.0667ZM35.2733 25.2084C35.5496 25.3914 35.7419 25.6766 35.808 26.0013C35.8741 26.326 35.8086 26.6637 35.6258 26.9401L31.2142 33.6067C31.1078 33.7676 30.9657 33.9016 30.799 33.9984C30.6323 34.0952 30.4454 34.1521 30.2531 34.1647C30.0607 34.1773 29.868 34.1452 29.6901 34.0709C29.5122 33.9967 29.3539 33.8823 29.2275 33.7367L26.1392 30.1809C25.9252 29.9302 25.819 29.605 25.8435 29.2763C25.8681 28.9476 26.0216 28.6419 26.2704 28.4258C26.5193 28.2096 26.8435 28.1006 27.1724 28.1223C27.5013 28.144 27.8084 28.2948 28.0267 28.5417L30.0367 30.8551L33.5408 25.5601C33.6314 25.4232 33.7481 25.3054 33.8842 25.2136C34.0203 25.1218 34.1732 25.0577 34.334 25.025C34.4949 24.9922 34.6607 24.9915 34.8219 25.0228C34.983 25.0542 35.1364 25.1178 35.2733 25.2084Z" fill="white"/>
</svg>
