<svg width="218" height="38" viewBox="0 0 218 38" fill="none" xmlns="http://www.w3.org/2000/svg">
<path d="M11.28 29.5996C10.5334 29.5996 9.92005 29.3729 9.44005 28.9196C8.96005 28.4396 8.72005 27.8529 8.72005 27.1596V3.95961H13.92V27.1596C13.92 27.8529 13.6667 28.4396 13.16 28.9196C12.68 29.3729 12.0534 29.5996 11.28 29.5996ZM2.44005 6.19961C1.74672 6.19961 1.16005 5.98627 0.680049 5.55961C0.226716 5.13294 4.88758e-05 4.57294 4.88758e-05 3.87961C4.88758e-05 3.18628 0.226716 2.63961 0.680049 2.23961C1.16005 1.81294 1.74672 1.59961 2.44005 1.59961H20.2C20.8934 1.59961 21.4667 1.81294 21.92 2.23961C22.4 2.66627 22.64 3.22627 22.64 3.91961C22.64 4.61294 22.4 5.17294 21.92 5.59961C21.4667 5.99961 20.8934 6.19961 20.2 6.19961H2.44005ZM36.2391 29.9996C34.1858 29.9996 32.3724 29.5596 30.7991 28.6796C29.2258 27.7996 27.9991 26.5729 27.1191 24.9996C26.2391 23.4263 25.7991 21.5863 25.7991 19.4796C25.7991 17.2129 26.2391 15.2796 27.1191 13.6796C28.0258 12.0796 29.1858 10.8529 30.5991 9.99961C32.0391 9.11961 33.5591 8.67961 35.1591 8.67961C36.3324 8.67961 37.4658 8.89294 38.5591 9.31961C39.6791 9.71961 40.6658 10.3329 41.5191 11.1596C42.3991 11.9596 43.0924 12.9463 43.5991 14.1196C44.1324 15.2929 44.4258 16.6529 44.4791 18.1996C44.4524 18.5196 44.3191 18.7996 44.0791 19.0396C43.8391 19.2529 43.5591 19.3596 43.2391 19.3596H27.1991L26.7191 17.1996H42.4791L41.9591 17.6796V16.8796C41.8524 15.6263 41.4524 14.5596 40.7591 13.6796C40.0658 12.7996 39.2258 12.1329 38.2391 11.6796C37.2524 11.2263 36.2258 10.9996 35.1591 10.9996C34.3591 10.9996 33.5324 11.1596 32.6791 11.4796C31.8524 11.7996 31.0924 12.3063 30.3991 12.9996C29.7324 13.6663 29.1858 14.5329 28.7591 15.5996C28.3324 16.6396 28.1191 17.8796 28.1191 19.3196C28.1191 20.8929 28.4391 22.3196 29.0791 23.5996C29.7191 24.8796 30.6391 25.8929 31.8391 26.6396C33.0658 27.3863 34.5191 27.7596 36.1991 27.7596C37.1324 27.7596 37.9724 27.6263 38.7191 27.3596C39.4658 27.0929 40.1191 26.7463 40.6791 26.3196C41.2391 25.8663 41.7058 25.3996 42.0791 24.9196C42.3724 24.6796 42.6658 24.5596 42.9591 24.5596C43.2258 24.5596 43.4524 24.6663 43.6391 24.8796C43.8524 25.0929 43.9591 25.3329 43.9591 25.5996C43.9591 25.9196 43.8258 26.1996 43.5591 26.4396C42.7591 27.3996 41.7191 28.2396 40.4391 28.9596C39.1591 29.6529 37.7591 29.9996 36.2391 29.9996ZM58.6163 8.67961C59.8963 8.67961 61.0696 8.82628 62.1363 9.11961C63.203 9.38627 64.0563 9.75961 64.6963 10.2396C65.363 10.7196 65.6963 11.2396 65.6963 11.7996C65.6963 12.0663 65.603 12.3329 65.4163 12.5996C65.2296 12.8396 64.9763 12.9596 64.6563 12.9596C64.3363 12.9596 64.0696 12.8796 63.8563 12.7196C63.6696 12.5596 63.4696 12.3729 63.2563 12.1596C63.0696 11.9463 62.7896 11.7463 62.4163 11.5596C62.0696 11.3996 61.5763 11.2529 60.9363 11.1196C60.2963 10.9863 59.563 10.9196 58.7363 10.9196C57.243 10.9196 55.8963 11.2929 54.6963 12.0396C53.4963 12.7863 52.5496 13.7996 51.8563 15.0796C51.163 16.3329 50.8163 17.7463 50.8163 19.3196C50.8163 20.9196 51.1496 22.3596 51.8163 23.6396C52.483 24.9196 53.403 25.9329 54.5763 26.6796C55.7496 27.3996 57.123 27.7596 58.6963 27.7596C59.763 27.7596 60.5896 27.6663 61.1763 27.4796C61.763 27.2929 62.2696 27.0796 62.6963 26.8396C63.203 26.5463 63.563 26.2663 63.7763 25.9996C64.0163 25.7063 64.323 25.5596 64.6963 25.5596C65.043 25.5596 65.2963 25.6663 65.4563 25.8796C65.643 26.0663 65.7363 26.3196 65.7363 26.6396C65.7363 27.0663 65.4163 27.5463 64.7763 28.0796C64.163 28.5863 63.3096 29.0396 62.2163 29.4396C61.123 29.8129 59.8696 29.9996 58.4563 29.9996C56.4563 29.9996 54.6963 29.5329 53.1763 28.5996C51.683 27.6663 50.5096 26.3996 49.6563 24.7996C48.8296 23.1729 48.4163 21.3463 48.4163 19.3196C48.4163 17.3729 48.843 15.5996 49.6963 13.9996C50.5496 12.3996 51.7363 11.1196 53.2563 10.1596C54.803 9.17294 56.5896 8.67961 58.6163 8.67961ZM79.6394 8.99961C81.3194 8.99961 82.6794 9.35961 83.7194 10.0796C84.7594 10.7996 85.5194 11.7729 85.9994 12.9996C86.5061 14.2263 86.7594 15.5863 86.7594 17.0796V28.3996C86.7594 28.7196 86.6394 28.9996 86.3994 29.2396C86.1594 29.4796 85.8794 29.5996 85.5594 29.5996C85.1861 29.5996 84.8928 29.4796 84.6794 29.2396C84.4661 28.9996 84.3594 28.7196 84.3594 28.3996V17.0796C84.3594 15.9863 84.1861 14.9996 83.8394 14.1196C83.5194 13.2396 82.9861 12.5463 82.2394 12.0396C81.4928 11.5063 80.4928 11.2396 79.2394 11.2396C78.1194 11.2396 77.0528 11.5063 76.0394 12.0396C75.0528 12.5463 74.2528 13.2396 73.6394 14.1196C73.0261 14.9996 72.7194 15.9863 72.7194 17.0796V28.3996C72.7194 28.7196 72.5994 28.9996 72.3594 29.2396C72.1194 29.4796 71.8394 29.5996 71.5194 29.5996C71.1461 29.5996 70.8528 29.4796 70.6394 29.2396C70.4261 28.9996 70.3194 28.7196 70.3194 28.3996V1.19961C70.3194 0.879607 70.4261 0.599608 70.6394 0.359609C70.8794 0.119609 71.1728 -0.000391006 71.5194 -0.000391006C71.8661 -0.000391006 72.1461 0.119609 72.3594 0.359609C72.5994 0.599608 72.7194 0.879607 72.7194 1.19961V14.1596L71.7994 15.5596C71.8528 14.7329 72.1061 13.9329 72.5594 13.1596C73.0394 12.3596 73.6528 11.6529 74.3994 11.0396C75.1461 10.3996 75.9728 9.90627 76.8794 9.55961C77.7861 9.18627 78.7061 8.99961 79.6394 8.99961ZM93.3738 18.2796C93.0538 18.2796 92.7738 18.1596 92.5338 17.9196C92.3205 17.6796 92.2138 17.3863 92.2138 17.0396C92.2138 16.7196 92.3205 16.4529 92.5338 16.2396C92.7738 15.9996 93.0538 15.8796 93.3738 15.8796H102.014C102.334 15.8796 102.614 15.9996 102.854 16.2396C103.094 16.4796 103.214 16.7729 103.214 17.1196C103.214 17.4396 103.094 17.7196 102.854 17.9596C102.614 18.1729 102.334 18.2796 102.014 18.2796H93.3738Z" fill="white"/>
<path d="M106.84 26.2796C106.573 25.9063 106.453 25.4263 106.48 24.8396C106.506 24.2529 106.853 23.7463 107.52 23.3196C107.946 23.0529 108.4 22.9463 108.88 22.9996C109.36 23.0263 109.826 23.2663 110.28 23.7196C111.053 24.4929 111.866 25.0929 112.72 25.5196C113.573 25.9463 114.64 26.1596 115.92 26.1596C116.32 26.1329 116.76 26.0796 117.24 25.9996C117.72 25.8929 118.133 25.6796 118.48 25.3596C118.853 25.0129 119.04 24.4929 119.04 23.7996C119.04 23.2129 118.84 22.7463 118.44 22.3996C118.04 22.0529 117.506 21.7596 116.84 21.5196C116.2 21.2796 115.48 21.0529 114.68 20.8396C113.853 20.5996 113 20.3329 112.12 20.0396C111.266 19.7463 110.48 19.3729 109.76 18.9196C109.04 18.4396 108.453 17.8129 108 17.0396C107.546 16.2663 107.32 15.2929 107.32 14.1196C107.32 12.7863 107.693 11.6529 108.44 10.7196C109.186 9.78627 110.146 9.06627 111.32 8.55961C112.52 8.05294 113.773 7.79961 115.08 7.79961C115.906 7.79961 116.773 7.90628 117.68 8.11961C118.586 8.30628 119.453 8.62628 120.28 9.07961C121.106 9.50628 121.8 10.0796 122.36 10.7996C122.653 11.1996 122.826 11.6796 122.88 12.2396C122.933 12.7996 122.68 13.3063 122.12 13.7596C121.72 14.0796 121.253 14.2263 120.72 14.1996C120.186 14.1463 119.746 13.9596 119.4 13.6396C118.946 13.0529 118.333 12.5863 117.56 12.2396C116.813 11.8929 115.946 11.7196 114.96 11.7196C114.56 11.7196 114.12 11.7729 113.64 11.8796C113.186 11.9596 112.786 12.1596 112.44 12.4796C112.093 12.7729 111.92 13.2529 111.92 13.9196C111.92 14.5329 112.12 15.0263 112.52 15.3996C112.92 15.7463 113.453 16.0396 114.12 16.2796C114.813 16.4929 115.546 16.7063 116.32 16.9196C117.12 17.1329 117.933 17.3863 118.76 17.6796C119.586 17.9729 120.346 18.3596 121.04 18.8396C121.733 19.3196 122.293 19.9463 122.72 20.7196C123.146 21.4663 123.36 22.4263 123.36 23.5996C123.36 24.9596 122.96 26.1196 122.16 27.0796C121.36 28.0396 120.36 28.7729 119.16 29.2796C117.96 29.7596 116.733 29.9996 115.48 29.9996C113.906 29.9996 112.333 29.7329 110.76 29.1996C109.186 28.6396 107.88 27.6663 106.84 26.2796ZM145.209 7.79961C145.902 7.79961 146.476 8.02628 146.929 8.47961C147.382 8.93294 147.609 9.51961 147.609 10.2396V27.1596C147.609 27.8529 147.382 28.4396 146.929 28.9196C146.476 29.3729 145.902 29.5996 145.209 29.5996C144.516 29.5996 143.942 29.3729 143.489 28.9196C143.036 28.4396 142.809 27.8529 142.809 27.1596V25.1996L143.689 25.5596C143.689 25.9063 143.502 26.3329 143.129 26.8396C142.756 27.3196 142.249 27.7996 141.609 28.2796C140.969 28.7596 140.209 29.1729 139.329 29.5196C138.476 29.8396 137.542 29.9996 136.529 29.9996C134.689 29.9996 133.022 29.5329 131.529 28.5996C130.036 27.6396 128.849 26.3329 127.969 24.6796C127.116 22.9996 126.689 21.0796 126.689 18.9196C126.689 16.7329 127.116 14.8129 127.969 13.1596C128.849 11.4796 130.022 10.1729 131.489 9.23961C132.956 8.27961 134.582 7.79961 136.369 7.79961C137.516 7.79961 138.569 7.97294 139.529 8.31961C140.489 8.66627 141.316 9.10627 142.009 9.63961C142.729 10.1729 143.276 10.7196 143.649 11.2796C144.049 11.8129 144.249 12.2663 144.249 12.6396L142.809 13.1596V10.2396C142.809 9.54627 143.036 8.97294 143.489 8.51961C143.942 8.03961 144.516 7.79961 145.209 7.79961ZM137.129 25.5996C138.302 25.5996 139.329 25.3063 140.209 24.7196C141.089 24.1329 141.769 23.3329 142.249 22.3196C142.756 21.3063 143.009 20.1729 143.009 18.9196C143.009 17.6396 142.756 16.4929 142.249 15.4796C141.769 14.4663 141.089 13.6663 140.209 13.0796C139.329 12.4929 138.302 12.1996 137.129 12.1996C135.982 12.1996 134.969 12.4929 134.089 13.0796C133.209 13.6663 132.516 14.4663 132.009 15.4796C131.529 16.4929 131.289 17.6396 131.289 18.9196C131.289 20.1729 131.529 21.3063 132.009 22.3196C132.516 23.3329 133.209 24.1329 134.089 24.7196C134.969 25.3063 135.982 25.5996 137.129 25.5996Z" fill="#828282"/>
<path d="M153.298 8.19961C153.804 8.19961 154.271 8.33294 154.698 8.59961C155.124 8.83961 155.444 9.21294 155.658 9.71961L161.538 23.1596L160.658 23.5596L166.658 9.75961C167.111 8.69294 167.818 8.18628 168.778 8.23961C169.444 8.23961 169.978 8.45294 170.378 8.87961C170.804 9.27961 171.018 9.78628 171.018 10.3996C171.018 10.5863 170.978 10.7863 170.898 10.9996C170.844 11.2129 170.778 11.4129 170.698 11.5996L163.218 28.0796C162.791 29.0396 162.111 29.5463 161.178 29.5996C160.671 29.6796 160.178 29.5863 159.698 29.3196C159.244 29.0529 158.898 28.6396 158.658 28.0796L151.218 11.5996C151.164 11.4663 151.098 11.2929 151.018 11.0796C150.964 10.8663 150.938 10.6129 150.938 10.3196C150.938 9.83961 151.151 9.37294 151.578 8.91961C152.004 8.43961 152.578 8.19961 153.298 8.19961ZM177.751 8.19961C178.257 8.19961 178.724 8.33294 179.151 8.59961C179.577 8.83961 179.897 9.21294 180.111 9.71961L185.991 23.1596L185.111 23.5596L191.111 9.75961C191.564 8.69294 192.271 8.18628 193.231 8.23961C193.897 8.23961 194.431 8.45294 194.831 8.87961C195.257 9.27961 195.471 9.78628 195.471 10.3996C195.471 10.5863 195.431 10.7863 195.351 10.9996C195.297 11.2129 195.231 11.4129 195.151 11.5996L187.671 28.0796C187.244 29.0396 186.564 29.5463 185.631 29.5996C185.124 29.6796 184.631 29.5863 184.151 29.3196C183.697 29.0529 183.351 28.6396 183.111 28.0796L175.671 11.5996C175.617 11.4663 175.551 11.2929 175.471 11.0796C175.417 10.8663 175.391 10.6129 175.391 10.3196C175.391 9.83961 175.604 9.37294 176.031 8.91961C176.457 8.43961 177.031 8.19961 177.751 8.19961ZM215.132 8.19961C215.825 8.19961 216.398 8.43961 216.852 8.91961C217.305 9.37294 217.532 9.94628 217.532 10.6396V27.6396C217.532 30.0929 217.065 32.0396 216.132 33.4796C215.225 34.9463 213.998 35.9996 212.452 36.6396C210.905 37.2796 209.172 37.5996 207.252 37.5996C206.398 37.5996 205.492 37.5329 204.532 37.3996C203.572 37.2663 202.785 37.0663 202.172 36.7996C201.372 36.4529 200.812 36.0129 200.492 35.4796C200.198 34.9729 200.145 34.4263 200.332 33.8396C200.572 33.0663 200.958 32.5329 201.492 32.2396C202.025 31.9729 202.585 31.9463 203.172 32.1596C203.598 32.2929 204.158 32.4929 204.852 32.7596C205.545 33.0529 206.345 33.1996 207.252 33.1996C208.478 33.1996 209.492 33.0263 210.292 32.6796C211.118 32.3596 211.732 31.7996 212.132 30.9996C212.558 30.2263 212.772 29.1596 212.772 27.7996V25.1196L213.612 26.0796C213.158 26.9596 212.585 27.6929 211.892 28.2796C211.225 28.8396 210.425 29.2663 209.492 29.5596C208.558 29.8529 207.492 29.9996 206.292 29.9996C204.878 29.9996 203.638 29.6796 202.572 29.0396C201.532 28.3729 200.718 27.4663 200.132 26.3196C199.545 25.1463 199.252 23.8129 199.252 22.3196V10.6396C199.252 9.94628 199.478 9.37294 199.932 8.91961C200.385 8.43961 200.958 8.19961 201.652 8.19961C202.345 8.19961 202.918 8.43961 203.372 8.91961C203.825 9.37294 204.052 9.94628 204.052 10.6396V20.8796C204.052 22.6129 204.425 23.8396 205.172 24.5596C205.945 25.2529 207.012 25.5996 208.372 25.5996C209.305 25.5996 210.092 25.4263 210.732 25.0796C211.372 24.7063 211.865 24.1729 212.212 23.4796C212.558 22.7596 212.732 21.8929 212.732 20.8796V10.6396C212.732 9.94628 212.958 9.37294 213.412 8.91961C213.865 8.43961 214.438 8.19961 215.132 8.19961Z" fill="#FF6600"/>
</svg>
