<svg width="40" height="40" viewBox="0 0 40 40" fill="none" xmlns="http://www.w3.org/2000/svg">
<path d="M11.6533 24.1698C11.2113 24.1698 10.7874 24.3454 10.4748 24.658C10.1623 24.9706 9.98666 25.3945 9.98666 25.8365V28.8065C7.83819 26.3773 6.65258 23.2461 6.65333 20.0032C6.65138 19.513 6.68032 19.0231 6.74 18.5365C6.7718 18.3167 6.75933 18.0927 6.70332 17.8777C6.64731 17.6627 6.54889 17.4611 6.41385 17.2848C6.27881 17.1084 6.10987 16.9608 5.91697 16.8506C5.72406 16.7405 5.51109 16.67 5.29055 16.6433C5.07002 16.6167 4.84638 16.6343 4.63278 16.6954C4.41918 16.7564 4.21993 16.8594 4.04674 16.9986C3.87356 17.1377 3.72993 17.31 3.6243 17.5054C3.51867 17.7009 3.45318 17.9154 3.43166 18.1365C3.35566 18.7558 3.31836 19.3792 3.32 20.0032C3.32168 23.9803 4.75117 27.8246 7.34833 30.8365H4.98666C4.54464 30.8365 4.12071 31.0121 3.80815 31.3247C3.49559 31.6372 3.32 32.0612 3.32 32.5032C3.32 32.9452 3.49559 33.3691 3.80815 33.6817C4.12071 33.9943 4.54464 34.1698 4.98666 34.1698H11.6533C11.914 34.1667 12.1702 34.1013 12.4004 33.9789C12.6306 33.8566 12.8282 33.6809 12.9767 33.4665L13.0383 33.3948C13.05 33.3782 13.05 33.3582 13.06 33.3415C13.1387 33.2071 13.1982 33.0624 13.2367 32.9115C13.2613 32.8264 13.2792 32.7395 13.29 32.6515C13.295 32.6015 13.32 32.5565 13.32 32.5032V25.8365C13.32 25.3945 13.1444 24.9706 12.8318 24.658C12.5193 24.3454 12.0954 24.1698 11.6533 24.1698ZM14.1533 10.0032H11.1817C13.6113 7.85433 16.7431 6.66869 19.9867 6.66985C20.4769 6.66845 20.9668 6.69795 21.4533 6.75818C21.8925 6.81123 22.3347 6.68764 22.6828 6.41462C23.0308 6.1416 23.2561 5.74151 23.3092 5.30235C23.3622 4.8632 23.2386 4.42096 22.9656 4.07292C22.6926 3.72489 22.2925 3.49956 21.8533 3.44652C21.234 3.37107 20.6106 3.33433 19.9867 3.33652C16.0096 3.3382 12.1653 4.76769 9.15333 7.36485V5.00318C9.15333 4.56116 8.97774 4.13723 8.66518 3.82467C8.35261 3.51211 7.92869 3.33652 7.48666 3.33652C7.04464 3.33652 6.62071 3.51211 6.30815 3.82467C5.99559 4.13723 5.82 4.56116 5.82 5.00318V11.6699C5.83081 11.7801 5.85259 11.8889 5.885 11.9949C5.92641 12.2001 6.00613 12.3958 6.12 12.5715L6.14 12.5999C6.25066 12.7591 6.38828 12.8979 6.54666 13.0099C6.565 13.0232 6.575 13.0432 6.59333 13.0565C6.61666 13.0732 6.64333 13.0782 6.66833 13.0915C6.76344 13.148 6.86393 13.1949 6.96833 13.2315C7.10874 13.2802 7.25504 13.3099 7.40333 13.3199C7.43333 13.3199 7.45666 13.3365 7.48666 13.3365H14.1533C14.5954 13.3365 15.0193 13.1609 15.3318 12.8484C15.6444 12.5358 15.82 12.1119 15.82 11.6699C15.82 11.2278 15.6444 10.8039 15.3318 10.4913C15.0193 10.1788 14.5954 10.0032 14.1533 10.0032ZM34.0867 28.0098C34.0451 27.8051 33.9653 27.6101 33.8517 27.4349L33.8333 27.4065C33.7222 27.2471 33.584 27.1083 33.425 26.9965C33.4067 26.9832 33.3983 26.9632 33.3783 26.9499C33.3617 26.9382 33.34 26.9382 33.3217 26.9265C33.1095 26.8102 32.8779 26.7334 32.6383 26.6999C32.585 26.6949 32.54 26.6699 32.4867 26.6699H25.82C25.378 26.6699 24.954 26.8454 24.6415 27.158C24.3289 27.4706 24.1533 27.8945 24.1533 28.3365C24.1533 28.7785 24.3289 29.2025 24.6415 29.515C24.954 29.8276 25.378 30.0032 25.82 30.0032H28.79C26.3608 32.1517 23.2296 33.3373 19.9867 33.3365C19.4964 33.3374 19.0065 33.3073 18.52 33.2465C18.0808 33.1935 17.6386 33.3171 17.2906 33.5901C16.9425 33.8631 16.7172 34.2632 16.6642 34.7023C16.6111 35.1415 16.7347 35.5837 17.0077 35.9318C17.2807 36.2798 17.6808 36.5051 18.12 36.5582C18.7393 36.6342 19.3627 36.6715 19.9867 36.6698C23.9637 36.6682 27.808 35.2387 30.82 32.6415V35.0032C30.82 35.4452 30.9956 35.8691 31.3082 36.1817C31.6207 36.4943 32.0446 36.6698 32.4867 36.6698C32.9287 36.6698 33.3526 36.4943 33.6652 36.1817C33.9777 35.8691 34.1533 35.4452 34.1533 35.0032V28.3365C34.142 28.2262 34.1196 28.1157 34.0867 28.0098ZM34.9867 9.16985C35.4287 9.16985 35.8526 8.99426 36.1652 8.6817C36.4777 8.36914 36.6533 7.94521 36.6533 7.50318C36.6533 7.06116 36.4777 6.63723 36.1652 6.32467C35.8526 6.01211 35.4287 5.83652 34.9867 5.83652H28.32C28.2115 5.84766 28.1043 5.86943 28 5.90152L27.9883 5.90318C27.7866 5.94527 27.5945 6.02438 27.4217 6.13652L27.3883 6.15818C27.2296 6.269 27.0915 6.40661 26.98 6.56485C26.9667 6.58152 26.9467 6.59152 26.9333 6.60985C26.9217 6.62652 26.9217 6.64818 26.91 6.66652C26.7932 6.88024 26.7163 7.11352 26.6833 7.35485C26.6783 7.40485 26.6533 7.44985 26.6533 7.50318V14.1699C26.6533 14.6119 26.8289 15.0358 27.1415 15.3484C27.454 15.6609 27.878 15.8365 28.32 15.8365C28.762 15.8365 29.1859 15.6609 29.4985 15.3484C29.8111 15.0358 29.9867 14.6119 29.9867 14.1699V11.1982C32.1342 13.6286 33.3196 16.7599 33.32 20.0032C33.3214 20.4934 33.2919 20.9833 33.2317 21.4699C33.1785 21.9085 33.3017 22.3504 33.5743 22.6983C33.8468 23.0461 34.2463 23.2715 34.685 23.3249C34.7525 23.3329 34.8204 23.3368 34.8883 23.3365C35.2952 23.3358 35.6878 23.1863 35.992 22.9161C36.2963 22.6459 36.4912 22.2738 36.54 21.8699C36.6166 21.2506 36.6544 20.6272 36.6533 20.0032C36.6516 16.0261 35.2222 12.1818 32.625 9.16985H34.9867Z" fill="white"/>
</svg>
