<svg width="25" height="25" viewBox="0 0 25 25" fill="none" xmlns="http://www.w3.org/2000/svg">
<path d="M12.5 24.9544C12.1437 24.9544 11.8125 24.8617 11.5031 24.7013L8.34788 22.8909C7.87392 22.6388 8.11142 22.5471 8.25413 22.5013C8.89371 22.295 9.01246 22.2492 9.67704 21.8815C9.74788 21.8356 9.84371 21.8586 9.91454 21.9044L12.3343 23.3034C12.4281 23.3492 12.5479 23.3492 12.6187 23.3034L22.0843 18.0075C22.1781 17.9617 22.226 17.87 22.226 17.7554V7.18669C22.226 7.07211 22.1791 6.98044 22.0843 6.93461L12.6187 1.66273C12.5239 1.6169 12.4052 1.6169 12.3343 1.66273L2.86871 6.93461C2.77392 6.98044 2.726 7.09502 2.726 7.18669V17.7554C2.726 17.8471 2.77392 17.9617 2.86871 18.0075L5.45413 19.4523C6.85413 20.1398 7.73121 19.3377 7.73121 18.5356V8.1044C7.73121 7.9669 7.84996 7.8294 8.01663 7.8294H9.226C9.36871 7.8294 9.51038 7.94398 9.51038 8.1044V18.5346C9.51038 20.3461 8.49058 21.4002 6.71142 21.4002C6.16558 21.4002 5.7385 21.4002 4.52913 20.8273L2.0385 19.4523C1.73859 19.287 1.48815 19.0448 1.31294 18.7506C1.13772 18.4564 1.04407 18.1208 1.04163 17.7784V7.20961C1.04163 6.52211 1.42079 5.88044 2.0385 5.53669L11.5041 0.239816C11.8124 0.0821919 12.1537 0 12.5 0C12.8462 0 13.1875 0.0821919 13.4958 0.239816L22.9625 5.53565C23.5791 5.8794 23.9583 6.52107 23.9583 7.20857V17.7773C23.9583 18.4648 23.5791 19.1065 22.9625 19.4513L13.4968 24.7461C13.1822 24.8825 12.8429 24.9527 12.5 24.9523M15.4177 17.6846C11.2666 17.6846 10.4125 15.8513 10.4125 14.2919C10.4125 14.1544 10.5312 14.0169 10.6968 14.0169H11.9302C12.0729 14.0169 12.1906 14.1086 12.1906 14.2461C12.3812 15.4606 12.927 16.0565 15.4416 16.0565C17.4343 16.0565 18.2885 15.6211 18.2885 14.5898C18.2885 13.994 18.051 13.5586 14.9437 13.2606C12.3573 13.0075 10.7448 12.4586 10.7448 10.4638C10.7448 8.60648 12.3573 7.50544 15.0625 7.50544C18.0989 7.50544 19.5937 8.51482 19.7833 10.7159C19.781 10.7903 19.7559 10.8623 19.7114 10.9221C19.6645 10.9679 19.5937 11.0138 19.5218 11.0138H18.2885C18.2286 11.0123 18.1708 10.9914 18.1238 10.9542C18.0768 10.917 18.0432 10.8655 18.0281 10.8075C17.7427 9.54711 17.0073 9.13356 15.0625 9.13356C12.8791 9.13356 12.6187 9.8669 12.6187 10.4179C12.6187 11.0825 12.927 11.2888 15.8687 11.6554C18.7864 12.0221 20.1625 12.5492 20.1625 14.52C20.1385 16.5388 18.4312 17.6846 15.4177 17.6846Z" fill="white"/>
</svg>
