<svg width="25" height="25" viewBox="0 0 25 25" fill="none" xmlns="http://www.w3.org/2000/svg">
<g clip-path="url(#clip0_293_432)">
<path d="M2.94746 8.13281H4.31465V14.4615C3.61348 14.5947 3.09844 14.648 2.53926 14.648C0.870117 14.648 0 13.8934 0 12.4461C0 11.0523 0.923437 10.1469 2.35273 10.1469C2.57461 10.1469 2.74336 10.1645 2.94746 10.2178V8.13281ZM2.94746 11.3184C2.78769 11.2652 2.65449 11.2475 2.48594 11.2475C1.79336 11.2475 1.39395 11.6736 1.39395 12.4193C1.39395 13.1473 1.77559 13.5469 2.47695 13.5469C2.62793 13.5469 2.75234 13.5379 2.94766 13.5113L2.94746 11.3184Z" fill="white"/>
<path d="M6.48967 10.2442V13.4138C6.48967 14.5056 6.40979 15.0294 6.17014 15.4821C5.94807 15.9175 5.6551 16.1925 5.05139 16.4944L3.78186 15.8907C4.38557 15.6065 4.67834 15.3581 4.86487 14.9763C5.06018 14.5856 5.12268 14.1329 5.12268 12.9431V10.2442H6.48967ZM5.12249 8.14014H6.48967V9.54287H5.12249V8.14014ZM7.31565 10.555C7.91917 10.271 8.49631 10.1468 9.12678 10.1468C9.82795 10.1468 10.2897 10.3331 10.494 10.6972C10.6092 10.9013 10.6448 11.1677 10.6448 11.7358V14.5146C10.0323 14.6034 9.25998 14.6655 8.69163 14.6655C7.54651 14.6655 7.03147 14.2659 7.03147 13.3782C7.03147 12.4192 7.71506 11.9755 9.39299 11.8333V11.5315C9.39299 11.2829 9.26877 11.1942 8.92248 11.1942C8.41663 11.1942 7.84827 11.3362 7.31545 11.6116L7.31565 10.555ZM9.4551 12.7302C8.54963 12.8188 8.25666 12.961 8.25666 13.3161C8.25666 13.5823 8.42542 13.7067 8.79827 13.7067C9.00237 13.7067 9.18889 13.6892 9.4551 13.6446V12.7302ZM11.311 10.4573C12.1188 10.2444 12.7846 10.1468 13.4594 10.1468C14.1608 10.1468 14.6668 10.3063 14.9688 10.6173C15.253 10.9103 15.3416 11.2296 15.3416 11.9134V14.5944H13.9744V11.9669C13.9744 11.4431 13.7967 11.2478 13.3084 11.2478C13.1221 11.2478 12.9535 11.2653 12.6782 11.3454V14.5946H11.311V10.4573ZM15.8729 15.3401C16.3524 15.5888 16.8317 15.7042 17.3377 15.7042C18.2342 15.7042 18.616 15.3401 18.616 14.47V14.4435C18.3498 14.5767 18.0834 14.63 17.7283 14.63C16.5297 14.63 15.7662 13.8397 15.7662 12.588C15.7662 11.0343 16.8938 10.1554 18.8912 10.1554C19.4772 10.1554 20.0188 10.2175 20.6758 10.3507L20.2076 11.337C19.8436 11.2659 20.1783 11.3272 19.9033 11.3007V11.4429L19.9209 12.0198L19.9299 12.7655C19.9389 12.9521 19.9389 13.1386 19.9477 13.3249V13.698C19.9477 14.8698 19.85 15.42 19.5571 15.8728C19.1309 16.5388 18.3942 16.8673 17.3465 16.8673C16.8137 16.8673 16.3524 16.7872 15.8727 16.6009V15.3399L15.8729 15.3401ZM18.5897 11.2562H18.4475C18.1813 11.2474 17.8705 11.3183 17.6573 11.4515C17.3289 11.638 17.1602 11.9753 17.1602 12.4548C17.1602 13.1384 17.4975 13.529 18.1012 13.529C18.2877 13.529 18.4387 13.4935 18.616 13.4403V12.9696C18.616 12.8101 18.6073 12.6323 18.6073 12.446L18.5985 11.8157L18.5895 11.3628V11.2563L18.5897 11.2562ZM22.7983 10.129C24.1655 10.129 25 10.9901 25 12.3839C25 13.8134 24.1301 14.7101 22.7449 14.7101C21.3778 14.7101 20.5344 13.8487 20.5344 12.464C20.5344 11.0255 21.4045 10.129 22.7983 10.129ZM22.7715 13.6091C23.2953 13.6091 23.6063 13.1739 23.6063 12.4194C23.6063 11.6737 23.3043 11.2298 22.7807 11.2298C22.2389 11.2298 21.9282 11.6649 21.9282 12.4192C21.9282 13.1741 22.2389 13.6091 22.7715 13.6091Z" fill="white"/>
</g>
<defs>
<clipPath id="clip0_293_432">
<rect width="25" height="25" fill="white"/>
</clipPath>
</defs>
</svg>
