<svg width="25" height="25" viewBox="0 0 25 25" fill="none" xmlns="http://www.w3.org/2000/svg">
<g clip-path="url(#clip0_293_486)">
<path d="M16.7969 23.125C16.7969 23.0664 16.8164 23.0078 16.7969 22.9492C16.7578 22.8906 16.7383 22.8516 16.6992 22.8125C16.6016 22.6953 16.5039 22.5977 16.3867 22.4805L15.2344 21.3086L16.1328 20.3906L16.6211 19.8633C16.6992 19.7852 16.7969 19.6289 16.7969 19.5117V19.4336C16.7969 19.2578 16.7188 19.1602 16.543 19.1211L16.582 19.1406H16.4453C16.3281 19.1406 15.9961 19.4531 15.918 19.5508C15.625 19.8438 15.4297 20.1172 15.0391 20.4102V18.0859C15.0391 17.8711 14.9219 17.7734 14.707 17.7734H14.6484C14.4336 17.7734 14.2578 17.8711 14.2578 18.0859V23.1445C14.2578 23.3594 14.4336 23.4375 14.6484 23.4375H14.707C14.9219 23.4375 15.0391 23.3398 15.0391 23.1445V22.2461L15.625 22.8125C15.8008 22.9883 15.9766 23.1055 16.1328 23.2617C16.2109 23.3398 16.3672 23.4375 16.4844 23.4375H16.543C16.7383 23.4375 16.7969 23.3398 16.8359 23.1836L16.7969 23.2031V23.125ZM24.4336 19.1406H24.3555C23.9258 19.1406 23.5352 19.2578 23.1836 19.5117C22.5977 19.9414 22.2656 20.5078 22.2656 21.25V23.1641C22.2656 23.3789 22.3438 23.4375 22.5586 23.4375H22.6172C22.832 23.4375 23.0469 23.3594 23.0469 23.1641V21.3672C23.0469 20.9766 23.125 20.6055 23.418 20.3125C23.6523 20.0781 23.9453 19.8828 24.2773 19.8828C24.5312 19.8828 24.8242 19.8242 24.8242 19.5117C24.8242 19.2773 24.6484 19.1406 24.4336 19.1406ZM21.4258 20.1172C21.2109 19.7656 20.918 19.4922 20.5469 19.3164C19.8633 18.9844 19.1406 18.9453 18.4766 19.3359L18.3789 19.3945C18.1055 19.5508 17.8711 19.7461 17.6953 20C17.1875 20.7422 17.1289 21.582 17.5781 22.3633L17.6172 22.4414C17.8125 22.7734 18.0664 23.0469 18.3984 23.2227C19.1016 23.6133 19.8633 23.6523 20.5664 23.2617L20.625 23.2227C20.8203 23.1055 20.8594 22.9102 20.7617 22.7148C20.7227 22.6367 20.6445 22.5781 20.5664 22.5391H20.5273C20.3906 22.5195 20.0195 22.6758 19.8828 22.7344C19.6094 22.7734 19.2969 22.793 19.0234 22.6953L20.5078 21.4062C20.7227 21.2109 20.957 20.9961 21.1914 20.8203C21.3867 20.6641 21.582 20.4492 21.4258 20.1758V20.1172ZM20.0781 20.8203L18.418 22.2461C18.3594 22.1875 18.3203 22.1094 18.2812 22.0508C18.1641 21.8555 18.0859 21.6211 18.0859 21.3867C18.0664 20.8008 18.2812 20.3125 18.8086 20.0195C19.1992 19.7852 19.6289 19.7461 20.0586 19.9023C20.2734 19.9805 20.5273 20.1172 20.6641 20.3125C20.4688 20.4883 20.2539 20.6445 20.0781 20.8203ZM4.29688 17.7734H4.23828C4.02344 17.7734 3.90625 17.8516 3.90625 18.0664V19.6484C3.51562 19.2969 3.04688 19.1602 2.5 19.1602H2.34375C1.97266 19.1602 1.62109 19.2188 1.28906 19.4141C0.585938 19.8242 0.195312 20.4297 0.195312 21.25V21.4062C0.195312 21.7773 0.292969 22.0898 0.488281 22.4219C0.898438 23.125 1.54297 23.4766 2.34375 23.4766H2.5C2.87109 23.4766 3.26172 23.418 3.57422 23.2422C4.27734 22.832 4.6875 22.2266 4.6875 21.4258V18.1055C4.6875 17.8516 4.51172 17.7734 4.29688 17.7734ZM3.69141 22.0312C3.39844 22.5195 2.96875 22.793 2.40234 22.793C2.16797 22.793 1.93359 22.7344 1.73828 22.6172C1.23047 22.3438 0.9375 21.8945 0.9375 21.3086C0.9375 21.0938 0.976562 20.8984 1.07422 20.7031C1.34766 20.1367 1.79687 19.8242 2.42188 19.8242C2.73438 19.8242 3.00781 19.9219 3.24219 20.0977C3.65234 20.3906 3.88672 20.7812 3.88672 21.2891C3.90625 21.5625 3.82812 21.7969 3.69141 22.0312ZM7.34375 19.1406H7.22656C6.85547 19.1406 6.48438 19.1992 6.17188 19.3945C5.46875 19.8047 5.07812 20.4102 5.07812 21.2305V21.3867C5.07812 21.7578 5.17578 22.0703 5.37109 22.4023C5.78125 23.1055 6.42578 23.457 7.24609 23.457H7.40234C7.77344 23.457 8.14453 23.3984 8.47656 23.2227C9.17969 22.8125 9.58984 22.207 9.58984 21.4062V21.25C9.58984 20.8984 9.47266 20.6055 9.31641 20.3125C8.88672 19.5312 8.20312 19.1406 7.34375 19.1406ZM8.59375 22.0312C8.30078 22.5 7.89062 22.793 7.32422 22.793C7.07031 22.793 6.81641 22.7344 6.58203 22.5977C6.09375 22.3047 5.82031 21.8945 5.82031 21.3281C5.82031 21.1133 5.85938 20.918 5.95703 20.7227C6.23047 20.1562 6.67969 19.8438 7.30469 19.8438C7.59766 19.8438 7.85156 19.9219 8.08594 20.0781C8.51562 20.3711 8.76953 20.7812 8.76953 21.3086C8.78906 21.543 8.73047 21.7969 8.59375 22.0312ZM13.3789 19.4141L13.3594 19.4336C13.0273 19.2188 12.6562 19.1406 12.2656 19.1406H12.1094C11.7383 19.1406 11.3672 19.1992 11.0547 19.3945C10.3516 19.8047 9.96094 20.4102 9.96094 21.2109V21.3672C9.96094 21.5625 10 21.7383 10.0391 21.9336C10.3516 23.0078 11.1914 23.6133 12.3242 23.5352C12.6367 23.5156 13.4766 23.418 13.4766 22.9492V22.8711C13.4766 22.6953 13.3398 22.5391 13.1836 22.5L13.1641 22.4609H13.0273L12.9883 22.5195C12.8125 22.5977 12.5195 22.7539 12.3242 22.7539C12.0898 22.7539 11.8359 22.7539 11.6211 22.6367C11.0547 22.3633 10.7227 21.9141 10.7227 21.2891C10.7227 21.0742 10.7617 20.8789 10.8594 20.6836C11.1328 20.1367 11.582 19.7852 12.207 19.8047C12.3242 19.8047 12.5391 19.8633 12.6563 19.9219C12.7539 19.9609 13.0078 20.1172 13.125 20.1172H13.1641L13.1836 20.0781C13.3594 20.0391 13.4961 19.9023 13.4961 19.7266V19.6484C13.4961 19.5703 13.457 19.5117 13.418 19.4531L13.3789 19.4141ZM1.13281 13.3203L1.15234 13.3594C2.69531 15.9766 5.39062 17.0703 8.33984 17.0703C14.043 17.0703 18.75 14.5117 20.8984 9.14062C22.3438 9.21875 23.8281 8.78906 24.5312 7.40234L24.707 7.05078L24.3555 6.85547C23.5156 6.36719 22.4023 6.30859 21.4648 6.58203C21.3477 5.56641 20.6836 4.6875 19.9023 4.0625L19.5898 3.80859L19.3359 4.12109C18.8086 4.72656 18.6523 5.74219 18.7305 6.52344C18.7891 7.08984 18.9648 7.67578 19.3164 8.14453C19.043 8.30078 18.75 8.51562 18.4766 8.61328C17.9297 8.80859 17.3242 9.00391 16.7383 9.00391H15.4297V6.25H12.8906V1.36719H9.96094V3.71094H5.07812V6.25H2.53906V8.98438H0.351562L0.3125 9.27734C0.214844 10.5273 0.371094 11.7383 0.898438 12.8906L1.13281 13.3203ZM12.8906 6.83594H15.0391V8.98438H12.8906V6.83594ZM10.3516 1.75781H12.5V3.90625H10.3516V1.75781ZM10.3516 4.29688H12.5V6.44531H10.3516V4.29688ZM10.3516 6.83594H12.5V8.98438H10.3516V6.83594ZM7.8125 4.29688H9.96094V6.44531H7.8125V4.29688ZM7.8125 6.83594H9.96094V8.98438H7.8125V6.83594ZM8.02734 12.9297C8.02734 13.2617 7.75391 13.5352 7.42188 13.5352C7.08984 13.5352 6.81641 13.2617 6.81641 12.9297C6.81641 12.5977 7.08984 12.3242 7.42188 12.3242C7.75391 12.3438 8.02734 12.5977 8.02734 12.9297ZM5.46875 4.29688H7.42188V6.44531H5.46875V4.29688ZM5.46875 6.83594H7.42188V8.98438H5.46875V6.83594ZM2.92969 6.83594H5.07812V8.98438H2.92969V6.83594ZM3.39844 14.2578C3.71094 14.2578 4.02344 14.2578 4.31641 14.2383C5.07812 14.1992 5.74219 14.1016 6.28906 13.9453C6.73828 14.9805 7.55859 15.9375 9.02344 16.6406L8.33984 16.6602C5.25391 16.6406 3.59375 15.6055 2.22656 14.2383C2.63672 14.2578 3.02734 14.2578 3.39844 14.2578ZM7.42188 13.3594C7.65625 13.3594 7.85156 13.1641 7.85156 12.9297C7.85156 12.8711 7.83203 12.8125 7.8125 12.7734C7.77344 12.832 7.73438 12.8711 7.65625 12.8711C7.55859 12.8711 7.48047 12.793 7.48047 12.6953C7.48047 12.6367 7.51953 12.5781 7.55859 12.5391C7.53906 12.5195 7.48047 12.5 7.42188 12.5C7.1875 12.5 6.99219 12.6953 6.99219 12.9297C7.01172 13.1641 7.1875 13.3594 7.42188 13.3594Z" fill="white"/>
</g>
<defs>
<clipPath id="clip0_293_486">
<rect width="25" height="25" fill="white"/>
</clipPath>
</defs>
</svg>
