<svg width="25" height="25" viewBox="0 0 25 25" fill="none" xmlns="http://www.w3.org/2000/svg">
<path fill-rule="evenodd" clip-rule="evenodd" d="M22.524 11.5728L13.4271 2.47485C13.1753 2.22391 12.8342 2.08301 12.4787 2.08301C12.1232 2.08301 11.7821 2.22391 11.5303 2.47485L9.64173 4.36547L12.0376 6.76131C12.32 6.66551 12.6238 6.65091 12.9141 6.71918C13.2045 6.78744 13.4699 6.93583 13.6801 7.14745C13.8903 7.35908 14.0369 7.62546 14.1033 7.91629C14.1696 8.20711 14.153 8.51071 14.0553 8.79256L16.3646 11.1019C16.7097 10.9833 17.0851 10.9866 17.4281 11.1111C17.7711 11.2357 18.061 11.474 18.2496 11.7864C18.4382 12.0988 18.514 12.4664 18.4644 12.8279C18.4148 13.1895 18.2428 13.5231 17.9771 13.7732C17.7114 14.0233 17.368 14.1748 17.0041 14.2024C16.6402 14.23 16.2779 14.132 15.9775 13.9249C15.6771 13.7177 15.4567 13.4139 15.3532 13.064C15.2496 12.714 15.2691 12.3392 15.4084 12.0019L13.2542 9.84777V15.5155C13.5815 15.6774 13.8434 15.9467 13.9963 16.2783C14.1491 16.61 14.1837 16.984 14.0942 17.3381C14.0047 17.6921 13.7966 18.0048 13.5045 18.224C13.2124 18.4432 12.854 18.5556 12.489 18.5426C12.1241 18.5295 11.7746 18.3918 11.4989 18.1524C11.2232 17.9129 11.0379 17.5862 10.9739 17.2266C10.9099 16.8671 10.971 16.4965 11.1471 16.1766C11.3233 15.8567 11.6037 15.6068 11.9417 15.4686V9.74985C11.7466 9.67021 11.5692 9.55266 11.4198 9.40401C11.2705 9.25536 11.1521 9.07856 11.0715 8.88384C10.9908 8.68912 10.9497 8.48035 10.9503 8.26961C10.9509 8.05887 10.9933 7.85034 11.0751 7.6561L8.7136 5.29256L2.4761 11.529C2.22484 11.7809 2.08374 12.1222 2.08374 12.478C2.08374 12.8338 2.22484 13.175 2.4761 13.4269L11.573 22.5228C11.8248 22.7737 12.1659 22.9146 12.5214 22.9146C12.8769 22.9146 13.218 22.7737 13.4699 22.5228L22.524 13.4686C22.7753 13.2167 22.9164 12.8754 22.9164 12.5196C22.9164 12.1639 22.7753 11.8226 22.524 11.5707" fill="white"/>
</svg>
