<svg width="25" height="25" viewBox="0 0 25 25" fill="none" xmlns="http://www.w3.org/2000/svg">
<path d="M3.56254 12.5002C3.56254 11.2085 3.84379 9.97933 4.33337 8.85433L8.60421 20.5418C7.09192 19.8121 5.81641 18.6702 4.92449 17.2476C4.03256 15.8249 3.56047 14.1793 3.56254 12.5002ZM18.5313 12.0522C18.5313 12.8127 18.2292 13.6981 17.8542 14.9377L16.9584 17.9168L13.7292 8.3335L14.75 8.22933C15.2396 8.16683 15.1771 7.4585 14.698 7.48975C14.698 7.48975 13.25 7.60433 12.3125 7.60433L9.95837 7.48975C9.47921 7.4585 9.42712 8.19808 9.89587 8.22933L10.8438 8.3335L12.2396 12.1252L10.2813 17.9897L7.02087 8.3335L8.05212 8.22933C8.53129 8.16683 8.46879 7.4585 7.98962 7.48975C7.98962 7.48975 6.54171 7.60433 5.60421 7.60433L5.03129 7.59391C6.63546 5.16683 9.37504 3.56266 12.5 3.56266C14.823 3.56266 16.948 4.4585 18.5313 5.90641H18.4167C17.5417 5.90641 16.9167 6.66683 16.9167 7.48975C16.9167 8.22933 17.3438 8.85433 17.7917 9.5835C18.1355 10.1772 18.5313 10.9377 18.5313 12.0522ZM12.6563 13.2814L15.4063 20.8022L15.4688 20.9272C14.5417 21.2606 13.5417 21.4377 12.5 21.4377C11.625 21.4377 10.7813 21.3127 9.97921 21.0731L12.6563 13.2814ZM20.3438 8.2085C21.0639 9.52414 21.4401 11.0003 21.4375 12.5002C21.4375 15.7918 19.6459 18.6772 16.9896 20.2189L19.7188 12.3335C20.2292 11.0627 20.4063 10.0418 20.4063 9.13558L20.3438 8.2085ZM12.5 2.0835C13.868 2.0835 15.2225 2.35293 16.4863 2.87642C17.7501 3.3999 18.8985 4.16719 19.8657 5.13447C20.833 6.10174 21.6003 7.25007 22.1238 8.51388C22.6473 9.77768 22.9167 11.1322 22.9167 12.5002C22.9167 15.2628 21.8192 17.9124 19.8657 19.8659C17.9122 21.8194 15.2627 22.9168 12.5 22.9168C11.1321 22.9168 9.77756 22.6474 8.51375 22.1239C7.24995 21.6004 6.10162 20.8331 5.13435 19.8659C3.18084 17.9124 2.08337 15.2628 2.08337 12.5002C2.08337 9.73749 3.18084 7.08797 5.13435 5.13447C7.08785 3.18096 9.73737 2.0835 12.5 2.0835ZM12.5 22.4377C17.9792 22.4377 22.4375 17.9793 22.4375 12.5002C22.4375 7.021 17.9792 2.56266 12.5 2.56266C7.02087 2.56266 2.56254 7.021 2.56254 12.5002C2.56254 17.9793 7.02087 22.4377 12.5 22.4377Z" fill="white"/>
</svg>
