<svg width="25" height="25" viewBox="0 0 25 25" fill="none" xmlns="http://www.w3.org/2000/svg">
<path d="M12.4999 7.81266H7.81242M7.81242 7.81266H6.227C5.38638 7.81266 4.52596 8.0085 4.00825 8.671C3.45617 9.37829 2.8645 10.5825 2.8645 12.5002C2.8645 14.4168 3.45617 15.622 4.00825 16.3293C4.52596 16.9918 5.38638 17.1877 6.227 17.1877H7.81242M7.81242 7.81266V6.22725C7.81242 5.38662 8.00825 4.5262 8.67075 4.0085C9.37804 3.45641 10.5822 2.86475 12.4999 2.86475C14.4166 2.86475 15.6218 3.45641 16.3291 4.0085C16.9916 4.5262 17.1874 5.38662 17.1874 6.22725V7.81266M12.4999 17.1877H17.1874M17.1874 17.1877H18.7718C19.6124 17.1877 20.4739 16.9918 20.9905 16.3293C21.5437 15.622 22.1353 14.4179 22.1353 12.5002C22.1353 10.5835 21.5437 9.37829 20.9916 8.671C20.4739 8.0085 19.6124 7.81266 18.7728 7.81266H17.1874M17.1874 17.1877V18.772C17.1874 19.6127 16.9916 20.4741 16.3291 20.9908C15.6218 21.5439 14.4176 22.1356 12.4999 22.1356C10.5833 22.1356 9.37804 21.5439 8.67075 20.9918C8.00825 20.4741 7.81242 19.6127 7.81242 18.7731V17.1877M17.1874 7.81266V10.4168C17.1874 10.9694 16.9679 11.4993 16.5772 11.89C16.1865 12.2807 15.6566 12.5002 15.1041 12.5002H9.89575C9.34322 12.5002 8.81331 12.7197 8.42261 13.1104C8.03191 13.5011 7.81242 14.031 7.81242 14.5835V17.1877" stroke="white" stroke-width="1.5625" stroke-linecap="round" stroke-linejoin="round"/>
<path d="M15.625 19.2712C15.625 19.4784 15.5427 19.6771 15.3962 19.8236C15.2497 19.9701 15.051 20.0524 14.8438 20.0524C14.6365 20.0524 14.4378 19.9701 14.2913 19.8236C14.1448 19.6771 14.0625 19.4784 14.0625 19.2712C14.0625 19.064 14.1448 18.8652 14.2913 18.7187C14.4378 18.5722 14.6365 18.4899 14.8438 18.4899C15.051 18.4899 15.2497 18.5722 15.3962 18.7187C15.5427 18.8652 15.625 19.064 15.625 19.2712ZM9.375 5.72949C9.375 5.52229 9.45731 5.32358 9.60382 5.17706C9.75034 5.03055 9.94905 4.94824 10.1562 4.94824C10.3635 4.94824 10.5622 5.03055 10.7087 5.17706C10.8552 5.32358 10.9375 5.52229 10.9375 5.72949C10.9375 5.93669 10.8552 6.13541 10.7087 6.28192C10.5622 6.42843 10.3635 6.51074 10.1562 6.51074C9.94905 6.51074 9.75034 6.42843 9.60382 6.28192C9.45731 6.13541 9.375 5.93669 9.375 5.72949Z" fill="white"/>
</svg>
