<svg width="25" height="25" viewBox="0 0 25 25" fill="none" xmlns="http://www.w3.org/2000/svg">
<g clip-path="url(#clip0_293_504)">
<path d="M8.70834 2.26234C8.5975 2.08184 8.44262 1.93247 8.25822 1.82825C8.07383 1.72403 7.86598 1.66837 7.65418 1.6665H1.25001C0.918489 1.6665 0.600546 1.7982 0.366126 2.03262C0.131705 2.26704 9.31035e-06 2.58498 9.31035e-06 2.9165C-0.000900043 3.15215 0.0648211 3.38326 0.189593 3.58317L12.2729 22.7498C12.3864 22.9282 12.543 23.075 12.7283 23.1767C12.9135 23.2784 13.1215 23.3317 13.3328 23.3317C13.5442 23.3317 13.7521 23.2784 13.9374 23.1767C14.1226 23.075 14.2793 22.9282 14.3927 22.7498L17.5958 17.6728C17.7191 17.4722 17.7847 17.2415 17.7854 17.0061C17.7867 16.7697 17.721 16.5378 17.5958 16.3373L8.70834 2.26234ZM19.4886 11.304C19.602 11.4823 19.7586 11.6291 19.9439 11.7308C20.1292 11.8326 20.3371 11.8859 20.5484 11.8859C20.7598 11.8859 20.9677 11.8326 21.153 11.7308C21.3383 11.6291 21.4949 11.4823 21.6083 11.304L22.7083 9.56025L24.8094 6.22692C24.9345 6.02712 25.0006 5.79601 25 5.56025C24.9989 5.32473 24.933 5.09407 24.8094 4.89359L23.1427 2.26234C23.0314 2.08144 22.8758 1.9319 22.6906 1.82783C22.5054 1.72376 22.2968 1.6686 22.0844 1.66755H15.6802C15.516 1.66741 15.3533 1.69964 15.2015 1.7624C15.0498 1.82515 14.9118 1.91721 14.7957 2.03329C14.6795 2.14938 14.5873 2.28723 14.5244 2.43895C14.4615 2.59068 14.4292 2.75331 14.4292 2.91755C14.4265 3.15432 14.4947 3.38649 14.625 3.58421L19.4886 11.304Z" fill="white"/>
</g>
<defs>
<clipPath id="clip0_293_504">
<rect width="25" height="25" fill="white"/>
</clipPath>
</defs>
</svg>
