<svg width="25" height="25" viewBox="0 0 25 25" fill="none" xmlns="http://www.w3.org/2000/svg">
<g clip-path="url(#clip0_293_514)">
<path d="M19.1406 0H5.85938C2.62333 0 0 2.62333 0 5.85938V19.1406C0 22.3767 2.62333 25 5.85938 25H19.1406C22.3767 25 25 22.3767 25 19.1406V5.85938C25 2.62333 22.3767 0 19.1406 0Z" fill="#F4F2ED"/>
<mask id="mask0_293_514" style="mask-type:luminance" maskUnits="userSpaceOnUse" x="5" y="2" width="15" height="21">
<path d="M5.46875 2.73438H19.6164V22.2656H5.46875V2.73438Z" fill="white"/>
</mask>
<g mask="url(#mask0_293_514)">
<path fill-rule="evenodd" clip-rule="evenodd" d="M19.3752 12.1509C19.3752 16.0187 16.3097 19.1542 12.5283 19.1542C8.74685 19.1542 5.68152 16.0187 5.68152 12.1509C5.68152 8.28311 8.74695 5.14746 12.5283 5.14746C16.3096 5.14746 19.3752 8.28301 19.3752 12.1509Z" fill="#A9A9A9"/>
<path d="M5.96057 13.8854C5.96057 13.8854 5.46487 6.58203 12.1944 6.37334L11.7248 5.59082L8.07327 6.8168L7.02991 8.0166L6.11702 9.76426L5.59534 11.7987L5.75178 13.1551" fill="#A9A9A9"/>
<path d="M7.83887 7.37324C6.6375 8.60244 5.89414 10.2996 5.89414 12.1771C5.89414 14.0541 6.6375 15.7514 7.83877 16.9804C9.04072 18.2093 10.6971 18.9676 12.5282 18.9676C14.3594 18.9676 16.0159 18.2093 17.2177 16.9804C18.4189 15.7514 19.1625 14.0541 19.1625 12.1771C19.1625 10.2996 18.4189 8.60244 17.2177 7.37334C16.0159 6.14463 14.3595 5.38633 12.5282 5.38613C10.6971 5.38633 9.04072 6.14463 7.83877 7.37334M7.53467 17.2777C6.25801 15.972 5.46875 14.1675 5.46875 12.1771C5.46875 10.1862 6.25801 8.38193 7.53477 7.07617C8.81113 5.77021 10.578 4.96074 12.5282 4.96094C14.4785 4.96074 16.2455 5.77021 17.5217 7.07617C18.7985 8.38193 19.5879 10.1864 19.5878 12.1771C19.5879 14.1675 18.7985 15.972 17.5217 17.2776C16.2455 18.5835 14.4785 19.393 12.5282 19.393C10.578 19.393 8.81113 18.5835 7.53477 17.2776" fill="#231F20"/>
<path fill-rule="evenodd" clip-rule="evenodd" d="M15.4106 12.1899L14.3671 12.3464L12.9586 12.5029L12.0457 12.5289L11.1589 12.5029L10.4807 12.2942L9.88071 11.6422L9.41128 10.3119L9.30688 10.0249L8.68091 9.81631L8.31567 9.21641L8.05493 8.35566L8.34185 7.59922L9.01997 7.36445L9.56782 7.62529L9.82866 8.19912L10.1416 8.14697L10.2459 8.0166L10.1416 7.4166L10.1155 6.66016L10.272 5.61689L10.2659 5.0209L10.7416 4.26055L11.5762 3.66064L13.0369 3.03467L14.6541 3.26934L16.0625 4.28662L16.7147 5.32998L17.132 6.08643L17.2363 7.96436L16.9233 9.58154L16.3495 11.0161L15.8017 11.7726" fill="white"/>
<path fill-rule="evenodd" clip-rule="evenodd" d="M14.5237 16.7022L10.7937 16.8588V17.4848L11.1067 19.6758L10.9502 19.8584L8.34182 18.9715L8.1592 18.6585L7.89846 15.7111L7.29856 13.9375L7.16809 13.5201L9.25471 12.0855L9.90686 11.8247L10.4807 12.5289L10.9763 12.9724L11.5501 13.155L11.811 13.2332L12.124 14.5896L12.3587 14.8765L12.9586 14.6678L12.5412 15.4764L14.8106 16.5458L14.5237 16.7022Z" fill="#1B1B1B"/>
<path fill-rule="evenodd" clip-rule="evenodd" d="M8.34185 7.59893L9.01997 7.36416L9.56782 7.625L9.82866 8.19883L10.1417 8.14668L10.2199 7.83359L10.0634 7.23379L10.2199 5.79922L10.0894 5.0166L10.5589 4.46885L11.5762 3.66025L11.2893 3.26904L9.85464 3.97334L9.25474 4.44277L8.91567 5.17314L8.39399 5.87734L8.23755 6.71211L8.34185 7.59893Z" fill="#6D6B6D"/>
<path fill-rule="evenodd" clip-rule="evenodd" d="M9.41118 5.14728C9.41118 5.14728 9.80249 4.18225 11.3675 3.71271C12.9326 3.24318 11.4458 3.37355 11.4458 3.37355L9.75044 4.0257L9.09829 4.67775L8.81138 5.19953L9.41118 5.14728ZM8.62876 7.41652C8.62876 7.41652 8.08101 5.59064 10.1677 5.3299L10.0894 5.01682L8.65483 5.35598L8.23755 6.71232L8.34194 7.59904L8.62876 7.41652Z" fill="#DCD9D8"/>
<path fill-rule="evenodd" clip-rule="evenodd" d="M9.46338 9.84201L9.80488 9.51105C9.80488 9.51105 9.95908 9.52902 9.98506 9.71154C10.0111 9.89426 10.0894 11.5374 11.2109 12.4243C11.3133 12.5053 10.3764 12.2939 10.3764 12.2939L9.5416 10.9897M14.2629 9.3465C14.2629 9.3465 14.3237 8.55578 14.5366 8.61662C14.7495 8.67746 14.7495 8.89035 14.7495 8.89035C14.7495 8.89035 14.2324 9.22492 14.2629 9.3465Z" fill="white"/>
<path d="M16.4277 6.45117C16.4277 6.45117 15.9978 6.54199 15.9582 6.9207C15.9186 7.29951 16.4277 6.99893 16.506 6.97285M13.2716 6.47734C13.2716 6.47734 12.6978 6.55557 12.6978 6.9207C12.6978 7.28594 13.3499 7.25986 13.5324 7.10332" fill="white"/>
<path fill-rule="evenodd" clip-rule="evenodd" d="M9.72422 8.17299C9.72422 8.17299 8.73301 7.57309 8.62871 8.14692C8.52441 8.72075 8.28955 9.13813 8.78516 9.73803L8.44609 9.63373L8.13311 8.82514L8.02881 8.04262L8.62871 7.41664L9.30684 7.46879L9.69814 7.78178L9.72422 8.17299ZM10.1938 6.52973C10.1938 6.52973 10.6371 4.23442 12.8804 3.79096C14.7271 3.42592 15.6973 3.86928 16.0625 4.28657C16.0625 4.28657 14.4192 2.33041 12.8542 2.93022C11.2893 3.53022 10.1416 4.62573 10.1677 5.32993C10.2121 6.52934 10.1938 6.52973 10.1938 6.52973ZM16.2451 4.54741C16.2451 4.54741 15.4888 4.52133 15.4626 5.19955C15.4626 5.19955 15.4626 5.30385 15.5147 5.40815C15.5147 5.40815 16.1147 4.72993 16.4799 5.09516" fill="white"/>
<path fill-rule="evenodd" clip-rule="evenodd" d="M12.9329 5.47893C12.9329 5.47893 12.8027 4.43792 11.9152 5.04309C11.3414 5.4343 11.3936 5.98206 11.4978 6.08645C11.6022 6.19075 11.5738 6.4009 11.6533 6.25667C11.7326 6.11243 11.7065 5.64299 11.9935 5.51252C12.2804 5.38215 12.7508 5.23655 12.9329 5.47893Z" fill="white"/>
<path fill-rule="evenodd" clip-rule="evenodd" d="M10.4807 12.5285L8.02893 13.624C8.02893 13.624 9.04612 17.667 8.52444 18.919L8.1592 18.7887L8.13313 17.2497L7.4551 14.3284L7.16809 13.5197L9.72424 11.7983L10.4807 12.5285ZM10.7327 14.7647L11.0806 15.1892V16.7541H10.6632C10.6632 16.7541 10.6112 15.6587 10.6112 15.5282C10.6112 15.3978 10.6632 14.9282 10.6632 14.9282M10.7415 16.9889L9.5677 17.041L9.90686 17.2758L10.7415 17.4062" fill="#474747"/>
<path fill-rule="evenodd" clip-rule="evenodd" d="M14.7584 16.7282L15.7235 16.7021L15.9582 19.1019L14.967 19.2322L14.7584 16.7282Z" fill="#1B1B1B"/>
<path fill-rule="evenodd" clip-rule="evenodd" d="M15.0192 16.728L16.4799 16.6498C16.4799 16.6498 17.0798 15.1369 17.0798 15.0587C17.0798 14.9805 17.6015 12.8677 17.6015 12.8677L16.4277 11.6418L16.193 11.4331L15.5669 12.0592V14.4849L15.0192 16.728Z" fill="#1B1B1B"/>
<path fill-rule="evenodd" clip-rule="evenodd" d="M15.6712 16.5454L14.7584 16.728L14.8888 17.4584C15.2279 17.6149 15.8017 17.1976 15.8017 17.1976M15.6974 11.9809L17.5233 13.3372L17.5754 12.7112L16.193 11.4331L15.6974 11.9809Z" fill="#474747"/>
<path fill-rule="evenodd" clip-rule="evenodd" d="M11.6467 21.8667L11.1067 19.6754L10.8381 18.0585L10.7937 16.8584L13.2378 16.7282L14.7584 16.728L14.6202 19.467L14.8549 21.5798L14.8289 21.971L12.8465 22.1275L11.6467 21.8667Z" fill="white"/>
<path fill-rule="evenodd" clip-rule="evenodd" d="M14.4192 16.702C14.4192 16.702 14.2888 19.4146 14.6802 21.3447C14.6802 21.3447 13.8976 21.8404 12.7499 21.9708L14.9409 21.8925L15.2017 21.736L14.8887 17.4584L14.8105 16.5454" fill="#DCD9D8"/>
<path fill-rule="evenodd" clip-rule="evenodd" d="M16.0026 18.8933L17.0199 18.6063L18.95 18.5021L19.2369 17.6152L18.7152 16.0763L18.1154 15.998L17.2806 16.2589L16.4798 16.6499L16.0547 16.5719L15.7234 16.7021" fill="white"/>
<path fill-rule="evenodd" clip-rule="evenodd" d="M15.9843 18.3714C15.9843 18.3714 16.6624 18.0584 16.7668 18.0845L16.4799 16.6499L16.8189 16.5195C16.8189 16.5195 17.0537 17.8758 17.0537 18.0323C17.0537 18.0323 18.5143 18.1105 18.6447 18.1105C18.6447 18.1105 18.9577 17.5106 18.8795 16.8846L19.1664 17.7193L19.1925 18.1888L18.7752 18.8148L18.3056 18.9191L17.5232 18.8931L17.2624 18.554L16.3494 18.6844L16.0625 18.7888" fill="#DCD9D8"/>
<path d="M14.9593 16.5196L14.3854 15.059L13.7855 14.1981C13.7855 14.1981 13.9159 13.833 14.0985 13.833H14.6984L15.2722 14.0417L15.2201 15.0067L14.9593 16.5196Z" fill="white"/>
<path fill-rule="evenodd" clip-rule="evenodd" d="M15.0714 16.0239C15.0714 16.0239 14.341 14.6155 14.341 14.4068C14.341 14.4068 14.4714 14.0938 14.654 14.1721C14.8366 14.2503 15.2279 14.459 15.2279 14.459V13.9634L14.341 13.7808L13.7411 13.859L14.7584 16.2587L14.967 16.2849" fill="#DCD9D8"/>
<path d="M11.8815 12.5812L11.1589 12.5026L10.4807 12.2939V12.5286L10.8121 12.894L11.8554 13.3636" fill="white"/>
<path fill-rule="evenodd" clip-rule="evenodd" d="M10.7155 12.6597C10.7155 12.6597 11.5241 12.9987 11.785 12.9205L11.8109 13.2332L11.0807 13.0771L10.6372 12.7641L10.7155 12.6597Z" fill="#DCD9D8"/>
<path fill-rule="evenodd" clip-rule="evenodd" d="M15.9998 13.922C15.5573 13.909 15.1573 13.8565 14.8073 13.7577C14.8311 13.6142 14.7865 13.4733 14.8223 13.3699C14.9199 13.2997 15.0834 13.3008 15.231 13.2843C15.1034 13.2216 14.9242 13.1968 14.777 13.233C14.7736 13.1334 14.7289 13.0717 14.7018 12.9938C14.9506 12.9049 15.5381 12.3227 15.8685 12.5154C16.026 12.6071 16.0929 13.131 16.1051 13.3857C16.1153 13.597 16.0859 13.8101 15.9998 13.922Z" fill="#A9A9A9"/>
<path d="M15.9998 13.922C15.5573 13.909 15.1573 13.8565 14.8073 13.7577C14.8311 13.6142 14.7865 13.4733 14.8223 13.3699C14.9199 13.2997 15.0834 13.3008 15.231 13.2843C15.1034 13.2216 14.9242 13.1968 14.777 13.233C14.7736 13.1334 14.7289 13.0717 14.7018 12.9938C14.9506 12.9049 15.5381 12.3227 15.8685 12.5154C16.026 12.6071 16.0929 13.131 16.1051 13.3857C16.1153 13.597 16.0859 13.8101 15.9998 13.922Z" stroke="#A9A9A9" stroke-width="0.167578"/>
<path fill-rule="evenodd" clip-rule="evenodd" d="M13.8834 13.1987L13.8795 13.2997C13.7413 13.3905 13.5182 13.3893 13.3665 13.4657C13.5901 13.4755 13.7661 13.5293 13.9184 13.6051L13.9085 13.8582C13.6552 14.0315 13.4238 14.2898 13.1256 14.4524C12.9846 14.5293 12.4898 14.7272 12.3398 14.6923C12.2548 14.6725 12.2472 14.5672 12.2133 14.4679C12.1409 14.2552 11.9745 13.9169 11.96 13.5968C11.9415 13.1926 11.9007 12.5151 12.3363 12.5983C12.6878 12.6654 13.0966 12.8273 13.3687 12.9759C13.535 13.0669 13.6312 13.1793 13.8834 13.1987Z" fill="#A9A9A9"/>
<path d="M13.8834 13.1987L13.8795 13.2997C13.7413 13.3905 13.5182 13.3893 13.3665 13.4657C13.5901 13.4755 13.7661 13.5293 13.9184 13.6051L13.9085 13.8582C13.6552 14.0315 13.4238 14.2898 13.1256 14.4524C12.9846 14.5293 12.4898 14.7272 12.3398 14.6923C12.2548 14.6725 12.2472 14.5672 12.2133 14.4679C12.1409 14.2552 11.9745 13.9169 11.96 13.5968C11.9415 13.1926 11.9007 12.5151 12.3363 12.5983C12.6878 12.6654 13.0966 12.8273 13.3687 12.9759C13.535 13.0669 13.6312 13.1793 13.8834 13.1987Z" stroke="#A9A9A9" stroke-width="0.167578"/>
<path fill-rule="evenodd" clip-rule="evenodd" d="M14.1349 13.6806C14.0962 13.4604 14.0516 13.3976 14.0689 13.2054C14.6561 12.8139 14.7664 13.878 14.1349 13.6806Z" fill="#A9A9A9"/>
<path d="M14.1349 13.6806C14.0962 13.4604 14.0516 13.3976 14.0689 13.2054C14.6561 12.8139 14.7664 13.878 14.1349 13.6806Z" stroke="#A9A9A9" stroke-width="0.167578"/>
<path fill-rule="evenodd" clip-rule="evenodd" d="M14.9853 13.8594C14.9853 13.8594 14.8026 13.5985 14.9331 13.5203C15.0636 13.4421 15.194 13.5204 15.2723 13.3899C15.3505 13.2595 15.2723 13.1812 15.2983 13.0247C15.3243 12.8683 15.4549 12.8421 15.5852 12.816C15.7156 12.7899 16.0809 12.7378 16.133 12.8683L15.9765 12.3987L15.6635 12.2944L14.6723 12.8683L14.6201 13.1552V13.729M12.2466 14.7202C12.2156 14.3132 12.1818 13.9064 12.1452 13.4999C12.0899 12.8927 12.291 12.9986 12.8174 12.9986C12.8977 12.9986 13.3124 13.0945 13.3421 13.1552C13.4843 13.4457 13.1042 13.3812 13.506 13.6003C13.845 13.7852 14.4441 13.488 14.3071 13.077C14.2305 12.9855 13.9076 13.0484 13.7918 12.9884L13.1806 12.6715C12.9213 12.537 12.3221 12.3409 12.0457 12.5288C11.3453 13.0052 12.0898 14.1953 12.3397 14.6922" fill="#A9A9A9"/>
<path fill-rule="evenodd" clip-rule="evenodd" d="M12.9329 5.47895C12.2219 5.31332 11.8687 5.77641 11.6532 6.25668C11.4608 6.2101 11.5374 5.94838 11.586 5.81508C11.7132 5.46508 12.226 4.99926 12.6451 5.06245C12.8253 5.08959 13.0694 5.25454 12.9329 5.47895ZM16.3967 6.28852L16.4304 6.28979C16.5912 6.62348 16.7301 6.97709 16.9329 7.27163C16.797 7.58793 15.9047 7.86772 15.9185 7.29995C16.1115 7.21557 16.4447 7.28266 16.6157 7.17495C16.5167 6.90346 16.3741 6.6725 16.3967 6.28852ZM13.2968 6.29711C13.4493 6.57661 13.4989 6.87016 13.7156 7.08129C13.8131 7.17641 14.0029 7.29233 13.9088 7.55678C13.8869 7.61909 13.7262 7.75815 13.6334 7.78549C13.2948 7.88549 12.5054 7.8061 12.7727 7.38383C13.0529 7.39692 13.4294 7.56577 13.6388 7.36235C13.478 7.10532 13.1914 6.59672 13.2968 6.29711ZM16.2696 9.13715C15.7595 9.46479 15.1909 9.82104 14.3551 9.73842C14.1765 9.58315 14.1084 9.23774 14.282 9.00952C14.3722 9.16479 14.3155 9.45034 14.5671 9.49331C15.0414 9.57436 15.5933 9.20327 15.9343 9.07338C16.1458 8.71694 15.9162 8.58569 15.7256 8.3562C15.3355 7.88598 14.8123 7.30317 14.8313 6.59936C14.9889 6.48491 15.0026 6.77377 15.0251 6.82631C15.2289 7.30307 15.7415 7.91274 16.1156 8.32065C16.2075 8.42124 16.3587 8.51762 16.3755 8.58403C16.4241 8.77719 16.2493 9.00864 16.2696 9.13715ZM9.54565 8.79223C9.38579 8.70102 9.34771 8.29907 9.16001 8.28764C8.89185 8.27143 8.94077 8.80913 8.94185 9.12348C8.75728 8.9559 8.72476 8.43989 8.8604 8.17475C8.70581 8.09887 8.63677 8.25854 8.55103 8.31479C8.66118 7.5143 9.72202 7.9435 9.54565 8.79223ZM16.5943 9.47055C16.3569 9.92241 16.021 10.4201 15.3244 10.4345C15.3102 10.2886 15.2994 10.0665 15.3251 9.97866C15.8578 9.92749 16.1866 9.65649 16.5943 9.47055ZM13.2567 9.76352C13.701 9.99711 14.5176 10.0222 15.1215 10.0045C15.154 10.1369 15.1532 10.3003 15.1544 10.4617C14.3781 10.5004 13.4602 10.3084 13.2567 9.76352ZM13.1722 10.1992C13.4795 10.9706 14.5356 10.8818 15.4261 10.8606C15.387 10.9607 15.3019 11.079 15.1963 11.1218C14.9109 11.2379 14.1238 11.326 13.7276 11.1157C13.4764 10.9821 13.3149 10.6802 13.1773 10.5034C13.1108 10.4179 12.7797 10.1997 13.1722 10.1992Z" fill="#231F20"/>
<path fill-rule="evenodd" clip-rule="evenodd" d="M16.2325 14.4543C15.872 15.0719 15.527 15.7061 15.0991 16.2509C15.2785 15.7235 15.3553 14.8409 15.3823 14.1681C15.7575 13.9925 16.0789 14.2076 16.2325 14.4543Z" fill="#454545"/>
<path fill-rule="evenodd" clip-rule="evenodd" d="M18.1728 16.6738C17.7691 16.7546 17.4854 17.147 17.0917 17.1218C17.3081 16.8167 17.6874 16.688 18.1728 16.6738ZM18.3509 17.3056C18.0219 17.3403 17.6353 17.3937 17.3016 17.3661C17.4596 17.1248 18.0683 17.2081 18.3509 17.3056ZM18.4649 17.8503C18.0951 17.8583 17.6354 17.8509 17.284 17.8214C17.4919 17.598 18.2251 17.7386 18.4649 17.8503Z" fill="#231F20"/>
<path fill-rule="evenodd" clip-rule="evenodd" d="M15.5367 19.3409C15.5897 19.8054 15.7739 20.276 15.7508 20.7846C15.5464 20.8535 15.4289 20.9139 15.155 20.9135C15.1356 20.4813 15.0778 19.8204 15.0951 19.4083C15.2298 19.4173 15.4285 19.3121 15.5367 19.3409Z" fill="#DCD9D8"/>
<path fill-rule="evenodd" clip-rule="evenodd" d="M14.9405 12.4966C14.7549 12.6178 14.5967 12.7691 14.4183 12.8985C14.0229 12.9181 13.8071 12.8711 13.5165 12.644C13.5213 12.6258 13.5505 12.634 13.5515 12.6116C13.9749 12.8003 14.5131 12.5348 14.9405 12.4966Z" fill="white"/>
<path fill-rule="evenodd" clip-rule="evenodd" d="M12.7181 15.3819C12.8344 14.8779 13.2902 14.6169 13.7041 14.3394C14.1312 14.8815 14.3911 15.5787 14.6771 16.2515C14.0012 16.0478 13.3105 15.7171 12.7181 15.3819Z" fill="#454545"/>
<path fill-rule="evenodd" clip-rule="evenodd" d="M15.0951 19.4084C15.0779 19.8205 15.1357 20.4814 15.155 20.9136C15.4289 20.914 15.5464 20.8536 15.7508 20.7847C15.774 20.2761 15.5898 19.8055 15.5367 19.341C15.4285 19.3122 15.2298 19.4174 15.0951 19.4084ZM10.8293 17.0649C11.01 18.7257 11.2717 20.1217 11.7516 21.5923C12.8166 21.9156 14.1006 21.9439 15.042 21.6521C14.8692 20.822 14.9448 19.8115 14.8437 18.9258C14.7675 18.2601 14.8064 17.5902 14.702 16.911C13.5613 16.6737 11.9489 16.8556 10.8293 17.0649ZM14.9717 16.9214C14.962 17.6347 15.0036 18.3382 15.0581 19.0524C15.332 19.0112 15.5178 18.9838 15.7723 18.928C15.6897 18.2405 15.6998 17.4669 15.5315 16.8587C15.3369 16.8606 15.1657 16.8565 14.9717 16.9214ZM16.3611 16.8065C16.2311 16.7767 16.0797 16.8053 15.9556 16.8077C16.0139 17.3892 16.1556 18.0307 16.2054 18.641C16.4008 18.6471 16.5052 18.5549 16.6659 18.5239C16.6745 17.9882 16.6191 17.2501 16.3611 16.8065ZM18.4647 18.7285C18.872 18.6296 19.1282 18.1308 19.0142 17.6185C18.9377 17.2741 18.8016 16.6259 18.6559 16.4056C18.5482 16.2427 18.2563 16.0294 18.0232 16.1786C17.644 16.4215 16.9759 16.492 16.6994 16.7858C16.838 17.2476 16.8811 17.8817 16.9383 18.4667C17.412 18.4962 17.995 18.3363 18.3889 18.506C18.1138 18.5951 17.757 18.5958 17.5193 18.7257C17.7135 18.8194 18.1682 18.8005 18.4647 18.7285ZM14.6772 16.2516C14.3911 15.5788 14.1313 14.8816 13.7041 14.3395C13.2903 14.617 12.8345 14.878 12.7182 15.382C13.3106 15.7172 14.0013 16.0479 14.6772 16.2516ZM15.3824 14.1682C15.3553 14.841 15.2785 15.7236 15.0991 16.251C15.527 15.7063 15.872 15.072 16.2325 14.4544C16.0788 14.2077 15.7575 13.9926 15.3824 14.1682ZM14.5829 13.8841C14.4209 13.8667 14.2833 14.0704 14.0726 13.9823C14.0243 14.0357 13.9804 14.0936 13.9312 14.1456C14.3966 14.7065 14.6081 15.5024 14.9676 16.1615C15.1606 15.5283 15.1383 14.8346 15.1808 14.1436C14.9158 14.1604 14.7687 13.9038 14.5829 13.8841ZM14.069 13.2057C14.0517 13.3978 14.0963 13.4607 14.135 13.6809C14.7664 13.8782 14.6562 12.8142 14.069 13.2057ZM13.3687 12.9758C13.0966 12.8272 12.6878 12.6652 12.3364 12.5982C11.9007 12.5149 11.9415 13.1924 11.96 13.5967C11.9745 13.9167 12.1409 14.2551 12.2133 14.4678C12.2472 14.567 12.2548 14.6724 12.3397 14.6921C12.4898 14.7271 12.9846 14.5291 13.1256 14.4523C13.4239 14.2897 13.6552 14.0314 13.9085 13.858L13.9184 13.605C13.7661 13.5291 13.5902 13.4753 13.3665 13.4655C13.5182 13.3892 13.7413 13.3903 13.8795 13.2995L13.8834 13.1985C13.6311 13.1791 13.535 13.0667 13.3687 12.9758ZM10.7697 12.5037C10.5439 12.733 11.4031 13.0455 11.6767 13.0623C11.6751 12.9173 11.7593 12.7805 11.7424 12.6764C11.4175 12.6193 10.9905 12.657 10.7697 12.5037ZM13.5516 12.6114C13.5505 12.6338 13.5213 12.6256 13.5165 12.6439C13.8072 12.8709 14.0229 12.9179 14.4184 12.8983C14.5967 12.769 14.7549 12.6176 14.9406 12.4964C14.5131 12.5346 13.9749 12.8001 13.5516 12.6114ZM16.1051 13.3857C16.0929 13.131 16.026 12.6071 15.8686 12.5154C15.5381 12.3226 14.9506 12.9049 14.7018 12.9938C14.7289 13.0717 14.7736 13.1334 14.777 13.233C14.9242 13.1968 15.1034 13.2216 15.231 13.2843C15.0834 13.3008 14.92 13.2997 14.8223 13.3699C14.7866 13.4733 14.8311 13.6142 14.8074 13.7577C15.1574 13.8565 15.5573 13.909 15.9998 13.922C16.0859 13.8101 16.1153 13.597 16.1051 13.3857ZM10.3895 12.7255C10.3186 12.6749 9.8389 12.0507 9.77317 12.0767C8.90501 12.419 8.09339 13.0109 7.368 13.5708C8.0596 15.0548 8.3387 16.8729 8.38811 18.6251C9.1803 18.9957 9.8761 19.5298 10.9512 19.5856C10.8268 18.7055 10.7132 17.9202 10.6426 17.0915C10.3725 16.9776 9.98499 17.0967 9.73216 17.0563C9.73001 16.7516 10.1182 16.9229 10.1506 16.718C10.1749 16.563 9.93694 16.5513 10.0145 16.3073C10.212 16.3791 10.3158 16.5378 10.5266 16.5974C10.7192 16.1761 10.524 15.4307 10.5517 15.0785C10.557 15.0124 10.5847 14.7123 10.7327 14.7649C10.8639 14.8115 10.7253 15.5632 10.7397 15.8965C10.7528 16.2035 10.7026 16.5007 10.8269 16.6934C11.8941 16.5472 12.9685 16.4592 14.0453 16.4298C13.7981 16.3236 13.5043 16.2232 13.1823 16.0417C13.0076 15.9433 12.4573 15.7385 12.4069 15.5727C12.3265 15.3084 12.6178 15.1677 12.6676 14.9411C12.1433 15.2272 12.0409 14.667 11.9169 14.2702C11.8045 13.9108 11.7406 13.6424 11.713 13.4351C11.2613 13.2197 10.7783 13.0017 10.3895 12.7255ZM15.6463 12.1522C16.3696 11.8015 16.4999 13.4629 16.2164 13.9982C16.2603 14.1578 16.411 14.2189 16.4725 14.3624C16.0689 15.0855 15.6205 15.7604 15.2087 16.4748C15.5151 16.2842 15.9527 16.4407 16.3131 16.298C16.445 16.2459 16.5404 15.9442 16.6401 15.7029C16.9145 15.039 17.2027 14.2019 17.3308 13.5683C17.3598 13.4239 17.4386 13.1094 17.4209 12.9809C17.3894 12.7508 17.0773 12.5803 16.9185 12.438C16.626 12.1752 16.4418 11.944 16.1366 11.6982C16.013 11.881 15.7475 12.0036 15.6463 12.1522ZM8.73538 5.73809C8.39075 6.11729 8.46292 6.82794 8.50462 7.33331C9.12767 6.94151 9.95442 7.36436 9.94661 8.03087C10.244 8.02296 10.0577 7.65938 10.0039 7.4252C9.82806 6.66026 10.3001 5.82911 10.0253 5.1296C9.49173 5.17003 9.05345 5.388 8.73538 5.73809ZM11.2014 3.53721C10.4211 3.75841 9.42122 4.3253 9.10061 5.02618C9.34886 4.99005 9.52122 4.86495 9.76614 4.84942C9.85862 4.84337 9.97991 4.88829 10.0863 4.86182C10.2983 4.80919 10.4772 4.33389 10.6371 4.15704C10.793 3.98438 10.9804 3.91055 11.1086 3.75313C11.1909 3.71339 11.3128 3.71612 11.3174 3.59239C11.2818 3.5543 11.2442 3.52511 11.2014 3.53721ZM15.2628 3.74522C14.453 3.28839 13.0823 2.94464 12.2208 3.37413C11.5258 3.72071 10.5862 4.29405 10.2658 5.02071C10.5652 5.72188 10.1773 6.36446 10.1525 7.07637C10.1393 7.45518 10.3308 7.78585 10.3455 8.19825C10.2431 8.36719 9.9302 8.388 9.7137 8.37637C9.64075 8.01163 9.51321 7.60157 9.13753 7.56046C8.60599 7.50225 8.21731 7.94229 8.19319 8.40196C8.16458 8.94258 8.60843 9.83858 9.23743 9.77637C9.4805 9.75235 9.54017 9.5088 9.80491 9.51124C9.94847 9.79757 9.58352 9.88751 9.54612 10.0923C9.53626 10.1452 9.5763 10.352 9.59954 10.4488C9.7138 10.921 9.96858 11.5319 10.2193 11.8913C10.5374 12.3472 11.1626 12.4159 11.8352 12.4607C11.9553 12.2019 12.3978 12.2232 12.6862 12.2908C12.3406 12.1539 12.0194 11.8222 11.7531 11.5285C11.4473 11.1915 11.1375 10.8301 11.1218 10.3898C11.6997 11.1915 12.1772 11.8916 13.2281 12.2443C14.0233 12.511 14.9519 12.1221 15.5629 11.6931C15.8164 11.5148 15.9678 11.2317 16.148 10.9728C16.8223 10.0028 17.1368 8.61846 17.0677 7.27657C17.0392 6.72325 17.0405 6.17169 16.8548 5.79942C16.6608 5.41007 16.0044 5.06182 15.6201 5.41397C15.549 5.03536 15.9397 4.80128 16.3986 4.93741C16.0713 4.51514 15.728 4.00772 15.2628 3.74522ZM16.7715 16.2315C17.4043 15.9168 18.5867 15.3847 18.9834 16.2326C19.1298 16.5451 19.3016 17.0734 19.3775 17.3961C19.4846 17.8513 19.2613 18.8079 18.7935 18.9608C18.3802 19.0956 17.8981 19.0874 17.4003 18.9874C17.3416 18.9387 17.2764 18.8536 17.2308 18.765C16.8754 18.7513 16.5426 18.7842 16.2618 18.9303C16.2884 19.1931 16.1107 19.2353 15.944 19.2895C15.8204 19.7793 16.1911 20.4191 16.1025 20.8658C16.0391 21.1841 15.6476 21.2333 15.3598 21.2929C15.3503 21.4697 15.3724 21.6174 15.392 21.767C15.3262 22.0095 15.031 22.1475 14.7514 22.1814C13.8312 22.292 12.4341 22.3417 11.5491 22.0234C11.3021 21.4176 11.1075 20.6808 10.9018 19.9891C10.0386 20.0813 9.34046 19.6166 8.68235 19.3122C8.45442 19.2066 8.13919 19.1483 8.05413 18.967C7.97151 18.7913 8.0053 18.4548 7.98479 18.1369C7.93274 17.3249 7.88811 16.5417 7.67366 15.7103C7.57737 15.3372 7.4096 15.0079 7.29251 14.6484C7.18431 14.3153 6.99524 13.9035 6.94593 13.5713C6.87288 13.0788 7.33655 13.0515 7.63304 12.8381C8.09134 12.5081 8.4511 12.3256 8.94749 12.0278C9.09456 11.9397 9.53792 11.7164 9.58841 11.6136C9.6886 11.4097 9.41624 11.1223 9.34349 10.9625C9.22825 10.7099 9.16819 10.4952 9.15169 10.2459C8.73528 10.1801 8.41966 9.93223 8.22903 9.65284C7.9136 9.19034 7.69485 8.33477 7.9677 7.68399C7.98919 7.63272 8.09583 7.53194 8.11165 7.45323C8.1427 7.29825 8.05315 7.0921 8.04759 6.92725C8.01897 6.08135 8.19075 5.35255 8.76018 5.09737C8.99134 4.17647 9.81878 3.87032 10.5983 3.4126C10.8897 3.24161 11.2109 3.13233 11.5426 3.01026C12.7326 2.57218 14.5585 2.65469 15.5462 3.40167C15.965 3.71837 16.6344 4.38721 16.8739 4.87139C17.5063 6.14971 17.4614 8.28624 17.0191 9.84132C16.9596 10.0501 16.8734 10.357 16.753 10.6078C16.669 10.7829 16.408 11.1333 16.4397 11.288C16.4723 11.4479 17.0347 11.8748 17.1553 11.9911C17.3724 12.2006 17.785 12.4786 17.8184 12.743C17.8543 13.0242 17.6945 13.4091 17.6134 13.6806C17.3427 14.5864 17.0785 15.4238 16.7715 16.2315Z" fill="#231F20"/>
<path fill-rule="evenodd" clip-rule="evenodd" d="M12.5497 9.96034C12.584 9.91463 12.7728 9.8453 13.0368 9.97244C13.0368 9.97244 12.7238 10.0246 12.7499 10.5465L12.6194 10.5203C12.6194 10.5203 12.4847 10.0472 12.5497 9.96034Z" fill="white"/>
<path fill-rule="evenodd" clip-rule="evenodd" d="M14.8367 14.4459C14.8372 14.4651 14.8338 14.4841 14.8268 14.5019C14.8198 14.5198 14.8094 14.536 14.796 14.5498C14.7826 14.5635 14.7666 14.5744 14.749 14.5818C14.7313 14.5892 14.7124 14.5931 14.6932 14.5931C14.6741 14.5931 14.6551 14.5892 14.6375 14.5818C14.6198 14.5743 14.6038 14.5634 14.5905 14.5497C14.5771 14.536 14.5666 14.5197 14.5597 14.5019C14.5527 14.484 14.5493 14.465 14.5499 14.4458C14.5508 14.4084 14.5664 14.3729 14.5932 14.3468C14.62 14.3207 14.6559 14.3061 14.6933 14.3062C14.7307 14.3062 14.7666 14.3208 14.7934 14.3469C14.8202 14.373 14.8357 14.4085 14.8367 14.4459ZM14.9801 15.1111C14.9801 15.1491 14.965 15.1856 14.938 15.2125C14.9111 15.2393 14.8746 15.2544 14.8366 15.2544C14.7985 15.2544 14.762 15.2392 14.7352 15.2123C14.7083 15.1854 14.6932 15.1489 14.6932 15.1109C14.6932 15.0728 14.7084 15.0363 14.7353 15.0094C14.7622 14.9826 14.7987 14.9675 14.8368 14.9675C14.8748 14.9675 14.9113 14.9827 14.9382 15.0096C14.9651 15.0365 14.9802 15.073 14.9801 15.1111Z" fill="#1D1919"/>
</g>
</g>
<defs>
<clipPath id="clip0_293_514">
<rect width="25" height="25" fill="white"/>
</clipPath>
</defs>
</svg>
