<svg width="25" height="25" viewBox="0 0 25 25" fill="none" xmlns="http://www.w3.org/2000/svg">
<path fill-rule="evenodd" clip-rule="evenodd" d="M4.02601 9.11443C3.10954 9.70827 2.35632 10.5221 1.83503 11.4817C1.31375 12.4413 1.04099 13.5161 1.04163 14.6082C1.0405 15.5308 1.23486 16.4432 1.6119 17.2853C1.98895 18.1274 2.54013 18.88 3.22913 19.4936L6.33017 16.3915C6.06239 16.2035 5.84027 15.9576 5.68023 15.6722C5.5202 15.3868 5.42633 15.0691 5.40556 14.7425C5.38479 14.416 5.43765 14.0889 5.56025 13.7855C5.68284 13.4821 5.87202 13.2102 6.11383 12.9897C6.35563 12.7693 6.64387 12.6059 6.95727 12.5118C7.27066 12.4177 7.60119 12.3952 7.92445 12.446C8.24771 12.4967 8.55543 12.6195 8.82488 12.8051C9.09434 12.9908 9.31864 13.2346 9.48121 13.5186L13.2593 11.3321C12.4033 9.85315 11.0041 8.76641 9.35934 8.30297L9.36455 8.29672C8.80002 8.15376 8.21981 8.08203 7.63746 8.08318C6.36126 8.08507 5.11078 8.44215 4.02601 9.11443ZM11.0375 7.21964C11.5072 7.05365 12.0018 6.9691 12.5 6.96964C13.4208 6.96964 14.276 7.25505 14.9802 7.74151L18.0927 4.63005C16.5245 3.31842 14.5444 2.6011 12.5 2.60401C10.9709 2.60373 9.46853 3.00512 8.14333 3.76799C6.81813 4.53086 5.71657 5.62845 4.94892 6.95089C5.81676 6.66639 6.72419 6.52118 7.63746 6.52068C8.84163 6.52068 9.99267 6.76964 11.0375 7.21964ZM19.1979 5.73422L16.0864 8.84568C16.4917 9.4272 16.7482 10.0993 16.8333 10.803L16.9895 12.0988L18.2052 12.5738C18.6779 12.7601 19.0709 13.1053 19.3165 13.5501C19.5622 13.9949 19.6451 14.5114 19.551 15.0107C19.4569 15.51 19.1916 15.9609 18.8009 16.2858C18.4102 16.6106 17.9185 16.7891 17.4104 16.7905H13.2812V21.1551H17.4104C18.826 21.1548 20.2034 20.6957 21.3361 19.8467C22.4689 18.9977 23.296 17.8045 23.6935 16.4458C24.091 15.0872 24.0375 13.6363 23.541 12.3106C23.0445 10.9849 22.1318 9.85582 20.9395 9.09255C20.6108 7.8595 20.0164 6.71327 19.1979 5.73422ZM11.7187 21.1561V16.7915H8.14059L4.53226 20.4009C5.47426 20.899 6.52397 21.1586 7.58955 21.1571L11.7187 21.1561Z" fill="white"/>
</svg>
